<svg width="48" height="48" viewBox="0 0 48 48" fill="none" xmlns="http://www.w3.org/2000/svg">
<g clip-path="url(#clip0_70_4006)">
<path d="M29.7364 29.0568L26.3933 32.0455" stroke="#fff" stroke-width="2" stroke-miterlimit="10" stroke-linecap="round" stroke-linejoin="round"/>
<path d="M21.6066 32.0455L18.2634 29.0568" stroke="#fff" stroke-width="2" stroke-miterlimit="10" stroke-linecap="round" stroke-linejoin="round"/>
<path d="M3.79697 18.5625L1.66979 11.8706C1.28166 10.6649 1.69604 9.34494 2.70291 8.57713L9.39947 3.47057C11.6757 1.73526 14.9354 2.22276 16.6042 4.54869L18.9874 7.87119" stroke="#fff" stroke-width="2" stroke-miterlimit="10" stroke-linecap="round" stroke-linejoin="round"/>
<path d="M14.9082 26.1797V26.0568C14.9082 25.2009 15.1679 24.3647 15.6526 23.6587L17.4348 21.0609" stroke="#fff" stroke-width="2" stroke-miterlimit="10" stroke-linecap="round" stroke-linejoin="round"/>
<path d="M14.9082 35.309V30.134" stroke="#fff" stroke-width="2" stroke-miterlimit="10" stroke-linecap="round" stroke-linejoin="round"/>
<path d="M4.27588 35.309V30.134" stroke="#fff" stroke-width="2" stroke-miterlimit="10" stroke-linecap="round" stroke-linejoin="round"/>
<path d="M3.85596 18.6731L3.92908 18.9018C4.15877 19.6162 4.27596 20.3606 4.27596 21.1106V26.1797" stroke="#fff" stroke-width="2" stroke-miterlimit="10" stroke-linecap="round" stroke-linejoin="round"/>
<path d="M18.9872 7.87122C18.5993 8.04718 18.2584 8.33068 18.0104 8.70559L14.3542 14.2492C13.9765 14.8215 13.204 14.9757 12.6356 14.5914L9.86274 12.7178C9.25946 12.3091 9.17021 11.4558 9.67665 10.9325L10.3589 10.2269C10.6868 9.88768 11.185 9.76253 11.6351 9.90634L13.3937 10.4671" stroke="#fff" stroke-width="2" stroke-miterlimit="10" stroke-linecap="round" stroke-linejoin="round"/>
<path d="M11.635 9.90622V8.10425" stroke="#fff" stroke-width="2" stroke-miterlimit="10" stroke-linecap="round" stroke-linejoin="round"/>
<path d="M1.73486 45.5697V36.9165C1.73486 36.0288 2.45449 35.3092 3.34221 35.3092H15.8419C16.7296 35.3092 17.4492 36.0288 17.4492 36.9165V45.5697" stroke="#fff" stroke-width="2" stroke-miterlimit="10" stroke-linecap="round" stroke-linejoin="round"/>
<path d="M33.0918 35.309V30.134" stroke="#fff" stroke-width="2" stroke-miterlimit="10" stroke-linecap="round" stroke-linejoin="round"/>
<path d="M30.5654 21.0609L32.3476 23.6587C32.8323 24.3647 33.092 25.2009 33.092 26.0568V26.1797" stroke="#fff" stroke-width="2" stroke-miterlimit="10" stroke-linecap="round" stroke-linejoin="round"/>
<path d="M29.0127 7.87119L31.3959 4.54869C33.0647 2.22276 36.3244 1.73526 38.6006 3.47057L40.1728 4.66963" stroke="#fff" stroke-width="2" stroke-miterlimit="10" stroke-linecap="round" stroke-linejoin="round"/>
<path d="M40.3594 4.82812L45.2972 8.57709C46.3041 9.3449 46.7184 10.6649 46.3303 11.8705L44.0709 18.9018C43.8412 19.6162 43.7241 20.3615 43.7241 21.1105V26.1796" stroke="#fff" stroke-width="2" stroke-miterlimit="10" stroke-linecap="round" stroke-linejoin="round"/>
<path d="M43.7241 35.309V30.134" stroke="#fff" stroke-width="2" stroke-miterlimit="10" stroke-linecap="round" stroke-linejoin="round"/>
<path d="M32.3475 23.6586L30.0961 20.3773C29.5549 19.5887 29.1008 18.7436 28.742 17.8569L25.9066 10.8511C25.4123 9.62998 26.0341 8.24304 27.2744 7.79942C28.2801 7.4397 29.4015 7.81395 29.9896 8.7056L33.6457 14.2491C34.0236 14.8219 34.7961 14.9758 35.3646 14.5914" stroke="#fff" stroke-width="2" stroke-miterlimit="10" stroke-linecap="round" stroke-linejoin="round"/>
<path d="M34.6063 10.4669L36.3649 9.90622C36.815 9.7625 37.3132 9.88756 37.6412 10.2267L38.3234 10.9324C38.8298 11.4558 38.7406 12.3089 38.1374 12.7177L35.3647 14.5914C34.7962 14.9757 34.0235 14.8213 33.6458 14.2491L29.9897 8.70556C29.7416 8.33066 29.4007 8.04706 29.0127 7.87109" stroke="#fff" stroke-width="2" stroke-miterlimit="10" stroke-linecap="round" stroke-linejoin="round"/>
<path d="M36.3652 9.90622V8.10425" stroke="#fff" stroke-width="2" stroke-miterlimit="10" stroke-linecap="round" stroke-linejoin="round"/>
<path d="M31.496 26.1798H45.3199C46.4118 26.1798 47.2969 27.0649 47.2969 28.1568C47.2969 29.2486 46.4118 30.1338 45.3199 30.1338H31.496C30.4041 30.1338 29.519 29.2486 29.519 28.1568C29.519 27.0649 30.4041 26.1798 31.496 26.1798Z" stroke="#fff" stroke-width="2" stroke-miterlimit="10" stroke-linecap="round" stroke-linejoin="round"/>
<path d="M46.2652 45.5697V36.9165C46.2652 36.0288 45.5455 35.3092 44.6578 35.3092H32.1581C31.2704 35.3092 30.5508 36.0288 30.5508 36.9165V45.5697" stroke="#fff" stroke-width="2" stroke-miterlimit="10" stroke-linecap="round" stroke-linejoin="round"/>
<path d="M25.3785 30.4358H22.6216C21.5142 30.4358 20.6165 31.3335 20.6165 32.441C20.6165 33.5484 21.5142 34.4461 22.6216 34.4461H25.3785C26.4859 34.4461 27.3836 33.5484 27.3836 32.441C27.3836 31.3334 26.4859 30.4358 25.3785 30.4358Z" stroke="#fff" stroke-width="2" stroke-miterlimit="10" stroke-linecap="round" stroke-linejoin="round"/>
<path d="M18.0104 8.70563C18.5982 7.81406 19.7204 7.44 20.7254 7.79906C21.9657 8.24344 22.5873 9.63 22.0932 10.8516L19.2582 17.8575C18.8991 18.7434 18.4454 19.5891 17.9045 20.3775L15.6526 23.6588C15.1679 24.3647 14.9082 25.2009 14.9082 26.0569V26.1797" stroke="#fff" stroke-width="2" stroke-miterlimit="10" stroke-linecap="round" stroke-linejoin="round"/>
<path d="M14.9082 35.309V30.134" stroke="#fff" stroke-width="2" stroke-miterlimit="10" stroke-linecap="round" stroke-linejoin="round"/>
<path d="M16.5039 26.1798H2.68012C1.58822 26.1798 0.703125 27.0649 0.703125 28.1568C0.703125 29.2486 1.58822 30.1338 2.68012 30.1338H16.5039C17.5958 30.1338 18.4809 29.2486 18.4809 28.1568C18.4809 27.0649 17.5958 26.1798 16.5039 26.1798Z" stroke="#fff" stroke-width="2" stroke-miterlimit="10" stroke-linecap="round" stroke-linejoin="round"/>
</g>
<defs>
<clipPath id="clip0_70_4006">
<rect width="48" height="48" fill="white"/>
</clipPath>
</defs>
</svg>
