<svg xmlns="http://www.w3.org/2000/svg" width="49.781" height="45.156" viewBox="0 0 49.781 45.156">
  <path id="banknotes" d="M42.719.844l-.969.25L32.781,3.5c-.055.012-.1.016-.156.031l-22.344,6L1.188,11.969l-.969.25.25.969,2.156,7.938v.063L6,33.656V46H50V20H47.875L42.969,1.781ZM41.281,3.281,42.406,7.5c-.207-.051-.422-.121-.625-.156-.633-.1-1.23-.16-1.719-.219a4.467,4.467,0,0,1-.906-.187,4.981,4.981,0,0,1-.625-.687,14.946,14.946,0,0,0-1.219-1.406,5.374,5.374,0,0,0-.406-.375ZM34.063,5.344a2.453,2.453,0,0,1,1.844.906A14.52,14.52,0,0,1,36.938,7.5a4.266,4.266,0,0,0,1.219,1.188,4.089,4.089,0,0,0,1.656.438c.559.07,1.141.1,1.656.188a3.814,3.814,0,0,1,1.219.375.891.891,0,0,1,.469.531c.008.023.023.035.031.063L45.781,20H33.906a11,11,0,0,0-.375-3.25,10.117,10.117,0,0,0-7.688-7.469,8.22,8.22,0,0,0-1.781-.125,8.13,8.13,0,0,0-1.812.281C17.828,10.625,15.207,15.211,15.844,20H6v5.969L4.531,20.531a.859.859,0,0,1,.125-.625,3.943,3.943,0,0,1,.875-.969c.4-.332.895-.629,1.344-.969A3.983,3.983,0,0,0,8.063,16.75h.031a4.1,4.1,0,0,0,.438-1.625,14.241,14.241,0,0,1,.281-1.594,2.461,2.461,0,0,1,2-2.062l22.344-6A3.391,3.391,0,0,1,34.063,5.344Zm-9.937,5.781c3.246-.106,6.453,2.363,7.469,6.156A9.007,9.007,0,0,1,31.906,20H17.875c-.66-4.008,1.453-7.738,4.875-8.656A5.967,5.967,0,0,1,24.125,11.125Zm14.844,1.188a3.5,3.5,0,1,0,3.5,3.5A3.514,3.514,0,0,0,38.969,12.313ZM7.031,12.5a5.236,5.236,0,0,0-.156.5,14.166,14.166,0,0,0-.312,1.813,4.709,4.709,0,0,1-.219.938,4.26,4.26,0,0,1-.687.625c-.391.3-.879.625-1.375,1.031-.168.137-.336.281-.5.438L2.656,13.656Zm31.938,1.813a1.5,1.5,0,1,1-1.5,1.5A1.486,1.486,0,0,1,38.969,14.313ZM8,22h4.531a5.285,5.285,0,0,0-.281.469,15.612,15.612,0,0,0-.812,1.688,4.346,4.346,0,0,1-.437.813,3.589,3.589,0,0,1-.812.438c-.457.184-1.012.395-1.594.656-.2.09-.395.207-.594.313Zm8.438,0H39.563a2.453,2.453,0,0,1,2.469,1.469,14.137,14.137,0,0,1,.688,1.469,4.171,4.171,0,0,0,.844,1.469,4.1,4.1,0,0,0,1.5.844c.52.211,1.055.41,1.531.625a3.863,3.863,0,0,1,1.094.688A.822.822,0,0,1,48,29.25v10a.3.3,0,0,1-.125.281,2.667,2.667,0,0,1-.687.406c-.312.141-.66.289-1.031.438a2.562,2.562,0,0,0-1.812,1.75,10.477,10.477,0,0,1-.469,1A1.36,1.36,0,0,1,42.438,44H13.563a1.36,1.36,0,0,1-1.437-.875,10.025,10.025,0,0,1-.469-1A2.969,2.969,0,0,0,11,41.031a3.019,3.019,0,0,0-1.156-.656c-.371-.148-.719-.3-1.031-.437a2.666,2.666,0,0,1-.687-.406A.3.3,0,0,1,8,39.25V33.5h.031L8,33.375V29.25a.822.822,0,0,1,.313-.687,3.862,3.862,0,0,1,1.094-.687c.477-.215,1.012-.414,1.531-.625a4.1,4.1,0,0,0,1.5-.844,4.234,4.234,0,0,0,.844-1.469,14.943,14.943,0,0,1,.688-1.469A2.452,2.452,0,0,1,16.438,22Zm27.031,0H48v4.375c-.2-.105-.4-.223-.594-.312-.582-.262-1.137-.473-1.594-.656A3.588,3.588,0,0,1,45,24.969a4.352,4.352,0,0,1-.437-.812,15.612,15.612,0,0,0-.812-1.687A5.308,5.308,0,0,0,43.469,22ZM28,23c-5.027,0-9,4.551-9,10s3.973,10,9,10,9-4.551,9-10S33.027,23,28,23Zm0,2c3.809,0,7,3.512,7,8s-3.191,8-7,8-7-3.512-7-8S24.191,25,28,25ZM13.5,30A3.5,3.5,0,1,0,17,33.5,3.514,3.514,0,0,0,13.5,30Zm29,0A3.5,3.5,0,1,0,46,33.5,3.514,3.514,0,0,0,42.5,30Zm-29,2A1.5,1.5,0,1,1,12,33.5,1.486,1.486,0,0,1,13.5,32Zm29,0A1.5,1.5,0,1,1,41,33.5,1.486,1.486,0,0,1,42.5,32ZM8,41.781c.41.184.793.316,1.094.438s.512.262.469.219.109.18.25.5c.125.289.285.668.5,1.063H8Zm40,0V44H45.688c.215-.395.375-.773.5-1.062.141-.32.293-.543.25-.5s.16-.094.469-.219S47.59,41.965,48,41.781Z" transform="translate(-0.219 -0.844)" fill="#fff"/>
</svg>
