<svg width="427" height="449" viewBox="0 0 427 449" fill="none" xmlns="http://www.w3.org/2000/svg">
<g clip-path="url(#clip0_433_525)">
<path d="M345.655 213.572C369.885 213.572 389.5 222.226 389.5 232.957C389.5 234.803 388.923 236.649 387.769 238.38C382.462 246.456 365.616 252.341 345.655 252.341C325.694 252.341 308.848 246.456 303.54 238.38C302.386 236.649 301.81 234.803 301.81 232.957C301.81 222.226 321.424 213.572 345.655 213.572Z" fill="#D5E1E7"/>
<path opacity="0.1" d="M340.001 261.341C345.194 264.341 345.194 269.187 340.117 272.302L155.505 379.607C150.313 382.607 141.89 382.607 136.698 379.607L34.8155 320.763C29.6233 317.763 29.6233 312.917 34.8155 309.801L219.427 202.496C224.619 199.496 233.042 199.496 238.234 202.496L340.001 261.341Z" fill="#234E55"/>
<path d="M319.464 174.227C324.079 179.073 334.117 182.304 345.54 182.304C357.078 182.304 367.001 178.958 371.617 174.227C373.347 172.381 374.386 170.304 374.386 168.112V230.764C374.386 238.61 361.463 244.956 345.54 244.956C329.617 244.956 316.695 238.61 316.695 230.764V168.112C316.695 170.42 317.733 172.381 319.464 174.227Z" fill="url(#paint0_linear_433_525)"/>
<path d="M319.464 168.227C319.464 169.381 319.81 170.42 320.503 171.458C323.618 166.612 333.656 163.15 345.656 163.15C357.54 163.15 367.694 166.727 370.809 171.458C371.502 170.42 371.848 169.381 371.848 168.227C371.848 161.881 360.194 156.689 345.656 156.689C331.233 156.574 319.464 161.766 319.464 168.227Z" fill="url(#paint1_linear_433_525)"/>
<path d="M320.502 171.343C323.617 176.189 333.656 179.65 345.655 179.65C357.54 179.65 367.693 176.073 370.809 171.343C367.693 166.497 357.655 163.035 345.655 163.035C333.771 163.035 323.617 166.612 320.502 171.343Z" fill="#101130"/>
<path d="M345.655 156.574C360.078 156.574 371.847 161.766 371.847 168.112C371.847 169.266 371.501 170.304 370.809 171.343C367.693 176.189 357.655 179.65 345.655 179.65C333.771 179.65 323.617 176.073 320.502 171.343C319.81 170.304 319.464 169.266 319.464 168.112C319.464 161.766 331.233 156.574 345.655 156.574ZM345.655 182.419C357.194 182.419 367.117 179.073 371.732 174.343C373.463 172.496 374.501 170.42 374.501 168.227C374.501 160.381 361.578 154.035 345.655 154.035C329.733 154.035 316.81 160.381 316.81 168.227C316.81 170.42 317.848 172.496 319.579 174.343C324.194 179.073 334.117 182.419 345.655 182.419Z" fill="url(#paint2_linear_433_525)"/>
<path d="M339.539 169.15C341.039 169.15 342.309 169.727 342.309 170.42C342.309 170.535 342.309 170.65 342.193 170.766C341.847 171.227 340.809 171.689 339.539 171.689C338.27 171.689 337.232 171.343 336.886 170.766C336.77 170.65 336.77 170.535 336.77 170.42C336.77 169.727 338.039 169.15 339.539 169.15Z" fill="#DFE4E9"/>
<path d="M343.923 172.496C345.423 172.496 346.692 173.073 346.692 173.766C346.692 173.881 346.692 173.996 346.577 174.112C346.231 174.573 345.192 175.035 343.923 175.035C342.654 175.035 341.616 174.689 341.269 174.112C341.154 173.996 341.154 173.881 341.154 173.766C341.154 173.073 342.423 172.496 343.923 172.496Z" fill="#DFE4E9"/>
<path d="M350.039 169.15C351.539 169.15 352.809 169.727 352.809 170.42C352.809 170.535 352.809 170.65 352.693 170.766C352.347 171.227 351.309 171.689 350.039 171.689C348.77 171.689 347.732 171.343 347.386 170.766C347.27 170.65 347.27 170.535 347.27 170.42C347.27 169.727 348.539 169.15 350.039 169.15Z" fill="#DFE4E9"/>
<path d="M353.615 173.419C354.769 173.419 355.808 173.881 355.808 174.343C355.808 174.458 355.808 174.573 355.692 174.573C355.461 174.919 354.538 175.266 353.615 175.266C352.692 175.266 351.769 174.919 351.538 174.573C351.538 174.458 351.423 174.343 351.423 174.343C351.423 173.766 352.462 173.419 353.615 173.419Z" fill="#DFE4E9"/>
<path d="M333.886 169.843C335.155 169.843 336.193 170.304 336.193 170.881C336.193 170.996 336.193 171.112 336.078 171.112C335.847 171.573 334.924 171.804 333.886 171.804C332.847 171.804 331.924 171.458 331.693 171.112C331.578 170.996 331.578 170.881 331.578 170.881C331.578 170.304 332.617 169.843 333.886 169.843Z" fill="#DFE4E9"/>
<path d="M349.924 170.996C350.616 170.881 351.077 170.419 351.077 169.727C349.462 152.304 352.116 134.536 358.808 118.382C359.039 117.805 358.808 117.113 358.231 116.882C357.654 116.651 356.962 116.882 356.731 117.459C349.924 133.959 347.154 152.074 348.885 169.958C348.885 170.535 349.347 170.996 349.924 170.996Z" fill="#FE5C36"/>
<path d="M352.578 130.959C353.731 124.728 348.193 122.882 351.885 113.075C357.078 99.6902 382.346 76.6138 384.769 78.806C387.308 81.1137 373 115.613 365.962 122.882C362.5 126.459 353.962 127.959 352.693 133.266C352.693 132.343 352.578 131.882 352.578 130.959Z" fill="#FE5C36"/>
<path d="M300.656 129.459C299.618 131.19 299.156 133.613 300.079 136.613C300.195 136.959 300.31 137.189 300.426 137.536C301.579 140.42 306.079 136.151 310.464 132.574C308.041 128.767 304.926 126.459 300.656 129.459Z" fill="#101130"/>
<path d="M300.654 129.459C304.924 126.459 308.039 128.767 310.347 132.574C313.116 136.959 314.846 143.305 316.346 145.958C319.231 150.92 326.615 148.382 329.846 152.535L331.231 151.843C330.769 149.766 331.346 147.805 332.385 145.958C333.423 144.343 335.154 142.959 335.615 141.112C335.731 140.305 335.615 139.497 335.5 138.805C334.461 133.728 332.038 129.459 328 125.882C317.616 116.651 309.424 123.92 309.424 123.92C309.424 123.92 303.193 125.19 300.654 129.459Z" fill="#FE5C36"/>
<path d="M361.347 140.997C365.154 134.074 373.462 130.151 383.269 131.997C393.077 133.959 411.769 145.035 411.538 147.805C411.423 150.574 395.5 149.997 388.346 149.074C381.192 148.151 376.692 150.92 371.962 149.881C367.231 148.843 361.347 140.997 361.347 140.997Z" fill="#FE5C36"/>
<path d="M353.616 174.804C354.309 174.804 354.77 174.227 354.77 173.65C354.77 160.151 358.924 142.959 364.693 140.189C365.27 139.959 365.501 139.266 365.27 138.689C365.039 138.113 364.347 137.882 363.77 138.113C356.962 141.343 352.463 159.112 352.578 173.65C352.463 174.343 352.924 174.804 353.616 174.804Z" fill="#FE5C36"/>
<path d="M339.771 136.266C340.809 130.151 328.117 129.805 324.655 124.844C321.194 119.997 331.001 72.6908 338.04 72.6908C345.078 72.6908 351.193 116.19 350.501 120.921C349.809 125.536 341.963 131.19 340.809 137.997L339.771 136.266Z" fill="#FE5C36"/>
<path d="M343.924 174.227H344.04C344.617 174.112 345.078 173.535 345.078 172.958C343.924 162.92 340.232 128.767 341.501 113.305C341.501 112.613 341.04 112.151 340.463 112.036C339.771 111.921 339.309 112.498 339.194 113.075C337.809 128.767 341.617 163.035 342.77 173.189C342.886 173.766 343.347 174.227 343.924 174.227Z" fill="#FE5C36"/>
<path d="M333.885 171.573C334.578 171.573 335.039 170.996 335.039 170.42C334.808 158.304 330.539 145.497 322.001 131.074C321.655 130.497 320.962 130.382 320.386 130.728C319.809 131.074 319.693 131.767 320.039 132.343C328.347 146.305 332.501 158.766 332.731 170.535C332.731 170.996 333.193 171.573 333.885 171.573Z" fill="#FE5C36"/>
<path d="M354.885 125.997C355 125.997 355.116 125.882 355.116 125.767C363.885 101.998 377.038 88.9597 377.154 88.8443C377.269 88.7289 377.269 88.4981 377.154 88.3828C377.038 88.2674 376.808 88.2674 376.692 88.3828C376.577 88.4981 363.308 101.652 354.539 125.536C354.539 125.767 354.654 125.882 354.885 125.997Z" fill="#DFE4E9"/>
<path d="M407.268 146.535C407.384 146.535 407.499 146.42 407.499 146.305C407.499 146.189 407.499 145.958 407.268 145.958C405.999 145.612 376.461 136.151 364 139.612C363.885 139.612 363.769 139.843 363.769 139.959C363.769 140.074 364 140.189 364.115 140.189C376.577 136.843 406.922 146.42 407.268 146.535Z" fill="#DFE4E9"/>
<path d="M340.463 131.766C340.694 131.766 340.809 131.651 340.694 131.42C340.694 131.19 337.809 103.613 339.194 79.9598C339.194 79.8444 339.079 79.6136 338.963 79.6136C338.732 79.6136 338.617 79.729 338.617 79.8444C337.233 103.613 340.002 131.19 340.117 131.42C340.117 131.766 340.232 131.766 340.463 131.766Z" fill="#DFE4E9"/>
<path d="M328.462 146.535C328.693 146.42 328.808 146.305 328.693 146.189C328.347 145.151 320.155 121.267 310.578 123.805C310.463 123.805 310.347 124.036 310.347 124.151C310.347 124.267 310.578 124.382 310.693 124.382C319.693 121.959 328.001 146.189 328.116 146.42C328.231 146.535 328.347 146.535 328.462 146.535Z" fill="#DFE4E9"/>
<path d="M359.616 173.65C361.232 173.65 362.501 174.227 362.501 174.919C362.501 175.035 362.501 175.15 362.386 175.266C362.039 175.842 360.886 176.189 359.616 176.189C358.347 176.189 357.193 175.842 356.847 175.266C356.732 175.15 356.732 175.035 356.732 174.919C356.732 174.343 358.001 173.65 359.616 173.65Z" fill="#DFE4E9"/>
<path d="M326.732 168.92C327.655 168.92 328.463 169.266 328.463 169.612C328.463 169.727 328.463 169.727 328.348 169.843C328.117 170.189 327.54 170.419 326.732 170.419C325.924 170.419 325.348 170.189 325.117 169.843C325.117 169.727 325.001 169.727 325.001 169.612C325.117 169.266 325.809 168.92 326.732 168.92Z" fill="#DFE4E9"/>
<path d="M336.193 175.727C337.116 175.727 337.924 176.073 337.924 176.419C337.924 176.535 337.924 176.535 337.808 176.65C337.578 176.996 337.001 177.227 336.193 177.227C335.385 177.227 334.808 176.996 334.578 176.65C334.578 176.535 334.462 176.535 334.462 176.419C334.578 176.073 335.27 175.727 336.193 175.727Z" fill="#DFE4E9"/>
<path d="M360.539 168.112C361.462 168.112 362.27 168.458 362.27 168.804C362.27 168.92 362.27 168.92 362.154 169.035C361.923 169.381 361.346 169.612 360.539 169.612C359.731 169.612 359.154 169.381 358.923 169.035C358.923 168.92 358.808 168.92 358.808 168.804C358.923 168.458 359.616 168.112 360.539 168.112Z" fill="#DFE4E9"/>
<mask id="mask0_433_525" style="mask-type:luminance" maskUnits="userSpaceOnUse" x="339" y="208" width="5" height="34">
<path d="M343.925 208.726L343.809 236.534C343.809 238.495 342.54 240.457 339.886 241.956L340.002 214.149C342.656 212.649 343.925 210.688 343.925 208.726Z" fill="white"/>
</mask>
<g mask="url(#mask0_433_525)">
<path d="M343.925 208.726L343.809 236.534V236.649L343.925 208.842V208.726Z" fill="#0D7D7D"/>
</g>
<path d="M340.001 203.188C345.194 206.188 345.194 211.034 340.117 214.149L155.505 321.455C150.313 324.455 141.89 324.455 136.698 321.455L34.8155 262.61C29.6233 259.61 29.6233 254.764 34.8155 251.649L219.427 144.343C224.619 141.343 233.042 141.343 238.234 144.343L340.001 203.188Z" fill="url(#paint3_linear_433_525)"/>
<path d="M30.6621 284.879C30.6621 286.84 31.9313 288.802 34.5851 290.417L136.468 349.262C137.045 349.608 137.737 349.954 138.429 350.185C139.006 350.416 139.468 350.531 140.044 350.762C140.506 350.877 140.967 350.993 141.429 351.108C141.891 351.223 142.352 351.223 142.698 351.339C143.16 351.454 143.506 351.454 143.967 351.454C144.429 351.454 144.891 351.454 145.237 351.57C145.698 351.57 146.16 351.57 146.621 351.57C147.083 351.57 147.66 351.57 148.121 351.454C148.698 351.339 149.275 351.339 149.852 351.223C150.775 351.108 151.583 350.877 152.39 350.647C153.429 350.3 154.467 349.839 155.275 349.377L230.273 305.763L279.888 276.917L339.886 242.072L340.002 241.957C340.694 241.61 341.271 241.149 341.733 240.687C342.079 240.457 342.309 240.11 342.54 239.764C342.771 239.533 342.886 239.303 343.117 238.957C343.233 238.726 343.348 238.495 343.463 238.264C343.579 238.033 343.579 237.803 343.694 237.572C343.809 237.341 343.809 237.11 343.809 236.764L343.925 208.957C343.925 208.957 343.925 208.957 343.925 209.073C343.925 209.188 343.925 209.303 343.925 209.419C343.925 209.534 343.925 209.649 343.809 209.765C343.809 209.88 343.809 209.88 343.809 209.996C343.809 210.111 343.694 210.226 343.694 210.342V210.457C343.694 210.573 343.694 210.573 343.579 210.688C343.463 210.919 343.463 211.034 343.348 211.265C343.233 211.38 343.233 211.496 343.117 211.611C343.002 211.726 342.886 211.842 342.886 211.957C342.656 212.303 342.425 212.534 342.079 212.88C341.963 212.996 341.848 213.111 341.733 213.226C341.617 213.342 341.502 213.457 341.271 213.572C341.04 213.803 340.694 214.034 340.348 214.149L340.233 214.265L265.234 257.879L230.619 278.071L155.621 321.686C155.39 321.801 155.044 322.032 154.698 322.147C154.006 322.493 153.313 322.724 152.621 322.955C152.275 323.07 151.929 323.186 151.583 323.301C151.121 323.416 150.66 323.532 150.083 323.647C150.083 323.647 150.083 323.647 149.967 323.647C149.737 323.647 149.39 323.762 149.16 323.762C148.929 323.762 148.583 323.878 148.352 323.878C148.006 323.878 147.66 323.878 147.314 323.993C147.198 323.993 146.967 323.993 146.852 323.993C146.621 323.993 146.506 323.993 146.275 323.993C146.16 323.993 146.044 323.993 145.929 323.993H145.467C145.006 323.993 144.544 323.993 144.198 323.878H144.083C143.737 323.878 143.506 323.878 143.16 323.762C143.044 323.762 143.044 323.762 142.929 323.762C142.814 323.762 142.583 323.762 142.467 323.647C142.352 323.647 142.352 323.647 142.237 323.647C142.006 323.647 141.775 323.532 141.544 323.532C141.429 323.532 141.198 323.416 141.083 323.416C140.737 323.416 140.506 323.301 140.16 323.186C140.044 323.186 140.044 323.186 139.929 323.07C139.468 322.955 139.006 322.724 138.544 322.609C138.198 322.493 137.968 322.378 137.621 322.263C137.275 322.147 136.929 321.916 136.583 321.686L34.7005 262.841C32.0467 261.341 30.7775 259.379 30.7775 257.302L30.6621 284.879Z" fill="url(#paint4_linear_433_525)"/>
<path d="M189.081 376.377L244.696 408.684L341.963 352.493L286.349 320.186L189.081 376.377Z" fill="#D5E1E7"/>
<path d="M81.7765 279.456L117.314 259.033L122.737 255.802L173.159 284.879L135.314 306.686L132.198 304.955L129.083 306.801L81.7765 279.456Z" fill="#E6E7E8"/>
<path d="M189.083 361.262V366.915L244.697 399.222V393.684L189.083 361.262Z" fill="url(#paint5_linear_433_525)"/>
<path d="M244.697 393.684V399.222L341.964 343.031V337.493L244.697 393.684Z" fill="url(#paint6_linear_433_525)"/>
<path d="M189.082 361.262L244.697 393.684L341.964 337.493L286.35 305.186L189.082 361.262Z" fill="url(#paint7_linear_433_525)"/>
<path d="M291.195 349.608C291.195 349.608 290.272 358.262 275.388 351.339C260.504 344.416 249.196 328.262 249.196 328.262L268.003 324.801L291.195 349.608Z" fill="#D5E1E7"/>
<path d="M267.657 367.377C267.657 367.377 266.734 376.031 251.85 369.108C236.966 362.185 229.696 352.493 229.696 352.493L244.465 342.57L267.657 367.377Z" fill="#D5E1E7"/>
<path d="M171.89 282.917L139.583 301.609L96.4297 276.687L128.737 258.11L171.89 282.917Z" fill="#838495"/>
<path d="M170.505 280.725L138.198 299.417L95.0449 274.494L127.352 255.802L170.505 280.725Z" fill="#53AFBE"/>
<path d="M138.66 296.532L166.352 280.494L129.545 259.264L101.853 275.302L138.66 296.532ZM165.313 280.494L138.775 295.84L103.122 275.302L129.66 259.956L165.313 280.494Z" fill="#53AFBE"/>
<path d="M155.852 275.648V281.994L128.506 297.801V291.455L155.852 275.648Z" fill="#F9B0A1"/>
<path d="M129.544 292.148L155.852 276.802V280.725L129.544 296.071V292.148Z" fill="#F9F8F7"/>
<path d="M155.852 275.648L128.506 291.455L90.0837 269.302L106.583 259.841V266.187L128.506 278.879L144.89 269.302L155.852 275.648Z" fill="#FE5C36"/>
<path d="M128.506 291.456V297.802L90.0836 275.648V269.302L128.506 291.456Z" fill="#E24D29"/>
<path d="M144.89 262.956V269.302L128.505 278.879V272.533L144.89 262.956Z" fill="#FDDF94"/>
<path d="M129.544 273.11L144.89 264.11V268.033L129.544 277.033V273.11Z" fill="#F9F8F7"/>
<path d="M144.89 262.956L128.505 272.533L106.583 259.841L122.967 250.379L144.89 262.956Z" fill="#FFB349"/>
<path d="M126.314 256.725L118.007 261.456L114.315 259.495L122.622 254.649L126.314 256.725Z" fill="#F9E4C7"/>
<path d="M128.506 272.533V278.879L106.583 266.187V259.841L128.506 272.533Z" fill="#F1A63E"/>
<path d="M126.313 271.264L125.737 270.918V277.264L126.313 277.61V271.264Z" fill="#FDDF94"/>
<path d="M123.543 275.994L124.12 276.34V269.994L123.543 269.648V275.994Z" fill="#FDDF94"/>
<path d="M226.118 266.994C228.657 268.841 230.503 274.264 230.388 277.956C230.272 280.61 230.388 297.455 230.388 305.648L280.002 276.802L265.002 257.764L251.964 241.149L196.004 210.688C181.696 208.842 162.774 214.726 164.389 224.765C165.889 233.534 223.58 265.148 226.118 266.994Z" fill="#234E55"/>
<path d="M257.158 151.728L255.196 156.112L256.466 163.497L257.966 164.304L258.889 163.497V154.266L257.158 151.728Z" fill="#E3BE8F"/>
<path d="M163.121 158.535C163.698 158.766 164.274 159.112 165.082 159.343C165.313 159.458 165.544 159.574 165.774 159.574C168.082 160.266 170.967 160.843 173.967 161.304C181.236 162.343 189.543 162.804 193.697 162.92C195.312 162.92 196.351 163.035 196.351 163.035C196.351 163.035 196.351 162.574 196.466 161.881C196.466 161.65 196.466 161.535 196.466 161.304C196.466 161.189 196.466 161.074 196.466 160.958C196.466 160.727 196.466 160.497 196.466 160.266C196.581 159.227 196.582 157.958 196.697 156.458C196.697 155.997 196.812 155.535 196.812 154.958C196.812 154.497 196.812 153.92 196.928 153.458C196.928 152.997 196.928 152.651 197.043 152.189C197.043 151.497 197.158 150.805 197.158 150.112C197.158 149.881 197.158 149.535 197.158 149.305C197.274 147.92 197.274 146.535 197.389 145.151C197.389 144.689 197.389 144.228 197.505 143.766C197.505 143.651 197.505 143.535 197.505 143.305C197.505 142.959 197.505 142.612 197.62 142.382C197.62 142.035 197.62 141.689 197.62 141.459C197.62 140.766 197.735 140.189 197.735 139.612C197.735 139.497 197.735 139.266 197.735 139.151V138.574C197.735 138.459 197.735 138.343 197.735 138.228C197.735 137.997 197.735 137.766 197.735 137.536C197.735 136.843 197.851 136.151 197.851 135.574C197.851 135.343 197.851 135.228 197.851 134.997C197.966 133.613 197.966 132.459 198.081 131.651C198.081 131.42 198.081 131.305 198.081 131.19C198.428 126.805 197.851 113.19 185.274 109.613C183.082 109.036 181.12 108.805 179.39 108.921C172.928 109.267 169.813 113.651 168.774 115.382C164.505 124.728 163.698 139.382 163.121 158.535Z" fill="#FFB349"/>
<path d="M168.66 208.034C171.66 208.149 176.736 208.034 176.736 208.034C174.89 207.457 173.39 206.765 172.583 205.842C167.621 200.88 165.198 176.073 165.775 159.689V159.574C165.544 159.458 165.313 159.458 165.083 159.343L164.967 159.574C164.967 159.574 165.544 207.342 166.467 207.803C166.698 207.919 167.506 208.034 168.66 208.034Z" fill="#838495"/>
<path d="M188.39 236.072C209.044 250.033 228.89 260.302 232.12 265.841C235.351 271.494 230.62 339.108 232.005 340.262C232.236 340.378 232.928 340.608 233.966 340.839C234.889 341.07 236.159 341.185 237.659 341.416C243.543 342.108 252.543 342.224 257.274 339.801C258.197 339.339 258.889 338.762 259.351 338.07H259.466C259.581 337.147 259.697 336.224 259.697 335.416C259.812 334.724 259.812 334.032 259.927 333.339C260.274 330.339 260.504 327.455 260.85 324.686C260.966 323.878 261.081 323.07 261.081 322.378C261.197 320.878 261.427 319.378 261.543 317.878C261.658 317.186 261.658 316.378 261.774 315.686C261.889 314.301 262.12 312.801 262.235 311.532C262.35 310.84 262.35 310.147 262.466 309.455C262.697 308.071 262.812 306.801 262.927 305.532C263.274 302.301 263.735 299.301 264.081 296.302C264.427 293.994 264.658 291.802 264.889 289.609C265.004 288.571 265.12 287.532 265.235 286.494C265.466 284.417 265.697 282.456 265.812 280.494C265.927 279.571 265.927 278.648 266.043 277.725C266.043 276.802 266.158 275.879 266.158 274.956C266.273 272.071 266.273 269.302 266.273 266.648C266.158 264.341 266.043 262.148 265.812 259.956C265.697 259.495 265.697 259.033 265.581 258.572C264.543 251.879 258.774 244.264 251.505 237.11C250.812 236.534 250.235 235.841 249.543 235.264C248.851 234.687 248.274 233.995 247.582 233.418C247.235 233.072 246.889 232.841 246.543 232.495C245.851 231.918 245.159 231.341 244.466 230.764C243.428 229.841 242.389 229.034 241.351 228.226C240.659 227.649 239.966 227.188 239.274 226.611C238.582 226.034 237.889 225.572 237.197 224.995C236.505 224.418 235.813 223.957 235.236 223.495C234.889 223.265 234.543 223.034 234.197 222.803C233.274 222.111 232.351 221.418 231.543 220.842C230.39 219.918 229.236 219.226 228.197 218.419C227.967 218.303 227.736 218.072 227.505 217.957C226.351 217.149 225.197 216.342 224.274 215.765C223.928 215.534 223.582 215.303 223.351 215.072C222.659 214.611 222.082 214.265 221.505 213.803C220.005 212.88 218.967 212.188 218.39 211.842C214.582 211.726 211.352 211.611 209.275 211.496C201.89 210.919 184.929 210.919 176.391 208.265C176.391 208.265 175.468 208.265 174.083 208.265C173.16 208.265 172.006 208.265 170.968 208.265C170.045 208.265 169.006 208.265 168.199 208.265C168.66 208.611 168.199 222.342 188.39 236.072Z" fill="#53AFBE"/>
<path d="M168.89 115.267C169.813 113.536 172.928 109.152 179.505 108.805C181.235 108.69 183.197 108.921 185.389 109.498C197.966 113.075 198.543 126.69 198.197 131.074C198.197 131.19 198.197 131.305 198.197 131.536C198.081 132.343 198.081 133.497 197.966 134.882C197.966 135.113 197.966 135.228 197.966 135.459C197.966 136.036 197.851 136.728 197.851 137.42C197.851 137.651 197.851 137.882 197.851 138.112C197.851 138.228 197.851 138.343 197.851 138.459V139.036C197.851 139.151 197.851 139.382 197.851 139.497C197.851 140.074 197.735 140.766 197.735 141.343C197.735 141.689 197.735 142.036 197.735 142.266C197.735 142.612 197.735 142.959 197.62 143.189C197.62 143.305 197.62 143.42 197.62 143.651C197.62 144.112 197.62 144.574 197.504 145.035C197.389 146.42 197.389 147.805 197.274 149.189C197.274 149.42 197.274 149.651 197.274 149.997C197.274 150.689 197.158 151.381 197.158 152.074C197.158 152.535 197.158 152.881 197.043 153.343C197.043 153.804 197.043 154.381 196.927 154.843C196.927 155.304 196.812 155.881 196.812 156.343C196.697 157.727 196.697 159.112 196.581 160.151C196.581 160.381 196.581 160.612 196.581 160.843C196.581 160.958 196.581 161.074 196.581 161.189C196.581 161.42 196.581 161.65 196.581 161.766C196.581 162.574 196.466 162.92 196.466 162.92C196.466 162.92 195.428 162.92 193.812 162.804V162.92C193.812 162.92 192.081 184.727 193.12 186.112C193.697 186.919 207.081 190.381 218.85 192.919C221.619 193.496 224.388 194.073 226.811 194.65C228.658 193.727 229.581 192.919 230.158 192.342C230.619 191.881 230.734 191.534 230.734 191.534C227.388 187.496 226.119 179.881 226.35 171.227C226.465 163.958 227.619 156.112 229.35 148.843C229.811 146.997 230.158 145.035 230.388 143.189C232.119 129.343 229.465 115.728 229.35 115.036C227.158 116.536 225.196 117.574 223.581 118.267C218.042 120.228 214.812 118.036 213.196 115.844C213.196 115.844 211.35 116.075 208.812 115.728C208.004 115.613 207.081 115.498 206.158 115.267C201.197 113.882 195.312 110.075 194.62 99.2287L194.504 99.1133C192.428 100.383 189.543 101.536 185.389 102.69C184.582 102.921 183.774 103.152 182.851 103.382C175.928 105.344 171.659 109.267 168.89 115.267Z" fill="#FFB349"/>
<path d="M205.813 115.382C207.543 117.459 209.736 119.997 211.12 120.805C213.774 122.536 219.659 121.151 223.235 118.382C217.697 120.344 214.466 118.151 212.851 115.959C212.851 115.959 211.005 116.19 208.466 115.844C207.659 115.844 206.851 115.613 205.813 115.382Z" fill="#F1A63E"/>
<path d="M194.275 99.2287C195.198 112.152 203.391 115.267 208.583 115.844C208.467 114.69 207.775 106.844 208.814 106.844C209.967 106.844 210.775 111.69 212.39 114.921C212.506 115.267 212.737 115.613 212.967 115.959C215.044 118.844 220.006 121.728 229.121 115.151C229.352 115.036 229.467 114.921 229.582 114.805C231.198 113.536 232.698 112.152 233.967 110.536C239.505 103.844 241.928 94.8442 242.736 91.2673C242.967 90.3443 243.082 89.7674 243.082 89.7674V89.652C239.967 89.3058 237.198 88.6135 236.044 88.2674C234.198 87.8059 231.659 87.8059 230.044 87.9212C229.121 87.9212 228.198 88.3828 227.621 89.1904C227.621 89.3058 227.505 89.3058 227.505 89.3058C226.352 90.6904 224.506 91.9596 221.044 92.1904C216.544 92.5365 218.621 101.652 213.544 99.2287C208.583 96.8057 218.159 89.1904 211.813 87.6905C205.467 86.1905 207.198 93.3442 204.775 96.4595C202.352 99.5748 197.852 95.4211 197.852 95.4211C197.275 96.9211 196.121 98.1903 194.275 99.2287Z" fill="#EED7BA"/>
<path d="M197.043 69.5755C193.813 76.6138 200.274 81.1137 199.466 88.8443C199.235 91.4981 198.889 93.575 197.966 95.3057C197.966 95.3057 202.466 99.4594 204.889 96.4595C207.312 93.4596 205.581 86.1905 211.928 87.6905C218.274 89.1904 208.581 96.8057 213.658 99.2287C218.735 101.652 216.658 92.5365 221.158 92.1904C224.735 91.9596 226.696 90.575 227.735 89.1904C228.312 88.4981 229.235 88.0366 230.158 87.9212C231.773 87.8058 234.312 87.8059 236.158 88.2674C237.312 88.4981 240.081 89.3058 243.196 89.652C248.734 90.2289 255.427 89.7673 256.234 83.6521C257.388 74.0754 249.427 76.383 246.311 71.7677C243.196 67.1524 244.465 63.5756 239.965 61.8449C235.465 60.1141 232.35 62.5371 229.812 61.4987C227.273 60.4603 223.812 57.2296 218.158 58.3834C212.504 59.5372 212.274 64.1525 209.62 65.0756C206.735 66.2294 200.274 62.5371 197.043 69.5755Z" fill="#101130"/>
<path d="M208.813 106.844C207.775 106.844 208.467 114.69 208.582 115.844C211.121 116.19 212.967 115.959 212.967 115.959C212.736 115.613 212.505 115.267 212.39 114.921C210.775 111.805 209.967 106.844 208.813 106.844Z" fill="#E3BE8F"/>
<path d="M226.12 171.458H226.351C229.236 173.073 244.812 172.843 248.043 172.727H248.158V172.612C246.889 166.15 248.62 158.42 248.851 157.266C248.851 157.266 248.851 157.151 248.851 157.035C248.158 156.92 238.005 154.381 236.851 153.343C235.697 152.305 236.043 142.266 236.043 140.997C235.12 141.805 233.274 142.959 230.043 143.305C229.813 145.266 229.466 147.112 229.005 148.958C227.389 156.343 226.351 164.189 226.12 171.458Z" fill="#EED7BA"/>
<path d="M226.697 194.765C230.85 195.573 234.081 196.15 235.581 196.15C232.35 194.073 230.273 192.688 230.043 192.458C229.581 193.034 228.543 193.842 226.697 194.765Z" fill="#101130"/>
<path d="M236.158 140.997C236.85 140.305 237.081 139.843 237.081 139.843C237.196 117.459 233.966 110.652 233.966 110.652C232.696 112.267 231.196 113.651 229.581 114.921C229.35 115.036 229.235 115.151 229.12 115.267C229.235 115.959 231.889 129.574 230.158 143.42C233.389 142.959 235.235 141.805 236.158 140.997Z" fill="#FFB349"/>
<path d="M218.851 211.726C219.428 212.072 220.466 212.765 221.966 213.688C222.543 214.034 223.12 214.496 223.812 214.957C224.158 215.188 224.505 215.419 224.735 215.649C225.774 216.342 226.812 217.034 227.966 217.842C228.197 217.957 228.428 218.188 228.658 218.303C229.697 219.111 230.851 219.918 232.004 220.726C232.927 221.303 233.735 221.995 234.658 222.688C235.004 222.918 235.35 223.149 235.697 223.38C236.389 223.841 236.966 224.418 237.658 224.88C238.35 225.341 239.043 225.918 239.735 226.495C240.427 227.072 241.12 227.534 241.812 228.111C242.85 228.918 243.889 229.841 244.927 230.649C245.619 231.226 246.312 231.803 247.004 232.38C247.35 232.611 247.696 232.957 248.042 233.303C248.735 233.88 249.312 234.457 250.004 235.149C250.696 235.726 251.273 236.418 251.965 236.995C259.235 244.033 265.004 251.649 266.042 258.456C266.157 258.918 266.157 259.379 266.273 259.841C266.504 262.033 266.734 264.341 266.734 266.533C266.85 269.187 266.734 271.956 266.619 274.84C266.619 275.763 266.504 276.687 266.504 277.61C266.388 278.533 266.388 279.456 266.273 280.379C266.157 282.34 265.927 284.302 265.696 286.379C265.581 287.417 265.465 288.456 265.35 289.494C265.119 291.686 264.888 293.878 264.542 296.186C264.196 299.071 263.734 302.186 263.388 305.417C263.273 306.686 263.042 307.955 262.927 309.34C262.811 310.032 262.811 310.724 262.696 311.417C262.581 312.801 262.35 314.186 262.235 315.57C262.119 316.263 262.119 316.955 262.004 317.763C261.773 319.263 261.658 320.763 261.542 322.262C261.427 323.07 261.311 323.762 261.311 324.57C263.273 325.493 265.119 326.07 267.081 326.301C268.811 326.532 270.427 326.532 271.927 326.301C272.619 326.185 273.311 326.07 274.003 325.955C274.35 325.839 274.696 325.839 275.042 325.724C275.734 325.493 276.311 325.378 276.888 325.147C277.465 324.916 278.042 324.801 278.503 324.57C279.196 324.224 279.888 323.993 280.465 323.647C280.696 323.532 280.811 323.416 280.926 323.416C281.273 323.301 281.503 323.07 281.734 322.955C281.849 322.955 281.965 322.839 281.965 322.839C282.08 322.724 282.196 322.609 282.311 322.609L282.657 321.455C285.657 307.378 294.772 256.495 291.542 242.995C288.311 229.495 277.234 223.611 265.696 215.765C263.619 214.38 261.196 212.765 258.542 210.919C258.312 210.919 258.081 211.034 257.85 211.034C253.812 211.611 241.927 211.726 230.851 211.726C228.774 211.726 226.581 211.726 224.62 211.611C222.197 211.842 220.466 211.726 218.851 211.726Z" fill="#53AFBE"/>
<path d="M171.314 208.15C172.929 212.303 175.006 214.842 177.544 216.111C182.621 218.534 196.236 214.265 207.774 214.957C218.966 215.649 231.312 220.38 232.12 220.726C232.12 220.726 258.196 223.957 261.196 219.572C262.581 217.38 253.466 214.38 245.85 213.572C242.966 213.226 236.735 212.649 230.274 211.957C226.236 211.957 222.197 211.842 218.736 211.726C214.928 211.611 211.697 211.496 209.62 211.38C202.236 210.803 185.275 210.803 176.737 208.15C176.737 208.034 173.967 208.15 171.314 208.15Z" fill="#234E55"/>
<path d="M233.85 350.877C233.85 351.916 233.966 352.723 234.081 352.954C234.658 354.108 260.965 372.454 267.773 366.915C268.003 366.685 268.349 366.454 268.465 366.108C265.465 366.915 261.888 366.108 257.504 364.839C252.542 363.339 239.158 354.454 233.85 350.877Z" fill="#53AFBE"/>
<path d="M233.851 350.877C239.159 354.454 252.543 363.339 257.504 364.839C257.966 364.954 258.428 365.069 258.774 365.185C262.581 366.223 265.697 366.8 268.466 366.108C273.081 359.531 257.389 339.916 257.389 339.916C255.543 340.839 253.12 341.416 250.466 341.762C244.582 342.454 237.543 341.762 234.197 341.07V341.185C234.082 340.954 233.62 347.416 233.851 350.877Z" fill="#53AFBE"/>
<path d="M248.966 157.266C248.735 158.535 247.004 166.266 248.273 172.612V172.727C251.504 172.612 254.389 171.689 254.389 171.689L254.504 171.573C253.235 170.881 249.312 168.227 248.966 163.035C248.735 161.189 248.735 159.112 248.966 157.266Z" fill="#E3BE8F"/>
<path d="M248.966 157.266C248.735 159.227 248.735 161.189 248.851 163.15C249.081 168.343 253.12 170.996 254.389 171.689C254.62 171.804 254.735 171.919 254.735 171.919H254.966L255.197 171.227L260.735 168.689C262.235 161.65 260.389 156.574 260.043 155.074L258.081 155.651C259.35 159.804 258.543 163.266 258.543 163.266C253.928 160.958 258.889 151.266 253.004 149.997C250.697 149.535 249.428 152.881 248.966 157.035C248.966 157.035 248.966 157.151 248.966 157.266Z" fill="#EED7BA"/>
<path d="M269.273 150.805C263.85 148.958 255.196 148.958 257.388 153.92C257.619 154.497 257.85 155.074 257.965 155.651L259.927 155.074C259.927 154.843 259.811 154.612 259.927 154.612C260.273 154.497 264.773 163.15 264.773 163.266C264.773 163.381 268.465 163.843 271.811 163.381L276.08 161.42C276.542 160.727 276.773 159.92 276.657 158.766C275.388 152.304 274.58 152.651 269.273 150.805Z" fill="#EED7BA"/>
<path d="M259.811 154.497C259.811 154.497 259.811 154.612 259.811 154.958C260.157 156.458 262.003 161.535 260.503 168.573L271.695 163.266C268.465 163.727 264.772 163.266 264.657 163.15C264.657 163.035 260.272 154.381 259.811 154.497Z" fill="#E3BE8F"/>
<path d="M259.811 335.416C273.657 347.877 286.464 353.3 290.734 349.954C290.964 349.723 291.195 349.493 291.311 349.147C288.195 349.954 284.618 348.916 280.118 347.3C275.734 345.8 265.58 337.724 260.157 333.339C259.927 333.916 259.811 334.724 259.811 335.416Z" fill="#53AFBE"/>
<path d="M260.042 333.224C265.581 337.724 275.619 345.685 280.003 347.185C282.08 347.877 283.926 348.57 285.657 348.916C287.734 349.377 289.58 349.493 291.196 349.031C293.388 343.724 281.619 323.07 281.619 323.07L281.503 322.955C281.388 322.955 281.273 323.07 281.273 323.07C281.042 323.186 280.811 323.301 280.465 323.532C280.35 323.647 280.119 323.647 280.003 323.762C279.427 323.993 278.734 324.339 278.042 324.686C277.58 324.916 277.004 325.147 276.427 325.262C275.85 325.493 275.273 325.609 274.581 325.839C274.234 325.955 273.888 325.955 273.542 326.07C272.85 326.186 272.157 326.301 271.465 326.416C269.965 326.532 268.35 326.647 266.619 326.416C264.773 326.186 262.812 325.609 260.85 324.686C260.619 327.339 260.273 330.224 260.042 333.224Z" fill="#53AFBE"/>
<path d="M206.042 94.1519C205.696 95.8826 205.812 98.7671 209.504 99.6902C209.504 99.6902 207.658 102.921 206.389 102.229C205.119 101.536 204.542 97.0364 204.542 97.0364C204.542 97.0364 205.235 96.4595 205.581 95.6518C205.696 95.0749 206.042 94.1519 206.042 94.1519Z" fill="#E3BE8F"/>
<path d="M232.004 155.881C232.004 155.881 228.196 161.189 229.581 164.304C230.85 167.073 244.119 169.15 247.811 169.727C247.926 170.65 248.042 171.689 248.157 172.612V172.727H248.042C244.696 172.727 229.235 173.073 226.35 171.458H226.119C226.235 164.189 227.388 156.343 229.119 149.074C229.581 147.228 229.927 145.266 230.158 143.42C233.388 142.959 235.234 141.92 236.157 141.112C236.157 141.343 236.157 141.92 236.157 142.612C235.119 143.997 233.042 144.92 231.311 145.382C230.619 145.958 232.004 155.881 232.004 155.881Z" fill="#E3BE8F"/>
<path d="M249.774 189.227C249.774 189.227 250.005 191.419 251.389 193.265L251.735 193.15L251.966 192.227L257.851 173.073L255.197 171.112L254.966 171.804L249.774 189.227Z" fill="#91A6B5"/>
<path d="M251.389 193.381C252.658 195.111 254.735 196.496 258.312 196.15C265.119 195.342 270.773 192.919 273.08 194.534L273.311 194.304L273.542 193.611L285.772 159.92L257.85 173.189L251.965 192.342L251.735 193.265L251.389 193.381Z" fill="#A5B7C6"/>
<path d="M260.619 168.573L271.811 163.266L276.08 161.304L282.888 157.958L285.772 159.804L257.85 173.073L255.081 171.112L260.619 168.573Z" fill="#BDCAD5"/>
<path d="M253.35 179.189L253.927 176.881L254.042 176.535L255.312 177.458L254.504 179.996L253.35 179.189Z" fill="#9AADBA"/>
<path d="M254.042 176.535L254.273 176.419L255.542 177.342L255.311 177.458L254.042 176.535Z" fill="#BDCAD5"/>
<path d="M255.311 177.458L255.542 177.342L254.734 179.881L254.504 179.996L255.311 177.458Z" fill="#A5B7C6"/>
<path d="M251.851 184.265L252.543 181.958L252.659 181.612L253.812 182.535L253.005 185.073L251.851 184.265Z" fill="#9AADBA"/>
<path d="M252.658 181.612L252.889 181.496L254.043 182.419L253.812 182.535L252.658 181.612Z" fill="#BDCAD5"/>
<path d="M253.812 182.535L254.043 182.419L253.235 184.958L253.005 185.073L253.812 182.535Z" fill="#A5B7C6"/>
<path d="M280.234 164.304C279.542 165.458 279.426 166.612 280.003 166.958C280.58 167.304 281.619 166.727 282.311 165.573C283.003 164.42 283.119 163.266 282.542 162.92C281.965 162.574 280.926 163.266 280.234 164.304Z" fill="#BDCAD5"/>
<path d="M280.581 164.535C280.119 165.343 280.004 166.15 280.35 166.497C280.812 166.727 281.504 166.266 281.965 165.458C282.427 164.65 282.542 163.843 282.196 163.497C281.735 163.266 281.042 163.727 280.581 164.535Z" fill="#053B7C"/>
<path d="M280.926 164.766C280.695 165.112 280.695 165.458 280.811 165.458C280.926 165.573 281.272 165.343 281.503 165.112C281.734 164.766 281.734 164.42 281.619 164.42C281.503 164.304 281.157 164.535 280.926 164.766Z" fill="#878CF0"/>
<path d="M218.736 211.726C231.659 212.072 251.62 212.072 257.273 211.265C257.504 211.265 257.735 211.149 257.966 211.149C265.119 209.534 275.042 198.573 273.773 195.457C273.658 194.996 273.312 194.765 273.081 194.534C270.889 192.919 265.119 195.342 258.312 196.15C254.62 196.611 252.543 195.111 251.389 193.381C250.004 191.419 249.774 189.342 249.774 189.342C249.774 189.342 250.812 179.073 248.504 178.842C246.197 178.612 245.158 181.842 244.351 184.381C243.543 186.919 238.697 195.227 236.389 196.265C236.274 196.381 235.928 196.381 235.582 196.381C234.082 196.381 230.736 195.804 226.697 194.996C214.121 192.458 193.698 187.381 193.006 186.458C191.967 185.073 193.698 163.266 193.698 163.266V163.15C187.813 162.92 173.506 162.227 165.775 159.689V159.804C165.314 176.189 167.622 200.996 172.583 205.957C173.506 206.88 174.891 207.573 176.737 208.149C185.275 210.919 202.236 210.919 209.621 211.38C211.698 211.496 214.928 211.611 218.736 211.726Z" fill="#EED7BA"/>
<path d="M165.775 159.689C173.506 162.112 187.813 162.804 193.698 163.035V163.15C193.698 163.15 193.698 163.843 193.582 164.997C190.236 165.112 178.467 165.92 170.39 164.304C170.39 164.304 170.621 195.573 175.236 200.188C179.852 204.919 218.389 211.611 257.389 208.034C262.004 207.573 267.427 203.765 271.927 200.534C268.811 204.803 262.927 209.996 258.196 211.034C257.966 211.034 257.735 211.149 257.504 211.149C251.966 211.957 232.005 211.957 218.966 211.611C215.159 211.496 211.928 211.38 209.851 211.265C202.467 210.688 185.506 210.688 176.967 208.034C175.121 207.457 173.621 206.765 172.813 205.842C167.621 200.88 165.198 176.073 165.775 159.689Z" fill="#E3BE8F"/>
<path d="M227.62 89.4212C230.389 88.6135 233.043 89.8827 235.235 90.575C237.427 91.3827 239.966 91.8442 242.85 91.2673C243.081 90.3443 243.196 89.7674 243.196 89.7674V89.652C240.081 89.3058 237.312 88.6135 236.158 88.2674C234.312 87.8059 231.773 87.8059 230.158 87.9212C229.235 87.9212 228.312 88.3828 227.735 89.1905C227.62 89.3058 227.62 89.4212 227.62 89.4212Z" fill="#E3BE8F"/>
<path d="M193.006 186.227C193.467 186.804 201.198 188.881 209.967 191.073C208.005 187.381 205.813 182.881 204.89 179.996C204.775 179.765 204.659 179.419 204.544 179.189C202.121 172.266 197.506 148.497 197.621 139.612C197.044 149.305 196.236 163.15 196.236 163.15C196.236 163.15 195.198 163.15 193.583 163.035V163.15C193.698 163.15 191.967 184.958 193.006 186.227Z" fill="#F1A63E"/>
<path d="M218.851 211.726C219.428 212.072 220.467 212.765 221.967 213.688C222.544 214.034 223.121 214.496 223.813 214.957C224.159 215.188 224.505 215.419 224.736 215.649C225.774 216.342 226.813 217.034 227.967 217.842C228.197 217.957 228.428 218.188 228.659 218.303C229.697 219.111 230.851 219.918 232.005 220.726C232.928 221.303 233.736 221.995 234.659 222.688C235.005 222.918 235.351 223.149 235.697 223.38C236.39 223.841 236.966 224.418 237.659 224.88C238.351 225.341 239.043 225.918 239.736 226.495C240.428 227.072 241.12 227.534 241.813 228.111C242.851 228.918 243.889 229.841 244.928 230.649C245.62 231.226 246.312 231.803 247.005 232.38C247.351 232.611 247.697 232.957 248.043 233.303C248.735 233.88 249.312 234.457 250.005 235.149C250.697 235.726 251.274 236.418 251.966 236.995C259.235 244.033 265.004 251.649 266.043 258.456C266.158 258.918 266.158 259.379 266.274 259.841C266.504 262.033 266.735 264.341 266.735 266.533C266.85 269.187 266.735 271.956 266.62 274.84C266.62 275.763 266.504 276.687 266.504 277.61C266.389 278.533 266.389 279.456 266.274 280.379C266.158 282.34 265.927 284.302 265.697 286.379C265.581 287.417 265.466 288.456 265.35 289.494C265.12 291.686 264.889 293.878 264.543 296.186C264.197 299.071 263.735 302.186 263.389 305.417C263.274 306.686 263.043 307.955 262.927 309.34C262.812 310.032 262.812 310.724 262.697 311.417C262.581 312.801 262.351 314.186 262.235 315.57C262.12 316.263 262.12 316.955 262.004 317.763C261.774 319.263 261.658 320.763 261.543 322.262C261.427 323.07 261.312 323.762 261.312 324.57C260.966 327.339 260.735 330.224 260.389 333.224C265.927 337.724 275.966 345.685 280.35 347.185C282.427 347.877 284.273 348.57 286.004 348.916C282.542 345.8 278.043 341.762 274.696 338.416C268.235 332.07 266.966 326.301 266.966 326.301C266.966 326.301 276.543 255.572 271.466 244.956C267.774 237.226 239.389 220.265 224.39 211.726C222.198 211.842 220.467 211.726 218.851 211.726Z" fill="#234E55"/>
<path d="M188.39 236.072C209.043 250.033 228.889 260.302 232.12 265.841C235.35 271.494 230.62 339.108 232.004 340.262C232.235 340.378 232.927 340.608 233.966 340.839C234.889 341.07 236.158 341.185 237.658 341.416C237.427 333.455 243.196 270.456 241.119 264.11C239.043 257.764 214.928 245.303 197.159 233.764C182.621 224.303 176.044 216.111 174.313 208.034C173.39 208.034 172.236 208.034 171.198 208.034C170.275 208.034 169.236 208.034 168.429 208.034C168.659 208.611 168.198 222.342 188.39 236.072Z" fill="#234E55"/>
<path d="M233.85 350.877C239.157 354.454 252.542 363.339 257.503 364.839C257.965 364.954 258.426 365.069 258.772 365.185C254.503 361.723 249.542 357.8 247.119 355.608C240.081 349.377 238.234 343.493 238.234 343.493C238.234 343.493 244.927 343.608 250.35 341.531C244.465 342.224 237.427 341.531 234.081 340.839V340.954C234.081 340.954 233.619 347.416 233.85 350.877Z" fill="#53AFBE"/>
<path d="M249.773 189.227C249.773 189.227 250.004 191.419 251.389 193.265C252.658 194.996 254.735 196.38 258.312 196.034C265.119 195.227 270.773 192.804 273.08 194.419L273.311 194.188L273.542 193.496C268.35 193.842 255.889 194.534 254.042 193.957C253.35 193.727 252.658 193.034 251.966 192.342C251.158 191.304 250.35 190.15 249.773 189.227Z" fill="#D5E1E7"/>
<path d="M88.1228 156.92C88.1228 156.804 88.1228 156.804 88.1228 156.689C88.1228 156.574 88.1228 156.574 88.1228 156.458C88.1228 156.343 88.1228 156.343 88.1228 156.227C88.1228 156.112 88.1228 156.112 88.1228 155.997C88.1228 155.881 88.1228 155.881 88.1228 155.766C88.1228 155.651 88.1228 155.535 88.1228 155.535C88.1228 155.42 88.1228 155.304 88.2382 155.304C88.2382 155.189 88.2382 155.074 88.3536 155.074C88.3536 154.958 88.3536 154.843 88.469 154.843C88.469 154.728 88.469 154.612 88.5843 154.612C88.5843 154.497 88.6997 154.381 88.6997 154.381C88.6997 154.266 88.8151 154.266 88.8151 154.151C88.8151 154.035 88.9305 154.035 88.9305 153.92C88.9305 153.804 89.0459 153.804 89.0459 153.689C89.0459 153.574 89.1613 153.574 89.1613 153.458C89.1613 153.343 89.2766 153.228 89.2766 153.228C89.2766 153.112 89.392 152.997 89.392 152.881C89.5074 152.766 89.5074 152.535 89.6228 152.42C89.7382 152.305 89.8536 152.074 89.8536 151.958L89.9689 151.843C90.0843 151.728 90.1997 151.497 90.3151 151.381C90.4305 151.266 90.4305 151.151 90.5459 151.035C90.6612 150.92 90.6612 150.92 90.7766 150.805C90.892 150.689 90.892 150.689 91.0074 150.574C91.1228 150.458 91.1227 150.458 91.2381 150.343L91.3535 150.228C91.4689 150.112 91.4689 150.112 91.5843 149.997C91.6997 149.881 91.6997 149.881 91.815 149.766C91.9304 149.651 91.9304 149.651 92.0458 149.535L92.1612 149.42C92.1612 149.42 92.2766 149.42 92.2766 149.305C92.392 149.189 92.392 149.189 92.5073 149.189C92.6227 149.189 92.6227 149.074 92.7381 149.074C92.8535 149.074 92.8535 148.958 92.9689 148.958C93.0842 148.958 93.0843 148.843 93.1996 148.843L111.892 137.997L112.007 137.882C112.122 137.882 112.122 137.766 112.238 137.766C112.353 137.766 112.353 137.651 112.468 137.651C112.584 137.651 112.584 137.536 112.699 137.536C112.815 137.536 112.815 137.536 112.93 137.42H113.045C113.161 137.42 113.161 137.42 113.276 137.305C113.392 137.305 113.392 137.305 113.507 137.305C113.622 137.305 113.622 137.305 113.738 137.305H113.853C113.968 137.305 113.968 137.305 114.084 137.305C114.199 137.305 114.315 137.305 114.315 137.305C114.43 137.305 114.545 137.305 114.661 137.305C114.776 137.305 114.891 137.305 115.007 137.42C115.122 137.42 115.238 137.536 115.468 137.651L120.314 140.42C120.084 140.305 119.853 140.189 119.507 140.189C119.276 140.189 118.93 140.074 118.584 140.189C118.238 140.189 118.007 140.305 117.661 140.42C117.315 140.536 116.968 140.651 116.622 140.882L97.9303 151.728C97.5842 151.958 97.238 152.189 96.8919 152.42C96.5457 152.651 96.1996 152.997 95.9688 153.343C95.5073 153.804 95.0457 154.381 94.6996 154.958L94.5842 155.074C94.4689 155.304 94.2381 155.535 94.1227 155.881C94.0073 156.227 93.7765 156.458 93.6612 156.804C93.4304 157.381 93.1996 158.074 92.9689 158.651C92.8535 158.997 92.8535 159.227 92.8535 159.574C92.8535 159.92 92.8535 160.15 92.8535 160.497L92.9689 181.958C92.9689 182.304 92.9689 182.765 93.0842 183.112C93.1996 183.458 93.1996 183.804 93.4304 184.035C93.5458 184.265 93.6612 184.496 93.7765 184.612C93.7765 184.727 93.8919 184.727 93.8919 184.842C94.0073 185.073 94.2381 185.188 94.4688 185.304L89.6228 182.535C89.392 182.419 89.2766 182.304 89.0459 182.073C89.0459 182.073 88.9305 181.958 88.9305 181.842C88.8151 181.727 88.8151 181.727 88.6997 181.612C88.5844 181.496 88.5843 181.381 88.469 181.265C88.469 181.15 88.3536 181.15 88.3536 181.035C88.3536 180.919 88.2382 180.804 88.2382 180.804C88.2382 180.689 88.2382 180.689 88.1228 180.573V180.458V180.342C88.1228 180.227 88.1228 180.227 88.1228 180.112C88.1228 179.996 88.1228 179.996 88.1228 179.881C88.1228 179.765 88.1228 179.765 88.1228 179.65C88.1228 179.535 88.1228 179.535 88.1228 179.419L88.0074 157.958C88.1228 157.035 88.1228 157.035 88.1228 156.92Z" fill="#E24D29"/>
<path d="M98.0464 151.035C95.1619 152.651 92.8542 156.689 92.8542 159.92L92.9696 181.381C92.9696 184.612 95.2772 185.996 98.1618 184.265L116.854 173.419C119.738 171.804 122.046 167.766 122.046 164.535L121.931 143.074C121.931 139.843 119.623 138.459 116.738 140.189L98.0464 151.035Z" fill="#FE5C36"/>
<path d="M113.623 84.229C113.623 84.1136 113.623 84.1136 113.623 83.9983C113.623 83.8829 113.623 83.8829 113.623 83.7675C113.623 83.6521 113.623 83.6521 113.623 83.5367C113.623 83.4213 113.623 83.4213 113.623 83.306C113.623 83.1906 113.623 83.1906 113.623 83.0752C113.623 82.9598 113.623 82.9598 113.623 82.8444C113.623 82.7291 113.623 82.7291 113.623 82.6137C113.623 82.4983 113.623 82.4983 113.738 82.3829C113.738 82.2675 113.738 82.2675 113.853 82.1521C113.853 82.0368 113.853 82.0368 113.969 81.9214C113.969 81.806 113.969 81.806 114.084 81.6906C114.084 81.5752 114.084 81.5752 114.199 81.4598C114.199 81.3445 114.199 81.3445 114.315 81.2291C114.315 81.1137 114.315 81.1137 114.43 80.9983C114.43 80.8829 114.546 80.8829 114.546 80.7676C114.546 80.6522 114.661 80.6522 114.661 80.5368C114.661 80.4214 114.776 80.4214 114.776 80.306C114.892 80.1906 114.892 80.0753 115.007 79.9599C115.123 79.8445 115.123 79.7291 115.238 79.6137C115.238 79.6137 115.238 79.4983 115.353 79.4983C115.469 79.383 115.584 79.2676 115.584 79.1522C115.699 79.0368 115.699 79.0368 115.815 78.9214C115.815 78.8061 115.93 78.8061 115.93 78.6907C115.93 78.5753 116.046 78.5753 116.046 78.4599C116.046 78.3445 116.161 78.3445 116.161 78.2291L116.276 78.1138C116.392 77.9984 116.392 77.9984 116.507 77.883C116.622 77.7676 116.622 77.7676 116.738 77.7676C116.853 77.7676 116.853 77.6522 116.969 77.6522C116.969 77.6522 117.084 77.6522 117.084 77.5369C117.084 77.5369 117.084 77.5369 117.199 77.4215C117.315 77.4215 117.315 77.3061 117.43 77.3061C117.546 77.3061 117.546 77.1907 117.661 77.1907C117.776 77.1907 117.776 77.0753 117.892 77.0753C118.007 77.0753 118.007 76.9599 118.122 76.9599L133.353 68.1909C133.353 68.1909 133.468 68.1909 133.468 68.0755L133.584 67.9601C133.584 67.9601 133.699 67.9601 133.699 67.8447C133.699 67.8447 133.814 67.8447 133.814 67.7294C133.814 67.7294 133.93 67.7294 133.93 67.614H134.045C134.161 67.614 134.161 67.614 134.276 67.614C134.391 67.614 134.391 67.614 134.391 67.614C134.507 67.614 134.507 67.614 134.622 67.614H134.737C134.853 67.614 134.853 67.614 134.968 67.614C135.084 67.614 135.084 67.614 135.199 67.614C135.314 67.614 135.314 67.614 135.43 67.614C135.545 67.614 135.661 67.614 135.661 67.7294C135.776 67.7294 135.891 67.8447 136.007 67.8447L139.93 70.1524C139.699 70.037 139.584 69.9216 139.353 69.9216C139.122 69.9216 138.891 69.9216 138.66 69.9216C138.43 69.9216 138.199 70.037 137.853 70.037C137.622 70.1524 137.276 70.2678 137.045 70.3832L121.815 79.1522C121.584 79.2676 121.238 79.4984 121.007 79.7291C120.776 79.9599 120.43 80.1906 120.199 80.4214C119.853 80.7676 119.507 81.2291 119.161 81.6906C119.161 81.6906 119.161 81.806 119.046 81.806C118.93 82.0368 118.815 82.2675 118.699 82.3829C118.584 82.6137 118.469 82.8444 118.353 83.0752C118.122 83.5367 118.007 84.1136 117.776 84.5752C117.661 84.8059 117.661 85.0367 117.661 85.3828C117.661 85.6136 117.661 85.8444 117.661 86.1905V103.729C117.661 104.075 117.661 104.306 117.776 104.652C117.776 104.882 117.892 105.229 118.007 105.344C118.122 105.575 118.238 105.69 118.353 105.805L118.469 105.921C118.584 106.036 118.815 106.152 118.93 106.267L115.007 103.959C114.892 103.844 114.661 103.729 114.546 103.613L114.43 103.498C114.43 103.382 114.315 103.382 114.315 103.267C114.315 103.152 114.199 103.036 114.199 103.036C114.199 102.921 114.084 102.921 114.084 102.806C114.084 102.69 114.084 102.69 113.969 102.575C113.969 102.459 113.969 102.459 113.969 102.344V102.229V102.113C113.969 101.998 113.969 101.998 113.969 101.883C113.969 101.767 113.969 101.767 113.969 101.652C113.969 101.536 113.969 101.536 113.969 101.421C113.969 101.306 113.969 101.306 113.969 101.19V83.6521C113.623 84.4598 113.623 84.3444 113.623 84.229Z" fill="#F1A63E"/>
<path d="M121.816 79.4983C119.508 80.8829 117.662 84.1137 117.662 86.7675V104.306C117.662 106.959 119.508 107.998 121.931 106.729L137.162 97.9596C139.469 96.575 141.315 93.3442 141.315 90.6904V73.1523C141.315 70.4985 139.469 69.4602 137.046 70.7294L121.816 79.4983Z" fill="#FFB349"/>
<path d="M159.545 10.0383V9.92287V9.80749V9.6921V9.57672V9.46134V9.34596V9.23058V9.11519V8.99981V8.88443V8.76905V8.65367V8.53829V8.4229C159.545 8.4229 159.545 8.30752 159.66 8.30752C159.66 8.30752 159.66 8.19214 159.776 8.19214C159.776 8.19214 159.776 8.07676 159.891 8.07676C159.891 7.96137 160.006 7.96137 160.006 7.84599C160.006 7.73061 160.122 7.73061 160.122 7.61523C160.122 7.61523 160.122 7.61523 160.122 7.49984C160.122 7.38446 160.237 7.38446 160.353 7.26908L160.468 7.1537L160.583 7.03832L160.699 6.92293L160.814 6.80755C160.814 6.80755 160.814 6.80755 160.929 6.69217L161.045 6.57679L161.16 6.46141L161.276 6.34602C161.276 6.34602 161.276 6.34602 161.391 6.34602L161.506 6.23064L161.622 6.11526C161.622 6.11526 161.737 6.11526 161.737 5.99988C161.737 5.99988 161.852 5.99988 161.852 5.8845L171.891 0.115385H172.006C172.006 0.115385 172.121 0.115382 172.121 0H172.237H172.352H172.468C172.468 0 172.468 0 172.583 0H172.698H172.814H172.929C172.929 0 172.929 0 173.045 0H173.16H173.275H173.391C173.506 0 173.506 0 173.621 0C173.737 0 173.737 0.115385 173.852 0.115385L176.391 1.61535C176.275 1.49997 176.16 1.49997 175.929 1.49997C175.814 1.49997 175.583 1.49997 175.468 1.49997C175.352 1.49997 175.121 1.49997 175.006 1.61535C174.775 1.73074 174.66 1.73074 174.429 1.84612L164.391 7.61523C164.16 7.73061 164.045 7.84599 163.814 7.96137C163.583 8.07676 163.468 8.30752 163.352 8.4229C163.122 8.65367 162.891 8.99982 162.66 9.23058C162.66 9.23058 162.66 9.23058 162.66 9.34596C162.545 9.46134 162.545 9.57673 162.429 9.80749C162.314 9.92288 162.314 10.1536 162.199 10.269C162.083 10.6152 161.968 10.9613 161.852 11.3075C161.852 11.4228 161.737 11.6536 161.737 11.769C161.737 11.8844 161.737 12.1151 161.737 12.2305V23.7687C161.737 23.9995 161.737 24.2303 161.737 24.3457C161.737 24.5764 161.852 24.6918 161.852 24.8072C161.852 24.9226 161.968 25.0379 162.083 25.1533C162.083 25.1533 162.083 25.2687 162.199 25.2687C162.314 25.3841 162.429 25.4995 162.545 25.4995L160.006 23.9995C159.891 23.8841 159.776 23.8841 159.66 23.7687C159.66 23.7687 159.66 23.6534 159.545 23.6534L159.429 23.538C159.429 23.4226 159.314 23.4226 159.314 23.3072C159.314 23.3072 159.314 23.1918 159.199 23.1918V23.0764V22.9611C159.199 22.9611 159.199 22.9611 159.199 22.8457C159.199 22.8457 159.199 22.8457 159.199 22.7303V22.6149V22.4995V22.3841V22.2688V10.7305C159.545 10.1536 159.545 10.0383 159.545 10.0383Z" fill="#767687"/>
<path d="M164.851 6.9229C163.351 7.84596 162.082 9.92284 162.082 11.6536V23.1918C162.082 24.9226 163.351 25.6149 164.851 24.8072L174.889 19.0381C176.389 18.115 177.658 16.0381 177.658 14.3074V2.76914C177.658 1.03841 176.389 0.346113 174.889 1.15379L164.851 6.9229Z" fill="#838495"/>
<path d="M217.004 26.1918C217.004 26.0764 217.004 26.0764 217.004 25.961C217.004 25.8456 217.004 25.8456 217.004 25.7302C217.004 25.6148 217.004 25.6149 217.004 25.4995C217.004 25.3841 217.004 25.3841 217.004 25.2687C217.004 25.1533 217.004 25.1533 217.004 25.0379C217.004 24.9226 217.004 24.8072 217.004 24.8072C217.004 24.6918 217.004 24.5764 217.119 24.5764C217.119 24.461 217.119 24.3456 217.234 24.3456C217.234 24.2303 217.234 24.1149 217.35 24.1149C217.35 23.9995 217.35 23.8841 217.465 23.8841C217.465 23.7687 217.581 23.6534 217.581 23.6534C217.581 23.538 217.696 23.538 217.696 23.4226C217.696 23.3072 217.811 23.3072 217.811 23.1918C217.811 23.0764 217.927 23.0764 217.927 22.9611C217.927 22.8457 218.042 22.8457 218.042 22.7303C218.042 22.6149 218.157 22.4995 218.157 22.4995C218.157 22.3842 218.273 22.2688 218.273 22.1534C218.388 22.038 218.388 21.8072 218.504 21.6919C218.619 21.5765 218.734 21.3457 218.734 21.2303L218.85 21.1149C218.965 20.9996 219.081 20.7688 219.196 20.6534C219.311 20.538 219.311 20.4227 219.427 20.3073C219.542 20.1919 219.542 20.1919 219.657 20.0765C219.773 19.9611 219.773 19.9611 219.888 19.8457C220.004 19.7304 220.004 19.7304 220.119 19.615L220.234 19.4996C220.35 19.3842 220.35 19.3842 220.465 19.2688C220.581 19.1534 220.581 19.1535 220.696 19.0381C220.811 18.9227 220.811 18.9227 220.927 18.8073L221.042 18.6919C221.042 18.6919 221.157 18.6919 221.157 18.5765C221.273 18.4612 221.273 18.4612 221.388 18.4612C221.504 18.4612 221.504 18.3458 221.619 18.3458C221.734 18.3458 221.734 18.2304 221.85 18.2304C221.965 18.2304 221.965 18.115 222.08 18.115L240.772 7.26907L240.888 7.15369C241.003 7.15369 241.003 7.03831 241.119 7.03831C241.234 7.03831 241.234 6.92292 241.349 6.92292C241.465 6.92292 241.465 6.80754 241.58 6.80754C241.695 6.80754 241.695 6.80754 241.811 6.69216H241.926C242.042 6.69216 242.042 6.69216 242.157 6.57678C242.272 6.57678 242.272 6.57678 242.388 6.57678C242.503 6.57678 242.503 6.57678 242.619 6.57678H242.734C242.849 6.57678 242.849 6.57678 242.965 6.57678C243.08 6.57678 243.195 6.57678 243.195 6.57678C243.311 6.57678 243.426 6.57678 243.542 6.57678C243.657 6.57678 243.772 6.57677 243.888 6.69216C244.003 6.69216 244.118 6.80754 244.349 6.92292L249.195 9.69209C248.965 9.57671 248.734 9.46133 248.388 9.46133C248.157 9.46133 247.811 9.34595 247.465 9.46133C247.118 9.46133 246.888 9.57671 246.542 9.69209C246.195 9.80747 245.849 9.92286 245.503 10.1536L226.811 20.9996C226.465 21.2303 226.119 21.4611 225.773 21.6919C225.427 21.9226 225.08 22.2688 224.85 22.6149C224.388 23.0764 223.927 23.6534 223.58 24.2303L223.465 24.3456C223.35 24.5764 223.119 24.8072 223.004 25.1533C222.888 25.4995 222.657 25.7302 222.542 26.0764C222.311 26.6533 222.08 27.3456 221.85 27.9225C221.734 28.2686 221.734 28.4994 221.734 28.8456C221.734 29.1917 221.734 29.4225 221.734 29.7686L221.85 51.2297C221.85 51.5758 221.85 52.0374 221.965 52.3835C222.081 52.7297 222.08 53.0758 222.311 53.3066C222.427 53.5373 222.542 53.7681 222.657 53.8835C222.657 53.9989 222.773 53.9989 222.773 54.1143C222.888 54.345 223.119 54.4604 223.35 54.5758L218.504 51.8066C218.273 51.6912 218.158 51.5759 217.927 51.3451C217.927 51.3451 217.811 51.2297 217.811 51.1143C217.696 50.9989 217.696 50.9989 217.581 50.8836C217.465 50.7682 217.465 50.6528 217.35 50.5374C217.35 50.422 217.234 50.422 217.234 50.3066C217.234 50.1913 217.119 50.0759 217.119 50.0759C217.119 49.9605 217.119 49.9605 217.004 49.8451V49.7297V49.6144C217.004 49.499 217.004 49.499 217.004 49.3836C217.004 49.2682 217.004 49.2682 217.004 49.1528C217.004 49.0374 217.004 49.0374 217.004 48.9221C217.004 48.8067 217.004 48.8067 217.004 48.6913L216.888 27.2302C217.004 26.3071 217.004 26.1918 217.004 26.1918Z" fill="#274069"/>
<path d="M227.041 20.3072C224.156 21.9225 221.848 25.9609 221.848 29.1916L221.964 50.6527C221.964 53.8834 224.271 55.268 227.156 53.5372L245.848 42.6913C248.732 41.076 251.04 37.0376 251.04 33.8069L250.925 12.3458C250.925 9.11513 248.617 7.73054 245.732 9.46128L227.041 20.3072Z" fill="#53AFBE"/>
<path d="M361.578 302.763C358.232 304.724 358.232 307.84 361.578 309.801L383.5 322.609C386.846 324.57 392.269 324.57 395.616 322.609L417.654 309.801C421 307.84 421 304.724 417.654 302.763L395.731 289.955C392.385 287.994 386.962 287.994 383.616 289.955L361.578 302.763Z" fill="#D5E1E7"/>
<path d="M363.886 293.417C364.001 293.763 364.117 293.994 364.232 294.225C364.232 294.225 364.232 294.34 364.347 294.34C364.463 294.571 364.694 294.802 364.924 295.032C365.04 295.148 365.27 295.263 365.386 295.378C365.501 295.494 365.617 295.609 365.847 295.725L384.424 306.571C384.77 306.801 385.116 306.917 385.462 307.032C385.578 307.032 385.693 307.147 385.693 307.147C385.924 307.263 386.155 307.263 386.385 307.378C386.616 307.494 386.847 307.494 387.078 307.609C387.309 307.724 387.655 307.724 388.001 307.724C388.116 307.724 388.116 307.724 388.232 307.724C388.578 307.724 389.039 307.84 389.501 307.84C389.616 307.84 389.616 307.84 389.732 307.84C390.078 307.84 390.539 307.84 390.885 307.724C391.001 307.724 391.001 307.724 391.116 307.724C391.462 307.724 391.924 307.609 392.27 307.494C392.385 307.494 392.385 307.494 392.501 307.494C392.847 307.378 393.193 307.263 393.539 307.147C393.655 307.147 393.655 307.147 393.77 307.032C394.116 306.917 394.578 306.686 394.924 306.455L413.385 295.609C414.769 294.802 415.577 293.648 415.577 292.609V303.686C415.577 304.724 414.885 305.878 413.385 306.686L394.693 317.532C394.347 317.763 394.001 317.878 393.655 317.993C393.655 317.993 393.655 317.993 393.539 317.993C393.424 317.993 393.424 317.993 393.308 318.109C393.078 318.224 392.847 318.224 392.616 318.34C392.501 318.34 392.385 318.455 392.27 318.455C392.155 318.455 392.155 318.455 392.039 318.455C391.924 318.455 391.924 318.455 391.808 318.455C391.578 318.455 391.347 318.57 391.116 318.57C391.001 318.57 390.885 318.57 390.885 318.57C390.77 318.57 390.77 318.57 390.655 318.57C390.539 318.57 390.424 318.57 390.424 318.57C390.193 318.57 389.962 318.57 389.732 318.57C389.616 318.57 389.616 318.57 389.501 318.57C389.385 318.57 389.385 318.57 389.27 318.57C389.155 318.57 389.039 318.57 388.924 318.57C388.693 318.57 388.347 318.57 388.116 318.57H388.001C387.885 318.57 387.885 318.57 387.77 318.57C387.539 318.57 387.309 318.57 387.193 318.455C387.078 318.455 386.962 318.455 386.962 318.34C386.732 318.34 386.501 318.224 386.27 318.109C386.155 318.109 386.039 318.109 385.924 317.993C385.809 317.993 385.693 317.878 385.578 317.878C385.462 317.878 385.347 317.763 385.347 317.763C385.001 317.647 384.655 317.416 384.309 317.301L365.732 306.455H365.617C365.501 306.34 365.386 306.224 365.271 306.224C365.04 306.109 364.924 305.994 364.809 305.878C364.694 305.763 364.463 305.532 364.347 305.417C364.347 305.417 364.347 305.301 364.232 305.301C364.232 305.301 364.232 305.186 364.117 305.186C364.117 305.071 364.001 305.071 364.001 304.955C363.886 304.84 363.886 304.724 363.771 304.494C363.771 304.494 363.771 304.494 363.771 304.378C363.771 304.378 363.771 304.378 363.771 304.263C363.771 304.147 363.655 304.032 363.655 304.032C363.655 303.917 363.655 303.801 363.655 303.571C363.655 303.571 363.655 303.571 363.655 303.455V292.379C363.771 292.955 363.771 293.186 363.886 293.417Z" fill="#F1A63E"/>
<path d="M365.847 289.725C362.962 291.34 362.962 293.994 365.847 295.725L384.424 306.571C387.308 308.186 391.808 308.186 394.693 306.571L413.384 295.609C416.269 293.994 416.269 291.34 413.384 289.609L394.808 278.763C392.039 277.148 387.423 277.148 384.539 278.763L365.847 289.725Z" fill="#FFB349"/>
<path d="M68.7387 373.723C65.3927 375.685 65.3927 378.8 68.7387 380.761L90.6614 393.569C94.0074 395.53 99.4304 395.53 102.776 393.569L124.93 380.761C128.276 378.8 128.276 375.685 124.93 373.723L103.007 360.916C99.6612 358.954 94.2382 358.954 90.8921 360.916L68.7387 373.723Z" fill="#D5E1E7"/>
<path d="M71.0458 364.377C71.1612 364.723 71.2766 364.954 71.3919 365.185C71.3919 365.185 71.3919 365.3 71.5073 365.3C71.6227 365.531 71.8535 365.762 72.0842 365.992C72.1996 366.108 72.4304 366.223 72.5458 366.339C72.6611 366.454 72.7765 366.569 73.0073 366.685L91.5838 377.531C91.93 377.761 92.2761 377.877 92.6223 377.992C92.7376 377.992 92.853 378.108 92.853 378.108C93.0838 378.223 93.3145 378.223 93.5453 378.338C93.7761 378.454 94.0068 378.454 94.2376 378.569C94.4684 378.684 94.8145 378.684 95.1607 378.684C95.2761 378.684 95.276 378.684 95.3914 378.684C95.7376 378.684 96.1991 378.8 96.6606 378.8C96.776 378.8 96.776 378.8 96.8914 378.8C97.2376 378.8 97.6991 378.8 98.0452 378.684C98.1606 378.684 98.1606 378.684 98.276 378.684C98.6221 378.684 99.0837 378.569 99.4298 378.454C99.5452 378.454 99.5452 378.454 99.6606 378.454C100.007 378.338 100.353 378.223 100.699 378.108C100.814 378.108 100.814 378.107 100.93 377.992C101.276 377.877 101.737 377.646 102.084 377.415L120.776 366.569C122.16 365.762 122.968 364.608 122.968 363.569V374.646C122.968 375.684 122.275 376.838 120.776 377.646L102.084 388.492C101.737 388.723 101.391 388.838 101.045 388.953C101.045 388.953 101.045 388.953 100.93 388.953C100.814 388.953 100.814 388.953 100.699 389.069C100.468 389.184 100.237 389.184 100.007 389.3C99.8913 389.3 99.776 389.415 99.6606 389.415C99.5452 389.415 99.5452 389.415 99.4298 389.415C99.3144 389.415 99.3144 389.415 99.1991 389.415C98.9683 389.415 98.7375 389.53 98.5068 389.53C98.3914 389.53 98.276 389.53 98.276 389.53C98.1606 389.53 98.1606 389.53 98.0452 389.53C97.9299 389.53 97.8145 389.53 97.8145 389.53C97.5837 389.53 97.3529 389.53 97.1222 389.53C97.0068 389.53 97.0068 389.53 96.8914 389.53C96.776 389.53 96.776 389.53 96.6606 389.53C96.5453 389.53 96.4299 389.53 96.3145 389.53C96.0837 389.53 95.7376 389.53 95.5068 389.53H95.3914C95.276 389.53 95.2761 389.53 95.1607 389.53C94.9299 389.53 94.6992 389.53 94.5838 389.415C94.4684 389.415 94.353 389.415 94.353 389.3C94.1222 389.3 93.8915 389.184 93.6607 389.069C93.5453 389.069 93.4299 389.069 93.3146 388.953C93.1992 388.953 93.0838 388.838 92.9684 388.838C92.853 388.838 92.7377 388.723 92.7377 388.723C92.3915 388.607 92.0454 388.377 91.6992 388.261L73.1227 377.415H73.0073C72.8919 377.3 72.7765 377.184 72.6612 377.184C72.4304 377.069 72.315 376.954 72.1996 376.838C72.0842 376.723 71.8535 376.492 71.7381 376.377C71.7381 376.377 71.7381 376.261 71.6227 376.261C71.6227 376.261 71.6227 376.146 71.5073 376.146C71.5073 376.031 71.3919 376.031 71.3919 375.915C71.2766 375.8 71.2765 375.684 71.1612 375.454C71.1612 375.454 71.1612 375.454 71.1612 375.338C71.1612 375.338 71.1612 375.338 71.1612 375.223C71.1612 375.108 71.0458 374.992 71.0458 374.992C71.0458 374.877 71.0458 374.761 71.0458 374.531C71.0458 374.531 71.0458 374.531 71.0458 374.415V363.339C70.9304 363.916 71.0458 364.146 71.0458 364.377Z" fill="#F1A63E"/>
<path d="M73.1224 360.685C70.2378 362.3 70.2378 364.954 73.1224 366.685L91.6989 377.531C94.5835 379.146 99.0834 379.146 101.968 377.531L120.66 366.685C123.544 365.069 123.544 362.416 120.66 360.685L102.083 349.839C99.3141 348.224 94.6988 348.224 91.8143 349.839L73.1224 360.685Z" fill="#FFB349"/>
<path d="M255.194 420.799C253.233 421.953 253.233 423.684 255.194 424.837L267.655 432.106C269.502 433.26 272.617 433.26 274.578 432.106L287.04 424.837C289.001 423.684 289.001 421.953 287.04 420.799L274.578 413.53C272.732 412.376 269.617 412.376 267.655 413.53L255.194 420.799Z" fill="#D5E1E7"/>
<path d="M256.464 415.491C256.58 415.722 256.58 415.838 256.695 415.953C256.695 415.953 256.695 415.953 256.695 416.068C256.811 416.184 256.926 416.299 257.041 416.414C257.157 416.53 257.272 416.53 257.387 416.645C257.503 416.761 257.503 416.761 257.618 416.876L268.118 422.991C268.349 423.107 268.464 423.222 268.695 423.222C268.695 423.222 268.81 423.222 268.81 423.337C268.926 423.337 269.041 423.453 269.156 423.453C269.272 423.453 269.387 423.568 269.618 423.568C269.733 423.568 269.964 423.684 270.08 423.684H270.195C270.426 423.684 270.656 423.684 270.887 423.684H271.003C271.233 423.684 271.464 423.684 271.695 423.684H271.81C272.041 423.684 272.272 423.568 272.503 423.568H272.618C272.849 423.568 272.964 423.453 273.195 423.337H273.31C273.541 423.222 273.772 423.107 273.887 422.991L284.502 416.876C285.31 416.414 285.771 415.838 285.771 415.145V421.491C285.771 422.068 285.31 422.76 284.502 423.222L273.887 429.337C273.656 429.453 273.541 429.568 273.31 429.568H273.195C273.079 429.568 272.964 429.683 272.849 429.683C272.733 429.683 272.733 429.683 272.618 429.683H272.503H272.387C272.272 429.683 272.156 429.683 271.926 429.799H271.81H271.695H271.579C271.464 429.799 271.349 429.799 271.118 429.799H271.003H270.887C270.772 429.799 270.772 429.799 270.656 429.799C270.541 429.799 270.31 429.799 270.195 429.799H270.08C269.964 429.799 269.849 429.799 269.733 429.799H269.618C269.503 429.799 269.387 429.683 269.156 429.683C269.041 429.683 269.041 429.683 268.926 429.683C268.81 429.683 268.81 429.683 268.81 429.568C268.81 429.568 268.695 429.568 268.695 429.453C268.464 429.337 268.349 429.337 268.118 429.222L257.618 423.107C257.503 423.107 257.503 422.991 257.387 422.991C257.272 422.876 257.157 422.876 257.041 422.76C256.926 422.645 256.811 422.53 256.811 422.53C256.811 422.53 256.811 422.53 256.811 422.414C256.811 422.414 256.811 422.414 256.811 422.299C256.811 422.299 256.811 422.184 256.695 422.184C256.695 422.068 256.58 422.068 256.58 421.953V421.837C256.58 421.722 256.58 421.722 256.58 421.607V415.261C256.464 415.145 256.464 415.261 256.464 415.491Z" fill="#E24D29"/>
<path d="M257.618 413.299C256.003 414.222 256.003 415.722 257.618 416.645L268.118 422.76C269.733 423.684 272.272 423.684 273.887 422.76L284.502 416.645C286.118 415.722 286.118 414.222 284.502 413.299L274.003 407.184C272.387 406.261 269.849 406.261 268.233 407.184L257.618 413.299Z" fill="#FE5C36"/>
<path d="M322.233 400.03C320.849 400.838 320.849 402.107 322.233 402.915L331.349 408.222C332.733 409.03 335.041 409.03 336.425 408.222L345.541 402.915C346.925 402.107 346.925 400.838 345.541 400.03L336.425 394.723C335.041 393.915 332.849 393.915 331.349 394.723L322.233 400.03Z" fill="#D5E1E7"/>
<path d="M323.271 396.107C323.271 396.223 323.387 396.338 323.387 396.453C323.502 396.569 323.502 396.684 323.617 396.684C323.733 396.684 323.733 396.799 323.848 396.799C323.963 396.799 323.963 396.915 324.079 396.915L331.809 401.415C331.925 401.53 332.04 401.53 332.271 401.645H332.386C332.502 401.645 332.617 401.761 332.617 401.761C332.733 401.761 332.848 401.761 332.963 401.876C333.079 401.876 333.194 401.876 333.309 401.992H333.425C333.54 401.992 333.771 401.992 333.886 401.992C333.886 401.992 333.886 401.992 334.002 401.992C334.117 401.992 334.348 401.992 334.463 401.992C334.463 401.992 334.463 401.992 334.579 401.992C334.694 401.992 334.925 401.992 335.04 401.876C335.04 401.876 335.04 401.876 335.156 401.876C335.271 401.876 335.386 401.761 335.617 401.761C335.617 401.761 335.617 401.761 335.732 401.761C335.848 401.645 336.079 401.645 336.194 401.53L343.925 397.03C344.502 396.684 344.848 396.223 344.848 395.761V400.376C344.848 400.838 344.502 401.299 343.925 401.645L336.194 406.145C336.079 406.261 335.963 406.261 335.732 406.376C335.732 406.376 335.732 406.376 335.617 406.376C335.502 406.376 335.386 406.492 335.386 406.492H335.271C335.271 406.492 335.271 406.492 335.156 406.492C335.156 406.492 335.156 406.492 335.04 406.492C334.925 406.492 334.809 406.492 334.694 406.492H334.579C334.579 406.492 334.579 406.492 334.463 406.492H334.348C334.232 406.492 334.117 406.492 334.002 406.492H333.886C333.886 406.492 333.886 406.492 333.771 406.492H333.656C333.54 406.492 333.425 406.492 333.309 406.492H333.194C333.079 406.492 333.079 406.492 332.963 406.492H332.848C332.733 406.492 332.617 406.492 332.502 406.376H332.386H332.271H332.156C332.04 406.261 331.809 406.261 331.694 406.145L323.963 401.645L323.848 401.53C323.733 401.53 323.733 401.415 323.617 401.415C323.502 401.299 323.502 401.299 323.387 401.184C323.387 401.184 323.387 401.184 323.387 401.069L323.271 400.953V400.838V400.722V396.107C323.156 395.992 323.156 395.876 323.271 396.107Z" fill="#234E55"/>
<path d="M324.078 394.607C322.924 395.299 322.924 396.338 324.078 397.03L331.809 401.53C332.963 402.222 334.924 402.222 336.078 401.53L343.808 397.03C344.962 396.338 344.962 395.299 343.808 394.607L336.078 390.107C334.924 389.415 332.963 389.415 331.809 390.107L324.078 394.607Z" fill="#53AFBE"/>
<path d="M1.47147 366.685C-0.490032 367.838 -0.490032 369.569 1.47147 370.723L13.9327 377.992C15.7788 379.146 18.8942 379.146 20.8557 377.992L33.317 370.723C35.2785 369.569 35.2785 367.838 33.317 366.685L20.8557 359.416C19.0095 358.262 15.8942 358.262 13.9327 359.416L1.47147 366.685Z" fill="#D5E1E7"/>
<path d="M2.7398 361.377C2.85518 361.608 2.85516 361.723 2.97054 361.839C2.97054 361.839 2.97054 361.839 2.97054 361.954C3.08593 362.069 3.20133 362.185 3.31671 362.3C3.43209 362.416 3.54746 362.416 3.66285 362.531C3.77823 362.646 3.77824 362.646 3.89362 362.762L14.3934 368.877C14.6242 368.992 14.7396 369.108 14.9703 369.108C14.9703 369.108 15.0857 369.108 15.0857 369.223C15.2011 369.223 15.3165 369.338 15.4318 369.338C15.5472 369.338 15.6626 369.454 15.8934 369.454C16.0087 369.454 16.2395 369.569 16.3549 369.569H16.4703C16.701 369.569 16.9318 369.569 17.1626 369.569H17.278C17.5087 369.569 17.7395 369.569 17.9702 369.569H18.0856C18.3164 369.569 18.5472 369.454 18.7779 369.454H18.8933C19.1241 369.454 19.2395 369.338 19.4702 369.223H19.5856C19.8164 369.108 20.0471 368.992 20.1625 368.877L30.7777 362.762C31.5853 362.3 32.0469 361.723 32.0469 361.031V367.377C32.0469 367.954 31.5853 368.646 30.7777 369.108L20.1625 375.223C19.9318 375.338 19.8164 375.454 19.5856 375.454H19.4702C19.3548 375.454 19.2394 375.569 19.1241 375.569C19.0087 375.569 19.0087 375.569 18.8933 375.569H18.7779H18.6625C18.5471 375.569 18.4318 375.569 18.201 375.684H18.0856H17.9702H17.8549C17.7395 375.684 17.6241 375.684 17.3933 375.684H17.278H17.1626C17.0472 375.684 17.0472 375.684 16.9318 375.684C16.8164 375.684 16.5857 375.684 16.4703 375.684H16.3549C16.2395 375.684 16.1241 375.684 16.0088 375.684H15.8934C15.778 375.684 15.6626 375.569 15.4318 375.569C15.3165 375.569 15.3164 375.569 15.2011 375.569C15.0857 375.569 15.0857 375.569 15.0857 375.454C15.0857 375.454 14.9703 375.454 14.9703 375.338C14.7396 375.223 14.6242 375.223 14.3934 375.108L3.89362 368.992C3.77824 368.992 3.77823 368.877 3.66285 368.877C3.54746 368.762 3.43209 368.762 3.31671 368.646C3.20133 368.531 3.08593 368.415 3.08593 368.415C3.08593 368.415 3.08593 368.415 3.08593 368.3C3.08593 368.3 3.08593 368.3 3.08593 368.185C3.08593 368.185 3.08593 368.069 2.97054 368.069C2.97054 367.954 2.85519 367.954 2.85519 367.839V367.723C2.85519 367.608 2.85519 367.608 2.85519 367.492V361.146C2.62443 361.146 2.7398 361.262 2.7398 361.377Z" fill="#234E55"/>
<path d="M3.89468 359.3C2.27933 360.223 2.27933 361.723 3.89468 362.646L14.3945 368.762C16.0098 369.685 18.5482 369.685 20.1636 368.762L30.7787 362.646C32.3941 361.723 32.3941 360.223 30.7787 359.3L20.2789 353.185C18.6636 352.262 16.1252 352.262 14.5098 353.185L3.89468 359.3Z" fill="#53AFBE"/>
<path d="M172.237 273.687L173.275 271.956L169.468 269.764V258.456C170.621 259.148 172.121 259.956 172.237 259.956L173.391 258.225C173.275 258.225 173.044 257.995 169.814 256.264C169.352 256.033 168.775 256.033 168.198 256.264C167.737 256.495 167.391 257.072 167.391 257.648V269.994C167.391 270.571 167.737 271.148 168.198 271.379L172.237 273.687Z" fill="url(#paint8_linear_433_525)"/>
<path d="M182.504 274.264C175.696 274.264 170.158 277.033 170.158 280.379C170.158 283.725 175.696 286.494 182.504 286.494C189.311 286.494 194.85 283.725 194.85 280.379C194.85 277.033 189.311 274.264 182.504 274.264Z" fill="#E6E7E8"/>
<path d="M173.274 259.148C174.889 260.879 178.466 262.033 182.62 262.033C186.773 262.033 190.235 260.879 191.965 259.148C192.542 258.456 193.004 257.764 193.004 256.956V279.34C193.004 282.11 188.389 284.417 182.735 284.417C177.081 284.417 172.466 282.11 172.466 279.34V256.956C172.235 257.764 172.581 258.456 173.274 259.148Z" fill="url(#paint9_linear_433_525)"/>
<path d="M173.273 256.956C173.273 257.302 173.388 257.764 173.619 258.11C174.773 256.379 178.35 255.11 182.619 255.11C186.888 255.11 190.465 256.379 191.619 258.11C191.849 257.764 191.965 257.418 191.965 256.956C191.965 254.649 187.811 252.802 182.619 252.802C177.427 252.802 173.273 254.649 173.273 256.956Z" fill="url(#paint10_linear_433_525)"/>
<path d="M173.62 258.11C174.773 259.841 178.35 261.11 182.619 261.11C186.888 261.11 190.465 259.841 191.619 258.11C190.465 256.379 186.888 255.11 182.619 255.11C178.35 255.11 174.658 256.379 173.62 258.11Z" fill="#101130"/>
<path d="M182.503 252.802C187.695 252.802 191.849 254.649 191.849 256.956C191.849 257.302 191.734 257.764 191.503 258.11C190.349 259.841 186.772 261.11 182.503 261.11C178.234 261.11 174.657 259.841 173.503 258.11C173.273 257.764 173.157 257.418 173.157 256.956C173.273 254.649 177.426 252.802 182.503 252.802ZM182.503 262.033C186.657 262.033 190.119 260.879 191.849 259.148C192.426 258.456 192.888 257.764 192.888 256.956C192.888 254.187 188.272 251.879 182.619 251.879C176.965 251.879 172.35 254.187 172.35 256.956C172.35 257.764 172.696 258.456 173.388 259.148C174.888 260.879 178.465 262.033 182.503 262.033Z" fill="#F9F8F7"/>
<path d="M145.006 351.454C144.66 351.454 144.429 351.454 144.083 351.454C143.621 351.454 143.16 351.339 142.814 351.339C142.352 351.223 141.891 351.223 141.544 351.108C141.083 350.993 140.621 350.877 140.16 350.762C139.583 350.647 139.121 350.416 138.544 350.185C137.852 349.954 137.275 349.608 136.583 349.262L34.7005 290.417C32.0467 288.917 30.7775 286.956 30.7775 284.879L30.8929 257.072C30.8929 259.033 32.1621 260.995 34.8158 262.61L136.698 321.455C137.275 321.801 137.968 322.147 138.66 322.378C139.237 322.609 139.698 322.724 140.275 322.955C140.737 323.07 141.198 323.186 141.66 323.301C142.121 323.416 142.583 323.416 142.929 323.532C143.391 323.647 143.737 323.647 144.198 323.647C144.429 323.647 144.775 323.647 145.006 323.647V351.454Z" fill="url(#paint11_linear_433_525)"/>
<path d="M273.196 147.458C273.888 147.458 274.35 146.997 274.35 146.305V21.4611C274.35 18.3458 272.734 15.5766 270.08 14.0766C267.427 12.4613 264.196 12.4613 261.542 13.9613L254.042 18.115C253.465 18.4612 253.235 19.1535 253.581 19.7304C253.927 20.3073 254.619 20.538 255.196 20.1919L262.696 16.0381C264.657 14.8843 266.965 14.9997 268.927 16.1535C270.888 17.3073 272.042 19.3842 272.042 21.5765V146.42C272.042 146.882 272.503 147.458 273.196 147.458Z" fill="#E3E5E7"/>
<path d="M175.235 65.3063C176.273 65.3063 177.427 65.0756 178.35 64.4987L212.388 44.8837C212.965 44.5375 213.08 43.8452 212.85 43.2683C212.503 42.6914 211.811 42.576 211.234 42.8068L177.196 62.4218C175.927 63.1141 174.427 63.1141 173.273 62.4218C172.004 61.7295 171.312 60.4603 171.312 58.9603V26.4225C171.312 25.7302 170.85 25.2687 170.158 25.2687C169.466 25.2687 169.004 25.7302 169.004 26.4225V58.9603C169.004 61.268 170.158 63.2295 172.12 64.3833C173.158 64.9602 174.196 65.3063 175.235 65.3063Z" fill="#E3E5E7"/>
<path d="M125.276 71.3062C125.968 71.3062 126.43 70.8447 126.43 70.1524V67.1524C126.43 65.4217 127.353 63.8064 128.853 62.9987L170.506 39.9223C171.083 39.5761 171.313 38.8838 170.967 38.3069C170.621 37.73 169.929 37.4992 169.352 37.8454L127.699 60.9218C125.507 62.191 124.122 64.4987 124.122 67.0371V70.037C124.122 70.7293 124.584 71.3062 125.276 71.3062Z" fill="#E3E5E7"/>
<path d="M96.6604 143.305C97.3527 143.305 97.8142 142.843 97.8142 142.151V115.959C97.8142 112.844 99.4295 109.959 102.199 108.459L111.199 103.267C111.775 102.921 111.891 102.229 111.66 101.652C111.314 101.075 110.622 100.959 110.045 101.19L101.045 106.382C97.6988 108.344 95.5065 112.036 95.5065 115.844V142.035C95.5065 142.728 95.9681 143.305 96.6604 143.305Z" fill="#E3E5E7"/>
<path d="M416.616 289.032C416.846 289.032 416.962 289.032 417.193 288.917L424 285.225C425.846 284.186 426.885 282.34 427 280.263C427 278.187 425.962 276.34 424.115 275.302L382.462 251.302C381.886 250.956 381.193 251.187 380.847 251.764C380.501 252.341 380.732 253.033 381.309 253.379L422.962 277.379C424 277.956 424.692 279.11 424.692 280.379C424.692 281.648 424 282.686 422.962 283.263L416.154 286.956C415.577 287.302 415.346 287.994 415.693 288.571C415.808 288.917 416.269 289.032 416.616 289.032Z" fill="#E3E5E7"/>
<path d="M339.886 390.684C340.117 390.684 340.232 390.684 340.463 390.569L397.115 357.916C398.5 357.108 399.308 355.723 399.308 354.108C399.308 352.493 398.5 351.108 397.115 350.3L357.193 327.339C356.501 326.993 356.155 326.301 356.155 325.493C356.155 324.686 356.501 323.993 357.193 323.647L367.001 317.993C367.578 317.647 367.693 316.955 367.462 316.378C367.116 315.801 366.424 315.686 365.847 315.917L356.039 321.57C354.655 322.378 353.847 323.762 353.847 325.378C353.847 326.993 354.655 328.378 356.039 329.185L395.962 352.147C396.654 352.493 397 353.185 397 353.993C397 354.8 396.654 355.493 395.962 355.839L339.309 388.492C338.732 388.838 338.617 389.53 338.847 390.107C339.078 390.453 339.54 390.684 339.886 390.684Z" fill="#E3E5E7"/>
<path d="M312.426 415.838C314.041 415.838 315.772 415.376 317.272 414.568L327.887 408.453C328.464 408.107 328.579 407.415 328.349 406.838C328.002 406.261 327.31 406.145 326.733 406.376L316.118 412.491C313.81 413.761 311.041 413.761 308.849 412.491L297.657 406.03C294.657 404.299 290.965 404.299 288.08 406.03L283.926 408.453C283.349 408.799 283.234 409.492 283.465 410.068C283.811 410.645 284.503 410.761 285.08 410.53L289.234 408.107C291.542 406.838 294.311 406.838 296.503 408.107L307.695 414.568C309.08 415.491 310.81 415.838 312.426 415.838Z" fill="#E3E5E7"/>
<path d="M214.236 448.26C217.582 448.26 220.928 447.452 223.928 445.722L254.274 428.53C254.851 428.183 254.966 427.491 254.735 426.914C254.389 426.337 253.697 426.222 253.12 426.453L222.774 443.645C217.467 446.645 210.775 446.645 205.467 443.529L113.623 390.569C113.046 390.223 112.354 390.453 112.007 391.03C111.661 391.607 111.892 392.3 112.469 392.646L204.313 445.606C207.429 447.337 210.89 448.26 214.236 448.26Z" fill="#E3E5E7"/>
<path d="M68.1612 366.8C68.5074 366.8 68.9689 366.569 69.1997 366.223C69.5458 365.646 69.315 364.954 68.7381 364.608L43.1233 349.839C39.8926 347.993 35.8542 347.993 32.6235 349.839L27.5467 352.723C26.9698 353.07 26.8544 353.762 27.0852 354.339C27.4313 354.916 28.1236 355.031 28.7005 354.8L33.7773 351.916C36.3157 350.416 39.4311 350.416 41.9695 351.916L67.5843 366.569C67.6997 366.685 67.9304 366.8 68.1612 366.8Z" fill="#E3E5E7"/>
</g>
<defs>
<linearGradient id="paint0_linear_433_525" x1="374.532" y1="206.636" x2="316.732" y2="206.636" gradientUnits="userSpaceOnUse">
<stop stop-color="#B7C6D2"/>
<stop offset="0.4651" stop-color="#A5B7C6"/>
<stop offset="1" stop-color="#5E8AA2"/>
</linearGradient>
<linearGradient id="paint1_linear_433_525" x1="313.967" y1="164.001" x2="366.683" y2="164.001" gradientUnits="userSpaceOnUse">
<stop stop-color="#B7C6D2"/>
<stop offset="0.4651" stop-color="#A5B7C6"/>
<stop offset="1" stop-color="#5E8AA2"/>
</linearGradient>
<linearGradient id="paint2_linear_433_525" x1="305.781" y1="165.644" x2="372.818" y2="169.91" gradientUnits="userSpaceOnUse">
<stop stop-color="#A5B7C6"/>
<stop offset="1" stop-color="#E6E7E8"/>
</linearGradient>
<linearGradient id="paint3_linear_433_525" x1="80.6605" y1="147.322" x2="221.395" y2="260.229" gradientUnits="userSpaceOnUse">
<stop stop-color="#A5B7C6"/>
<stop offset="1" stop-color="#E6E7E8"/>
</linearGradient>
<linearGradient id="paint4_linear_433_525" x1="343.959" y1="280.158" x2="137.049" y2="280.158" gradientUnits="userSpaceOnUse">
<stop stop-color="#5E8AA2"/>
<stop offset="0.1291" stop-color="#A5B7C6"/>
<stop offset="0.2118" stop-color="#A1B5C4"/>
<stop offset="0.2876" stop-color="#96AEBE"/>
<stop offset="0.3605" stop-color="#84A2B5"/>
<stop offset="0.4314" stop-color="#6A91A7"/>
<stop offset="0.447" stop-color="#638DA4"/>
<stop offset="0.7736" stop-color="#A5B7C6"/>
<stop offset="1" stop-color="#B7C6D2"/>
</linearGradient>
<linearGradient id="paint5_linear_433_525" x1="190.002" y1="364.074" x2="244.731" y2="397.002" gradientUnits="userSpaceOnUse">
<stop stop-color="#5E8AA2"/>
<stop offset="0.5349" stop-color="#A5B7C6"/>
<stop offset="1" stop-color="#B7C6D2"/>
</linearGradient>
<linearGradient id="paint6_linear_433_525" x1="177.877" y1="406.706" x2="353.954" y2="348.173" gradientUnits="userSpaceOnUse">
<stop stop-color="#5E8AA2"/>
<stop offset="0.5349" stop-color="#A5B7C6"/>
<stop offset="1" stop-color="#B7C6D2"/>
</linearGradient>
<linearGradient id="paint7_linear_433_525" x1="136.477" y1="377.906" x2="337.663" y2="333.447" gradientUnits="userSpaceOnUse">
<stop stop-color="#A5B7C6"/>
<stop offset="1" stop-color="#F9FBFC"/>
</linearGradient>
<linearGradient id="paint8_linear_433_525" x1="174.883" y1="261.263" x2="160.33" y2="272.698" gradientUnits="userSpaceOnUse">
<stop offset="0.1952" stop-color="#F9FBFC"/>
<stop offset="1" stop-color="#A5B7C6"/>
</linearGradient>
<linearGradient id="paint9_linear_433_525" x1="192.842" y1="270.645" x2="172.246" y2="270.645" gradientUnits="userSpaceOnUse">
<stop offset="0.1952" stop-color="#F9FBFC"/>
<stop offset="1" stop-color="#A5B7C6"/>
</linearGradient>
<linearGradient id="paint10_linear_433_525" x1="159.997" y1="255.453" x2="187.706" y2="255.453" gradientUnits="userSpaceOnUse">
<stop offset="0.1952" stop-color="#F9FBFC"/>
<stop offset="1" stop-color="#A5B7C6"/>
</linearGradient>
<linearGradient id="paint11_linear_433_525" x1="137.016" y1="328.074" x2="18.9912" y2="273.059" gradientUnits="userSpaceOnUse">
<stop stop-color="#B7C6D2"/>
<stop offset="0.4651" stop-color="#A5B7C6"/>
<stop offset="1" stop-color="#5E8AA2"/>
</linearGradient>
<clipPath id="clip0_433_525">
<rect width="427" height="449" fill="white"/>
</clipPath>
</defs>
</svg>
