<svg width="48" height="48" viewBox="0 0 48 48" fill="none" xmlns="http://www.w3.org/2000/svg">
<path d="M6.39062 10.2188L15.5781 1.03125C15.5781 1.03125 26.8397 1.03125 32.4219 1.03125C34.1132 1.03125 35.4844 2.40253 35.4844 4.09378C35.4844 11.5096 35.4844 30.3654 35.4844 37.7812C35.4844 39.4725 34.1133 40.8438 32.4219 40.8438C26.8328 40.8438 15.0423 40.8438 9.45316 40.8438C7.76191 40.8438 6.39062 39.4725 6.39062 37.7812C6.39063 30.0247 6.39062 10.2188 6.39062 10.2188Z" stroke="#fff" stroke-width="2" stroke-miterlimit="10" stroke-linecap="round" stroke-linejoin="round"/>
<path d="M35.4843 7.15625C35.4843 7.15625 37.0155 7.15625 38.5468 7.15625C40.2381 7.15625 41.6093 8.52753 41.6093 10.2188C41.6093 17.6346 41.6093 36.4904 41.6093 43.9062C41.6093 45.5975 40.2382 46.9688 38.5468 46.9688C32.9577 46.9688 21.1672 46.9688 15.5781 46.9688C14.7657 46.9688 13.9871 46.6465 13.4129 46.0715C12.8379 45.4973 12.5156 44.7186 12.5156 43.9063C12.5156 42.3751 12.5156 40.8438 12.5156 40.8438" stroke="#fff" stroke-width="2" stroke-miterlimit="10" stroke-linecap="round" stroke-linejoin="round"/>
<path d="M6.39062 11.7499C6.39062 11.7499 10.8787 11.7499 14.0469 11.7499C15.7382 11.7499 17.1094 10.3787 17.1094 8.68741C17.1094 5.51922 17.1094 1.03113 17.1094 1.03113" stroke="#fff" stroke-width="2" stroke-miterlimit="10"/>
<path d="M14.0469 19.4062H27.8281" stroke="#fff" stroke-width="2" stroke-miterlimit="10" stroke-linecap="round" stroke-linejoin="round"/>
<path d="M14.0469 25.5312H27.8281" stroke="#fff" stroke-width="2" stroke-miterlimit="10" stroke-linecap="round" stroke-linejoin="round"/>
<path d="M14.0469 31.6562H21.7032" stroke="#fff" stroke-width="2" stroke-miterlimit="10" stroke-linecap="round" stroke-linejoin="round"/>
</svg>
