<svg width="48" height="48" viewBox="0 0 48 48" fill="none" xmlns="http://www.w3.org/2000/svg">
<path d="M38.625 39C38.625 41.071 36.946 42.75 34.875 42.75H5.625C3.55397 42.75 1.875 41.071 1.875 39V20.25C1.875 18.179 3.55397 16.5 5.625 16.5H34.875C36.946 16.5 38.625 18.179 38.625 20.25V39Z" stroke="#fff" stroke-width="2" stroke-miterlimit="10" stroke-linecap="round" stroke-linejoin="round"/>
<path d="M9.375 9C9.375 6.92897 11.054 5.25 13.125 5.25H42.375C44.446 5.25 46.125 6.92897 46.125 9V27.75C46.125 29.821 44.446 31.5 42.375 31.5H38.625" stroke="#fff" stroke-width="2" stroke-miterlimit="10" stroke-linecap="round" stroke-linejoin="round"/>
<path d="M9.375 24H38.625" stroke="#fff" stroke-width="2" stroke-miterlimit="10" stroke-linecap="round" stroke-linejoin="round"/>
<path d="M23.625 35.25H31.125" stroke="#fff" stroke-width="2" stroke-miterlimit="10" stroke-linecap="round" stroke-linejoin="round"/>
</svg>
