<svg xmlns="http://www.w3.org/2000/svg" width="46" height="38.014" viewBox="0 0 46 38.014">
  <path id="stack-of-money" d="M39.984,5.986A1,1,0,0,0,39.84,6H3A1,1,0,0,0,2,7V31a1,1,0,0,0,1,1H9.832a1,1,0,0,0,.326,0H39.832a1,1,0,0,0,.326,0H47a1,1,0,0,0,1-1V7a1,1,0,0,0-1-1H40.154A1,1,0,0,0,39.984,5.986ZM4,8H9V30H4Zm7,0H39V30H11ZM41,8h5V30H41ZM3,34a1,1,0,1,0,0,2H47a1,1,0,1,0,0-2Zm0,4a1,1,0,1,0,0,2H47a1,1,0,1,0,0-2Zm0,4a1,1,0,1,0,0,2H47a1,1,0,1,0,0-2Z" transform="translate(-2 -5.986)" fill="#fff"/>
</svg>
