<svg width="24" height="24" viewBox="0 0 24 24" fill="none" xmlns="http://www.w3.org/2000/svg">
<path d="M0.800049 15.2L0.269719 14.6697L0.0500488 14.8893V15.2H0.800049ZM15.2 0.799999L15.7304 0.269669C15.4375 -0.0232241 14.9626 -0.0232241 14.6697 0.269669L15.2 0.799999ZM23.2 8.8L23.7304 9.33033C24.0233 9.03744 24.0233 8.56256 23.7304 8.26967L23.2 8.8ZM8.80005 23.2V23.95H9.11071L9.33038 23.7303L8.80005 23.2ZM0.800049 23.2H0.0500488C0.0500488 23.6142 0.385835 23.95 0.800049 23.95L0.800049 23.2ZM1.33038 15.7303L15.7304 1.33033L14.6697 0.269669L0.269719 14.6697L1.33038 15.7303ZM14.6697 1.33033L22.6697 9.33033L23.7304 8.26967L15.7304 0.269669L14.6697 1.33033ZM22.6697 8.26967L8.26972 22.6697L9.33038 23.7303L23.7304 9.33033L22.6697 8.26967ZM8.80005 22.45H0.800049V23.95H8.80005V22.45ZM1.55005 23.2V15.2H0.0500488V23.2H1.55005ZM9.86972 6.13033L17.8697 14.1303L18.9304 13.0697L10.9304 5.06967L9.86972 6.13033ZM12.8 23.95H24V22.45H12.8V23.95Z" fill="#53AFBE"/>
</svg>
