<svg width="48" height="48" viewBox="0 0 48 48" fill="none" xmlns="http://www.w3.org/2000/svg">
<g clip-path="url(#clip0_70_3962)">
<mask id="mask0_70_3962" style="mask-type:luminance" maskUnits="userSpaceOnUse" x="0" y="0" width="48" height="48">
<path d="M0 3.8147e-06H48V48H0V3.8147e-06Z" fill="white"/>
</mask>
<g mask="url(#mask0_70_3962)">
<path d="M17.4323 24.6976C17.4323 22.4556 15.618 20.6414 13.376 20.6414" stroke="#fff" stroke-width="2" stroke-miterlimit="10" stroke-linecap="round" stroke-linejoin="round"/>
<path d="M41.4429 24.6976C41.4429 22.4556 43.2571 20.6414 45.4992 20.6414" stroke="#fff" stroke-width="2" stroke-miterlimit="10" stroke-linecap="round" stroke-linejoin="round"/>
<path d="M41.4429 7.56335C41.4429 9.80538 43.2571 11.6196 45.4992 11.6196" stroke="#fff" stroke-width="2" stroke-miterlimit="10" stroke-linecap="round" stroke-linejoin="round"/>
<path d="M29.4375 7.50002H44.0414C44.8815 7.50002 45.5625 8.18102 45.5625 9.02111V23.2399C45.5625 24.08 44.8815 24.761 44.0414 24.761H23.9414" stroke="#fff" stroke-width="2" stroke-miterlimit="10" stroke-linecap="round" stroke-linejoin="round"/>
<path d="M25.2187 24.761H14.8336C13.9936 24.761 13.3125 24.08 13.3125 23.2399V15.0992" stroke="#fff" stroke-width="2" stroke-miterlimit="10" stroke-linecap="round" stroke-linejoin="round"/>
<path d="M25.4016 14.0046C26.167 12.5582 27.6872 11.5727 29.4376 11.5727C31.9578 11.5727 34.0009 13.6158 34.0009 16.136C34.0009 18.6562 31.9578 20.6993 29.4376 20.6993C27.5047 20.6993 25.8524 19.4976 25.1873 17.8004" stroke="#fff" stroke-width="2" stroke-miterlimit="10" stroke-linecap="round" stroke-linejoin="round"/>
<path d="M9.1875 2.43744H22.7818C24.1168 2.43744 25.4143 2.87957 26.4715 3.69482L31.4062 7.49994H21.2118C20.1369 7.49994 19.2656 8.37126 19.2656 9.4461C19.2656 10.1542 19.6503 10.8064 20.2699 11.1491L25.0931 13.8166C26.0932 14.3697 26.5377 15.5715 26.1383 16.6423C25.7501 17.6831 24.6755 18.2995 23.5811 18.1093L20.1946 17.5204C17.0407 16.972 14.0489 15.7266 11.4375 13.8749H9.1875" stroke="#fff" stroke-width="2" stroke-miterlimit="10" stroke-linecap="round" stroke-linejoin="round"/>
<path d="M9.1875 15.9375H0.9375V0.937501H9.1875V15.9375Z" stroke="#fff" stroke-width="2" stroke-miterlimit="10" stroke-linecap="round" stroke-linejoin="round"/>
<path d="M38.8055 45.9375H20.4389C17.1907 45.9375 14.0755 44.6471 11.7786 42.3503L6.68543 37.2571C5.77371 36.3454 5.77718 34.866 6.69321 33.9585C7.60324 33.0569 9.0709 33.0605 9.97662 33.9664L14.534 38.5251C16.0614 40.0528 18.1331 40.9112 20.2933 40.9112H25.3578" stroke="#fff" stroke-width="2" stroke-miterlimit="10" stroke-linecap="round" stroke-linejoin="round"/>
<path d="M30.8923 40.9111H20.6837C19.4021 40.9111 18.363 39.8721 18.363 38.5904C18.363 37.3087 19.4021 36.2697 20.6837 36.2697H26.6029L27.8273 34.8163C29.3508 33.0077 31.595 31.9639 33.9598 31.9639C35.6515 31.9639 37.2999 32.4989 38.6691 33.4926L38.8054 33.5915" stroke="#fff" stroke-width="2" stroke-miterlimit="10" stroke-linecap="round" stroke-linejoin="round"/>
<path d="M47.0625 47.0625H38.8125V32.0625H47.0625V47.0625Z" stroke="#fff" stroke-width="2" stroke-miterlimit="10" stroke-linecap="round" stroke-linejoin="round"/>
</g>
</g>
<defs>
<clipPath id="clip0_70_3962">
<rect width="48" height="48" fill="white"/>
</clipPath>
</defs>
</svg>
