<svg width="1144" height="1110" viewBox="0 0 1144 1110" fill="none" xmlns="http://www.w3.org/2000/svg">
<path d="M475.78 1034.77C404.848 813.789 380.867 706.736 407.325 616.519C428.528 544.182 482.159 482.706 569.982 381.999C634.564 307.935 717.685 212.616 819.997 76.1898L820.253 76.4755C717.942 212.874 634.836 308.179 570.254 382.243C482.476 482.909 428.86 544.372 407.675 616.639C381.252 706.744 405.194 813.723 476.066 1034.51L475.78 1034.77Z" fill="#78c5d1"/>
<path d="M476.066 1034.51C383.2 778.25 352.316 675.604 443.383 561.758C465.664 533.919 488.979 506.239 514.437 476.023C589.097 387.394 682.143 276.916 820.749 77.032L821.005 77.3177C682.428 277.175 589.368 387.638 514.709 476.267C489.236 506.496 465.921 534.176 443.669 561.989C352.741 675.656 383.602 778.216 476.367 1034.24L476.066 1034.51Z" fill="#78c5d1"/>
<path d="M475.69 1034.85L474.234 1031.31C376.814 792.682 333.736 687.246 452.803 568.375C537.894 483.406 603.007 405.003 696.959 266.932C733.11 213.818 773.53 151.865 820.991 77.3027L821.246 77.5885C773.802 152.109 733.383 214.034 697.263 267.12C603.279 405.247 538.166 483.65 453.06 568.632C334.188 687.328 377.212 792.704 474.585 1031.16L475.991 1034.58L475.69 1034.85Z" fill="#78c5d1"/>
<path d="M474.637 1035.79C471.905 1029.82 469.21 1023.96 466.553 1018.16C367.708 803.19 318.701 696.561 462.211 574.976C599.947 458.277 655.87 361.618 787.279 134.509C797.885 116.176 808.98 96.9989 820.642 76.9117L820.897 77.1974C809.251 97.2712 798.171 116.406 787.582 134.698C656.157 361.848 600.232 458.535 462.437 575.26C319.138 696.657 368.121 803.199 466.876 1018.01C469.534 1023.77 472.202 1029.61 474.923 1035.53L474.637 1035.79Z" fill="#78c5d1"/>
<path d="M472.892 1037.34C469.445 1030.64 466.022 1024.02 462.664 1017.5C359.128 816.769 302.8 707.541 471.618 581.578C619.117 471.514 662.892 384.619 751.196 209.374C771.16 169.766 793.393 125.646 819.595 75.7386L819.85 76.0243C793.665 125.889 771.449 169.968 751.515 209.549C663.192 384.865 619.402 471.773 471.83 581.875C303.279 707.654 359.542 816.778 462.989 1017.32C466.348 1023.81 469.731 1030.38 473.165 1037.07L472.879 1037.33L472.892 1037.34Z" fill="#78c5d1"/>
<path d="M470.441 1039.53C467.269 1034.01 464.123 1028.55 461.016 1023.16C351.004 832.13 286.171 719.522 481.024 588.208C644.923 477.745 679.689 394.867 744.976 239.279C764.886 191.8 787.649 137.558 817.782 73.7082L818.05 74.009C787.964 137.79 765.218 191.99 745.324 239.427C680.02 395.085 645.237 478.005 481.249 588.52C286.679 719.636 351.46 832.156 461.353 1023C464.448 1028.37 467.58 1033.82 470.725 1039.31L470.454 1039.55L470.441 1039.53Z" fill="#78c5d1"/>
<path d="M467.283 1042.35C465.157 1039.03 463.045 1035.73 460.96 1032.46C343.37 848.676 268.821 732.147 490.46 594.811C673.046 481.665 699.62 400.965 747.275 256.173C764.417 204.111 784.284 143.778 815.098 70.6718L815.367 70.9726C784.601 143.982 764.751 204.273 747.625 256.293C699.937 401.168 673.359 481.926 490.656 595.122C269.329 732.261 343.814 848.658 461.271 1032.26C463.356 1035.53 465.456 1038.79 467.568 1042.1L467.283 1042.35Z" fill="#78c5d1"/>
<path d="M463.417 1045.8L462.188 1044.06C431.923 1001.32 404.013 961.889 382.491 924.644C314.43 806.755 310.529 710.749 499.852 601.426C702.269 484.548 720.813 405.206 752.937 267.632C765.903 212.163 781.077 147.209 811.377 66.5343L811.659 66.8501C781.393 147.413 766.238 212.296 753.289 267.723C721.145 405.397 702.584 484.78 500.034 601.75C310.963 710.902 314.857 806.779 382.802 924.447C404.296 961.691 432.221 1001.11 462.485 1043.85L463.688 1045.56L463.417 1045.8Z" fill="#78c5d1"/>
<path d="M458.86 1049.87C420.506 1000.71 385.576 955.376 362.067 912.121C304.688 806.56 315.226 713.528 509.244 608.041C732.211 486.844 742.619 408.469 760.184 276.324C767.948 217.905 777.107 148.969 806.624 61.2102L806.906 61.526C777.452 149.175 768.298 218.025 760.553 276.374C742.981 408.632 732.555 487.078 509.426 608.365C315.645 713.694 305.115 806.584 362.391 911.939C385.889 955.151 420.79 1000.48 459.131 1049.63L458.86 1049.87Z" fill="#78c5d1"/>
<path d="M453.642 1054.53C410.115 1003.66 370.896 956.158 347.144 910.119C296.102 811.171 316.431 718.994 518.652 614.642C762.676 488.726 764.771 411.152 768.193 283.418C769.844 222.239 771.789 149.582 800.743 54.6228L801.038 54.9537C772.178 149.775 770.21 222.345 768.576 283.454C765.146 411.33 763.047 488.99 518.832 614.995C316.861 719.204 296.528 811.224 347.495 909.967C371.235 955.963 410.428 1003.43 453.941 1054.29L453.655 1054.55L453.642 1054.53Z" fill="#78c5d1"/>
<path d="M447.791 1059.75C400.417 1008.99 358.141 960.762 334.692 913.155C287.882 818.16 315.988 725.794 528.073 621.259C793.568 490.39 787.058 413.471 776.558 289.517C771.135 225.682 764.705 149.366 793.76 46.8021L794.056 47.133C765.082 149.516 771.516 225.746 776.914 289.523C787.435 413.621 793.954 490.641 528.224 621.61C316.404 726.017 288.278 818.211 335.015 913.002C358.452 960.565 400.715 1008.78 448.062 1059.51L447.791 1059.75Z" fill="#78c5d1"/>
<path d="M441.309 1065.54C390.964 1015.81 346.462 967.54 323.517 919.105C279.722 826.579 314.558 733.395 537.45 627.887C824.784 491.873 809.345 415.547 784.972 295.006C771.531 228.517 755.382 148.581 785.731 37.8083L786.026 38.1392C755.789 148.704 771.902 228.51 785.333 294.927C809.74 415.626 825.201 492.068 537.603 628.21C314.989 733.605 280.163 826.618 323.855 918.938C346.773 967.343 391.263 1015.57 441.58 1065.3L441.309 1065.54Z" fill="#78c5d1"/>
<path d="M434.27 1071.83C381.599 1023.58 335.503 975.73 313.181 926.873C271.641 835.903 312.543 741.492 546.857 634.489C856.34 493.16 831.644 417.395 793.354 300.036C770.821 230.962 743.606 147.5 776.869 27.8821L777.164 28.213C744.041 147.625 771.193 230.954 793.704 299.913C832.054 417.461 856.814 493.359 547.01 634.811C312.959 741.715 272.079 835.97 313.533 926.721C335.814 975.533 381.899 1023.34 434.556 1071.57L434.27 1071.83Z" fill="#78c5d1"/>
<path d="M426.69 1078.59C372.21 1032.04 325.033 984.861 303.388 935.913C263.592 845.899 310.122 749.951 556.292 641.12C888.258 494.34 853.891 419.155 801.595 304.786C768.877 233.265 729.229 146.443 767.456 17.3393L767.751 17.6701C729.666 146.539 769.251 233.229 801.905 304.618C854.288 419.206 888.719 494.523 556.416 641.441C310.509 750.172 264.004 845.937 303.711 935.76C325.331 984.649 372.494 1031.81 426.961 1078.35L426.69 1078.59Z" fill="#78c5d1"/>
<path d="M418.599 1085.82C362.746 1041.06 314.896 994.668 293.929 945.844C255.504 856.336 307.358 758.662 565.684 647.735C851.363 525.064 878.174 452.801 843.089 371.122C834.599 351.35 822.485 331.03 809.55 309.307C765.607 235.536 712.084 145.615 757.83 6.52729L758.125 6.85817C712.565 145.699 766.011 235.473 809.875 309.125C822.823 330.863 834.951 351.198 843.426 370.984C878.598 452.883 851.794 525.274 565.835 648.086C307.759 758.898 255.901 856.387 294.266 945.706C315.207 994.471 363.045 1040.82 418.87 1085.57L418.599 1085.82Z" fill="#78c5d1"/>
<path d="M410.041 1093.46C353.189 1050.46 305.017 1004.97 284.719 956.446C247.367 867.142 304.356 767.559 575.076 654.35C856.782 536.523 897.905 465.457 867.145 391.89C856.644 366.778 837.75 341.347 817.213 313.682C762.352 239.821 695.589 149.936 744.286 6.91674L744.857 6.40652C695.806 149.634 762.609 239.564 817.497 313.455C838.061 341.151 856.955 366.581 867.481 391.752C898.344 465.524 857.212 536.761 575.214 654.686C304.756 767.796 247.793 867.194 285.055 956.308C305.328 1004.78 353.487 1050.24 410.327 1093.2L410.041 1093.46Z" fill="#78c5d1"/>
<path d="M293.604 1000.24C286.286 989.534 280.235 978.639 275.708 967.545C239.244 878.205 301.186 776.632 584.469 660.965C867.225 545.525 917.981 475.047 889.981 406.449C878.23 377.696 852.668 349.246 824.539 317.952C760.706 246.939 683.738 161.273 725.11 24.0367L725.651 23.5534C683.942 160.956 760.95 246.667 824.81 317.71C852.965 349.034 878.569 377.501 890.317 406.311C918.405 475.128 867.654 545.763 584.62 661.316C301.586 776.869 239.654 878.271 276.058 967.422C280.924 979.321 287.53 991.019 295.605 1002.49L293.604 1000.24ZM401.062 1101.47C379.452 1085.96 359.151 1070 341.205 1053.56L338.653 1050.7C357.29 1068.07 378.584 1084.89 401.348 1101.22L401.062 1101.47Z" fill="#78c5d1"/>
<path d="M262.144 965.006C238.646 878.685 313.209 779.655 593.876 667.566C880.124 553.252 938.42 483.016 912.396 417.842C899.792 386.257 867.359 355.833 831.485 322.129C758.851 253.973 672.065 172.478 706.13 40.9822L706.656 40.5122C672.269 172.161 759.08 253.715 831.712 321.899C867.628 355.619 900.088 386.073 912.716 417.746C938.827 483.139 880.508 553.531 593.997 667.945C312.835 780.205 238.639 879.313 262.694 965.623L262.144 965.006ZM391.693 1109.84L391.087 1109.43L390.054 1108.27C390.686 1108.71 391.331 1109.16 391.963 1109.6L391.693 1109.84Z" fill="#78c5d1"/>
<path d="M249.938 951.335C248.213 870.36 338.589 777.78 603.282 674.196C894.45 560.247 959.185 490.018 934.662 427.342C921.378 393.391 881.896 361.611 838.016 326.326C756.799 260.968 660.587 183.537 687.405 57.6993L687.886 57.2696C660.775 183.234 757.014 260.695 838.246 326.039C882.167 361.369 921.675 393.179 935.012 427.219C959.609 490.099 894.864 560.498 603.433 674.548C338.435 778.242 248.258 870.833 250.314 951.756L249.938 951.335Z" fill="#78c5d1"/>
<path d="M243.426 944.041C257.23 866.715 358.062 778.611 612.674 680.811C909.734 566.71 980.192 496.291 956.845 435.539C943.007 399.514 896.18 366.832 844.093 330.468C754.492 267.92 649.287 194.463 668.951 74.1748L669.433 73.7451C649.477 194.131 754.694 267.631 844.31 330.167C896.466 366.577 943.335 399.275 957.21 435.402C980.616 496.372 910.148 566.962 612.812 681.148C358.025 779.023 257.306 867.133 243.735 944.387L243.426 944.041Z" fill="#78c5d1"/>
<path d="M239.948 940.145C265.934 865.566 374.628 780.849 622.095 687.428C925.723 572.813 1001.43 502.063 979.052 442.794C964.75 404.886 910.302 371.63 849.712 334.614C809.701 310.172 767.012 284.093 731.38 253.931C679.929 210.378 643.253 158.309 650.665 90.4741L651.101 90.0847C643.498 158.009 680.146 210.076 731.611 253.644C767.216 283.776 809.89 309.868 849.887 334.295C910.545 371.358 965.02 404.644 979.374 442.669C1001.82 502.143 926.081 573.062 622.19 687.776C374.605 781.248 266.042 865.929 240.23 940.461L239.948 940.145Z" fill="#78c5d1"/>
<path d="M238.028 937.995C274.493 865.708 389.663 783.885 631.501 694.058C942.171 578.642 1022.83 507.445 1001.27 449.364C986.552 409.719 924.197 376.144 854.86 338.775C802.04 310.309 745.144 279.671 702.128 242.479C659.017 205.21 629.872 161.364 632.676 106.562L633.082 106.199C630.132 161.05 659.262 204.909 702.372 242.207C745.346 279.382 802.228 310.006 855.035 338.456C924.442 375.844 986.837 409.464 1001.62 449.241C1023.28 507.527 942.586 578.894 631.639 694.394C389.627 784.269 274.611 866.143 238.431 938.446L238.028 937.995Z" fill="#78c5d1"/>
</svg>
