<svg width="1644" height="959" viewBox="0 0 1644 959" fill="none" xmlns="http://www.w3.org/2000/svg">
<path d="M184.421 958.266C338.039 612.706 425.083 456.566 555.173 375.621C659.469 310.707 791.399 294.183 1007.48 267.081C1166.39 247.141 1370.91 221.484 1643.38 166.689V167.313C1370.94 222.075 1166.46 247.732 1007.55 267.672C791.563 294.775 659.666 311.299 555.469 376.146C425.543 456.993 338.532 613.002 185.046 958.266H184.421Z" fill="#78c5d1"/>
<path d="M185.045 958.265C350.295 546.019 424.163 387.743 658.45 348.19C715.757 338.532 774.148 330.188 837.895 321.088C1024.86 294.38 1257.9 261.069 1643.38 168.528V169.152C1257.97 261.694 1024.93 294.972 837.96 321.679C774.18 330.779 715.789 339.123 658.549 348.781C424.623 388.268 350.821 546.413 185.703 958.265H185.045Z" fill="#78c5d1"/>
<path d="M184.225 958.265L186.295 952.385C326.867 556.63 388.938 381.731 662.722 366.455C858.4 355.516 1022.66 330.878 1286.75 265.011C1388.36 239.683 1504.74 208.245 1643.38 169.12V169.744C1504.81 208.836 1388.45 240.242 1286.92 265.57C1022.73 331.469 858.465 356.107 662.755 367.047C389.398 382.322 327.327 557.089 186.886 952.582L184.882 958.265H184.225Z" fill="#78c5d1"/>
<path d="M181.923 958.265C185.078 948.049 188.167 937.996 191.223 928.075C304.39 559.52 360.547 376.738 666.993 384.688C961.117 392.309 1134.02 335.51 1540.3 202.069C1573.09 191.294 1607.39 180.026 1643.38 168.265V168.89C1607.43 180.65 1573.19 191.885 1540.46 202.627C1134.12 336.101 961.183 392.933 666.96 385.279C360.974 377.329 304.883 559.98 191.781 928.24C188.758 938.128 185.669 948.114 182.548 958.265H181.923Z" fill="#78c5d1"/>
<path d="M178.113 958.266C181.202 946.374 184.225 934.613 187.215 923.05C279.221 566.715 329.299 372.829 671.266 402.92C970.056 429.201 1117.59 371.087 1415.17 253.908C1482.43 227.43 1557.35 197.93 1643.38 165.703V166.327C1557.42 198.521 1482.56 227.989 1415.37 254.466C1117.69 371.712 970.122 429.825 671.2 403.511C329.759 373.486 279.714 567.175 187.806 923.181C184.849 934.712 181.826 946.374 178.737 958.233H178.113V958.266Z" fill="#78c5d1"/>
<path d="M172.756 958.266C174.892 948.115 176.995 938.062 179.065 928.141C252.67 576.57 296.077 369.346 675.504 421.185C994.667 464.778 1126.89 401.77 1375.15 283.507C1450.89 247.403 1537.44 206.175 1643.38 161.268V161.925C1537.57 206.8 1451.08 247.995 1375.41 284.065C1127.06 402.394 994.765 465.435 675.438 421.809C296.57 370.036 253.196 577.096 179.656 928.306C177.586 938.194 175.483 948.213 173.347 958.298H172.756V958.266Z" fill="#78c5d1"/>
<path d="M165.856 958.265C166.875 951.925 167.893 945.618 168.912 939.376C225.43 588.396 261.28 365.864 679.809 439.45C1024.6 500.06 1144.51 430.81 1359.6 306.535C1436.95 261.858 1526.59 210.085 1643.41 154.665V155.322C1526.76 210.676 1437.18 262.416 1359.9 307.061C1144.67 431.402 1024.7 500.717 679.71 440.042C261.772 366.554 225.989 588.856 169.503 939.475C168.485 945.716 167.499 951.958 166.48 958.265H165.856Z" fill="#78c5d1"/>
<path d="M157.411 958.266L157.805 954.816C167.4 870.028 176.272 791.81 190.533 723.184C235.748 506.039 335.213 385.115 684.048 457.682C1057 535.276 1165.67 458.964 1354.05 326.607C1430.02 273.257 1518.97 210.775 1643.38 145.598V146.288C1519.14 211.366 1430.28 273.783 1354.38 327.1C1165.86 459.555 1057.13 535.901 683.916 458.274C335.575 385.772 236.241 506.532 191.125 723.283C176.831 791.875 167.992 870.093 158.397 954.882L158.003 958.266H157.411Z" fill="#78c5d1"/>
<path d="M147.455 958.265C154.191 856.887 160.927 763.886 179.295 685.8C224.115 495.231 337.907 393.59 688.286 475.915C1090.91 570.558 1188.64 486.591 1353.43 345.036C1426.27 282.455 1512.23 208.606 1643.38 133.969V134.659C1512.43 209.231 1426.57 282.981 1353.82 345.496C1188.9 487.183 1091.08 571.215 688.155 476.506C338.236 394.247 224.608 495.724 179.887 685.931C161.551 763.952 154.782 856.92 148.046 958.265H147.455Z" fill="#78c5d1"/>
<path d="M136.052 958.266C138.352 849.2 142.23 748.906 163.325 667.173C208.671 491.519 333.438 401.54 692.558 494.147C1125.91 605.906 1212.66 513.89 1355.46 362.349C1423.88 289.781 1505.1 203.58 1643.38 119.58V120.303C1505.37 204.237 1424.2 290.307 1355.89 362.809C1212.92 514.515 1126.07 606.629 692.394 494.771C333.734 402.263 209.131 492.045 163.917 667.37C142.854 749.038 138.977 849.266 136.677 958.298H136.052V958.266Z" fill="#78c5d1"/>
<path d="M123.27 958.265C120.773 845.16 121.726 740.661 144.892 657.351C191.092 491.092 325.519 409.326 696.83 512.412C1161.66 641.451 1237.23 540.894 1359.01 378.84C1421.71 295.366 1496.72 195.63 1643.38 102.498V103.22C1497.02 196.222 1422.1 295.858 1359.44 379.234C1237.53 541.485 1161.86 642.173 696.633 513.003C325.782 410.048 191.519 491.585 145.45 657.515C122.317 740.759 121.364 845.225 123.862 958.265H123.27Z" fill="#78c5d1"/>
<path d="M109.108 958.265C101.879 843.189 100.17 736.226 124.847 652.456C172.033 492.472 315.53 417.013 701.036 530.644C1198 677.127 1262.08 567.602 1363.28 394.641C1419.11 299.242 1486.24 184.56 1643.38 82.8529V83.5756C1486.6 185.151 1419.57 299.636 1363.81 394.937C1262.47 568.127 1198.3 677.817 700.871 531.203C315.826 417.736 172.526 492.997 125.439 652.62C100.761 736.324 102.503 843.221 109.699 958.265H109.108Z" fill="#78c5d1"/>
<path d="M93.7295 958.265C82.0645 842.466 77.957 734.288 103.85 650.682C152.088 495.034 304.292 424.667 705.308 548.877C1234.97 712.934 1287.18 594.047 1368.01 409.851C1415.6 301.443 1473.1 170.466 1643.38 61.1713V61.894C1473.49 171.091 1416.06 301.837 1368.57 410.081C1287.61 594.572 1235.33 713.69 705.143 549.435C304.555 425.39 152.548 495.592 104.442 650.879C78.5485 734.386 82.6888 842.499 94.3538 958.265H93.7295Z" fill="#78c5d1"/>
<path d="M77.1684 958.265C61.4616 842.564 55.3169 734.025 82.1301 651.043C131.452 498.451 292.167 432.321 709.579 567.175C1272.49 749.005 1312.32 620.328 1372.88 424.569C1410.73 302.133 1456.77 153.581 1643.38 38.1427V38.8654C1457.19 154.172 1411.22 302.494 1373.44 424.7C1312.75 620.82 1272.85 749.728 709.382 567.7C292.397 433.011 131.912 498.943 82.6887 651.208C55.9084 734.091 62.0531 842.597 77.7598 958.265H77.1684Z" fill="#78c5d1"/>
<path d="M59.4899 958.265C40.1686 843.254 32.3481 734.945 59.8513 652.85C110.29 502.36 279.352 439.91 713.818 585.407C1194.29 746.311 1305.32 687.574 1351.32 550.224C1362.46 516.978 1369.79 479.134 1377.64 438.695C1404.29 301.345 1436.82 133.969 1643.41 14.5558V15.2785C1437.31 134.593 1404.85 301.706 1378.23 438.826C1370.38 479.298 1363.05 517.176 1351.88 550.421C1305.75 688.132 1194.58 747.034 713.621 585.998C279.582 440.633 110.718 502.853 60.4099 653.047C32.9395 735.043 40.7929 843.287 60.0814 958.265H59.4899Z" fill="#78c5d1"/>
<path d="M40.7932 958.265C18.3502 844.305 9.14961 736.751 37.1458 655.741C88.6692 506.663 266.044 447.466 718.057 603.639C1188.44 766.12 1315.57 724.367 1358.03 601.57C1372.52 559.652 1377.15 508.24 1382.21 452.328C1395.68 303.02 1412.08 121.321 1626.52 0.331299L1627.77 0.331299C1412.67 121.19 1396.27 302.987 1382.8 452.361C1377.74 508.339 1373.11 559.75 1358.58 601.767C1316.03 724.925 1188.7 766.876 717.86 604.198C266.274 448.188 89.1292 507.189 37.7044 655.938C9.74107 736.85 18.9417 844.371 41.4175 958.265H40.7932Z" fill="#78c5d1"/>
<path d="M0.408691 718.618C3.13602 697.659 7.60489 677.85 14.1439 659.453C66.7846 511.295 252.341 455.054 722.296 621.872C1191.36 788.393 1329.57 757.809 1369.99 644.046C1386.91 596.346 1386.71 534.028 1386.48 465.468C1385.96 309.886 1385.36 122.241 1584.62 0.331299H1585.81C1385.96 122.077 1386.55 309.82 1387.07 465.468C1387.3 534.094 1387.53 596.478 1370.54 644.243C1330 758.367 1191.63 789.149 722.098 622.463C252.571 455.777 67.2117 511.821 14.7025 659.683C7.70347 679.426 3.03744 700.812 0.408691 723.512L0.408691 718.618ZM21.1758 958.265C11.7452 915.953 4.38467 874.528 0.408691 835.074L0.408691 828.833C4.22038 870.159 11.8437 913.719 21.8001 958.265H21.1758Z" fill="#78c5d1"/>
<path d="M0.408691 641.648C65.5359 511.229 263.678 471.775 726.567 640.104C1198.66 811.783 1345.77 789.674 1384.87 682.219C1403.83 630.15 1397.42 557.976 1390.39 478.083C1376.07 316.423 1359.01 123.194 1543.15 0.331299L1544.3 0.331299C1359.6 123.03 1376.62 316.358 1390.92 478.05C1397.98 558.009 1404.39 630.249 1385.36 682.449C1346.13 790.266 1198.82 812.539 726.304 640.695C262.626 472.038 64.8459 511.985 0.408691 642.995V641.648ZM0.704425 958.265L0.408691 957.116V954.586C0.704425 955.802 1.00016 957.05 1.29589 958.265H0.704425Z" fill="#78c5d1"/>
<path d="M0.408691 611.786C86.2044 511.492 296.57 497.038 730.806 658.369C1208.48 835.83 1363.41 820.718 1401.63 717.928C1422.33 662.245 1408.83 580.775 1393.78 490.271C1365.98 322.698 1333.05 124.179 1502.25 0.331299H1503.3C1333.61 124.015 1366.54 322.599 1394.37 490.172C1409.42 580.775 1422.92 662.311 1402.19 718.158C1363.84 821.277 1208.71 836.586 730.609 658.96C295.88 497.432 85.7444 512.116 0.408691 612.706V611.786Z" fill="#78c5d1"/>
<path d="M0.408691 595.854C101.123 516.847 319.341 519.179 735.045 676.601C1220.05 860.271 1382.14 851.138 1419.7 751.961C1441.98 693.158 1420.52 602.621 1396.67 501.9C1355.63 328.644 1307.45 125.198 1461.93 0.331299H1462.98C1308.05 125.001 1356.19 328.512 1397.26 501.768C1421.15 602.621 1442.64 693.224 1420.29 752.191C1382.57 851.697 1220.28 861.027 734.848 677.16C318.849 519.639 100.761 517.438 0.408691 596.609V595.854Z" fill="#78c5d1"/>
<path d="M0.40918 587.345C112.952 524.896 337.053 539.876 739.317 694.866C1232.86 885.041 1401.7 881.197 1438.83 784.878C1462.58 723.283 1432.48 623.777 1399 513.036C1376.89 439.91 1353.29 361.889 1342.71 286.562C1327.43 177.792 1339.36 74.7059 1422 0.298462H1422.96C1339.99 74.6073 1328.03 177.661 1343.3 286.463C1353.89 361.725 1377.45 439.746 1399.56 512.839C1433.08 623.711 1463.18 723.283 1439.35 785.075C1402.09 881.723 1233.03 885.731 739.054 695.392C336.593 540.336 112.69 525.454 0.40918 588.035V587.345Z" fill="#78c5d1"/>
<path d="M0.408691 582.648C123.204 534.357 352.037 559.882 743.556 713.132C1246.53 909.975 1421.87 910.96 1458.71 816.973C1483.84 752.816 1444.48 644.342 1400.74 523.68C1367.42 431.763 1331.51 332.783 1319.58 240.899C1307.62 148.818 1319.78 63.8979 1382.67 0.331299H1383.56C1320.43 63.7994 1308.24 148.719 1320.17 240.833C1332.07 332.652 1367.98 431.599 1401.3 523.483C1445.1 644.243 1484.47 752.816 1459.26 817.203C1422.33 911.551 1246.76 910.73 743.358 713.69C351.576 560.309 122.875 535.014 0.408691 583.633V582.648Z" fill="#78c5d1"/>
</svg>
