<svg width="1009" height="588" viewBox="0 0 1009 588" fill="none" xmlns="http://www.w3.org/2000/svg">
<path d="M113.642 587.943C207.897 375.863 261.305 280.035 341.125 230.357C405.118 190.518 486.067 180.377 618.649 163.743C716.151 151.505 841.637 135.759 1008.82 102.129V102.512C841.657 136.122 716.191 151.868 618.69 164.106C486.168 180.739 405.239 190.881 341.306 230.68C261.588 280.297 208.2 376.045 114.025 587.943H113.642Z" fill="#78c5d1"/>
<path d="M114.025 587.943C215.417 334.935 260.741 237.797 404.493 213.522C439.655 207.595 475.482 202.474 514.595 196.889C629.315 180.498 772.301 160.054 1008.82 103.258V103.642C772.341 160.437 629.355 180.86 514.636 197.252C475.502 202.837 439.675 207.958 404.553 213.885C261.023 238.119 215.74 335.177 114.428 587.943H114.025Z" fill="#78c5d1"/>
<path d="M113.521 587.943L114.791 584.334C201.042 341.448 239.128 234.107 407.114 224.732C527.176 218.018 627.964 202.897 790.003 162.473C852.343 146.928 923.755 127.634 1008.82 103.621V104.004C923.795 127.997 852.403 147.271 790.104 162.816C628.004 203.26 527.217 218.381 407.134 225.095C239.41 234.47 201.325 341.73 115.154 584.455L113.924 587.943H113.521Z" fill="#78c5d1"/>
<path d="M112.109 587.943C114.045 581.673 115.94 575.504 117.815 569.415C187.252 343.222 221.708 231.043 409.735 235.922C590.201 240.599 696.292 205.74 945.57 123.843C965.691 117.23 986.74 110.315 1008.82 103.097V103.48C986.76 110.698 965.752 117.593 945.671 124.186C696.352 206.103 590.242 240.982 409.715 236.285C221.97 231.406 187.554 343.504 118.158 569.516C116.303 575.584 114.408 581.713 112.493 587.943H112.109Z" fill="#78c5d1"/>
<path d="M109.771 587.943C111.666 580.645 113.521 573.427 115.356 566.33C171.808 347.637 202.534 228.643 412.356 247.111C595.685 263.241 686.211 227.575 868.794 155.658C910.065 139.408 956.034 121.303 1008.82 101.525V101.908C956.074 121.666 910.146 139.751 868.915 156.001C686.271 227.958 595.726 263.624 412.316 247.474C202.817 229.047 172.11 347.919 115.718 566.411C113.904 573.487 112.049 580.645 110.154 587.923H109.771V587.943Z" fill="#78c5d1"/>
<path d="M106.484 587.943C107.795 581.713 109.085 575.544 110.355 569.455C155.517 353.686 182.151 226.506 414.957 258.321C610.786 285.076 691.917 246.406 844.238 173.824C890.71 151.666 943.816 126.364 1008.82 98.8027V99.206C943.896 126.747 890.831 152.029 844.399 174.167C692.018 246.789 610.847 285.479 414.917 258.704C182.453 226.93 155.84 354.008 110.718 569.556C109.448 575.625 108.158 581.774 106.847 587.963H106.484V587.943Z" fill="#78c5d1"/>
<path d="M102.25 587.943C102.875 584.052 103.501 580.181 104.126 576.35C138.803 360.944 160.8 224.369 417.598 269.531C629.154 306.729 702.723 264.229 834.701 187.957C882.162 160.538 937.162 128.763 1008.84 94.7502V95.1535C937.263 129.126 882.303 160.88 834.883 188.28C702.824 264.592 629.214 307.133 417.538 269.894C161.102 224.793 139.146 361.226 104.488 576.411C103.863 580.242 103.259 584.072 102.634 587.943H102.25Z" fill="#78c5d1"/>
<path d="M97.0688 587.943L97.3108 585.826C103.198 533.789 108.642 485.784 117.392 443.667C145.134 310.399 206.163 236.184 420.199 280.721C649.033 328.343 715.707 281.507 831.294 200.276C877.907 167.534 932.485 129.186 1008.82 89.1857V89.609C932.586 129.549 878.069 167.856 831.495 200.578C715.828 281.87 649.114 328.726 420.118 281.084C206.385 236.587 145.437 310.701 117.755 443.727C108.984 485.825 103.561 533.83 97.6737 585.867L97.4318 587.943H97.0688Z" fill="#78c5d1"/>
<path d="M90.96 587.943C95.0931 525.725 99.2262 468.647 110.497 420.723C137.997 303.766 207.817 241.386 422.8 291.91C669.84 349.996 729.8 298.463 830.911 211.587C875.609 173.179 928.352 127.856 1008.82 82.0484V82.4718C928.473 128.239 875.79 173.501 831.153 211.869C729.962 298.826 669.941 350.399 422.719 292.273C208.018 241.789 138.299 304.068 110.859 420.804C99.6093 468.687 95.456 525.745 91.3229 587.943H90.96Z" fill="#78c5d1"/>
<path d="M83.9639 587.943C85.3752 521.007 87.7542 459.453 100.698 409.291C128.521 301.487 205.075 246.265 425.421 303.1C691.312 371.69 744.538 315.217 832.161 222.212C874.137 177.675 923.977 124.771 1008.82 73.2177V73.6612C924.138 125.174 874.339 177.997 832.423 222.494C744.7 315.6 691.413 372.134 425.32 303.483C205.256 246.708 128.803 301.81 101.061 409.412C88.1373 459.534 85.7583 521.047 84.3469 587.963H83.9639V587.943Z" fill="#78c5d1"/>
<path d="M76.1211 587.943C74.5888 518.527 75.1735 454.393 89.3874 403.263C117.735 301.225 200.216 251.043 428.042 314.31C713.248 393.505 759.619 331.79 834.338 232.333C872.807 181.102 918.836 119.892 1008.82 62.7336V63.1772C919.017 120.255 873.049 181.405 834.6 232.575C759.801 332.153 713.369 393.948 427.921 314.673C200.377 251.486 117.997 301.528 89.7302 403.364C75.5364 454.453 74.9517 518.567 76.484 587.943H76.1211Z" fill="#78c5d1"/>
<path d="M67.4314 587.943C62.9958 517.317 61.9475 451.671 77.0888 400.259C106.041 302.072 194.087 255.761 430.622 325.5C735.546 415.4 774.862 348.182 836.959 242.031C871.214 183.481 912.404 113.097 1008.82 50.677V51.1205C912.626 113.46 871.496 183.723 837.282 242.212C775.104 348.504 735.728 415.824 430.522 325.842C194.268 256.204 106.343 302.395 77.4517 400.36C62.3104 451.732 63.3789 517.337 67.7943 587.943H67.4314Z" fill="#78c5d1"/>
<path d="M57.9958 587.943C50.8384 516.874 48.3182 450.482 64.2055 399.17C93.8028 303.645 187.191 260.458 433.243 336.689C758.228 437.376 790.265 364.412 839.863 251.366C869.057 184.832 904.339 104.448 1008.82 37.3703V37.8139C904.581 104.831 869.339 185.074 840.205 251.507C790.527 364.734 758.45 437.84 433.143 337.032C187.353 260.902 94.085 303.987 64.5684 399.291C48.6811 450.542 51.2215 516.894 58.3788 587.943H57.9958Z" fill="#78c5d1"/>
<path d="M47.8344 587.943C38.1971 516.934 34.4269 450.32 50.8788 399.392C81.1414 305.741 179.752 265.156 435.864 347.919C781.253 459.514 805.689 380.541 842.846 260.398C866.073 185.256 894.319 94.0849 1008.82 23.237V23.6806C894.581 94.4478 866.375 185.477 843.189 260.479C805.951 380.843 781.475 459.957 435.744 348.242C179.893 265.579 81.4236 306.044 51.2215 399.493C34.7898 450.36 38.5601 516.954 48.1973 587.943H47.8344Z" fill="#78c5d1"/>
<path d="M36.9874 587.943C25.1324 517.357 20.3339 450.885 37.2092 400.501C68.1572 308.141 171.889 269.813 438.465 359.109C733.268 457.861 801.394 421.812 829.62 337.516C836.455 317.112 840.951 293.886 845.77 269.067C862.121 184.772 882.081 82.0484 1008.84 8.76103V9.20459C882.383 82.4315 862.464 184.994 846.133 269.148C841.314 293.987 836.818 317.233 829.963 337.637C801.656 422.154 733.45 458.304 438.344 359.472C172.03 270.257 68.4193 308.443 37.5519 400.622C20.6968 450.945 25.5154 517.378 37.3503 587.943H36.9874Z" fill="#78c5d1"/>
<path d="M25.5154 587.943C11.7451 518.003 6.09981 451.994 23.2775 402.275C54.8909 310.782 163.723 274.451 441.066 370.299C729.679 470.018 807.685 444.393 833.733 369.029C842.625 343.302 845.468 311.75 848.572 277.434C856.839 185.8 866.899 74.2862 998.474 0.0310669H999.24C867.262 74.2056 857.202 185.78 848.935 277.455C845.83 311.81 842.988 343.363 834.076 369.15C807.967 444.735 729.841 470.482 440.945 370.642C163.864 274.894 55.1731 311.104 23.6202 402.396C6.46272 452.054 12.108 518.043 25.8985 587.943H25.5154Z" fill="#78c5d1"/>
<path d="M0.736816 440.864C2.41023 428.001 5.15221 415.844 9.16436 404.553C41.4632 313.625 155.316 279.108 443.667 381.488C731.474 483.688 816.273 464.917 841.072 395.098C851.455 365.823 851.335 327.576 851.193 285.499C850.871 190.014 850.508 74.8508 972.768 0.0310669H973.494C850.871 74.7499 851.234 189.973 851.556 285.499C851.697 327.617 851.839 365.904 841.415 395.219C816.536 465.26 731.635 484.151 443.546 381.851C155.457 279.551 41.7253 313.947 9.50711 404.694C5.21269 416.812 2.34974 429.937 0.736816 443.868V440.864ZM13.4789 587.943C7.69257 561.975 3.17637 536.551 0.736816 512.337V508.507C3.07556 533.87 7.75305 560.604 13.862 587.943H13.4789Z" fill="#78c5d1"/>
<path d="M0.736816 393.626C40.6971 313.584 162.272 289.37 446.288 392.678C735.95 498.043 826.213 484.474 850.205 418.525C861.839 386.569 857.907 342.274 853.593 293.241C844.802 194.026 834.338 75.4354 947.324 0.0310669H948.029C834.701 75.3346 845.145 193.986 853.915 293.221C858.25 342.294 862.181 386.63 850.508 418.666C826.435 484.837 736.05 498.506 446.127 393.041C161.626 289.531 40.2737 314.048 0.736816 394.452V393.626ZM0.918271 587.943L0.736816 587.238V585.685C0.918271 586.431 1.09973 587.197 1.28118 587.943H0.918271Z" fill="#78c5d1"/>
<path d="M0.736816 375.299C53.3787 313.746 182.453 304.874 448.889 403.888C741.978 512.801 837.04 503.527 860.488 440.441C873.19 406.267 864.903 356.266 855.669 300.721C838.612 197.877 818.411 76.0403 922.223 0.0310669H922.868C818.753 75.9395 838.955 197.816 856.032 300.661C865.266 356.266 873.553 406.307 860.831 440.582C837.302 503.869 742.119 513.265 448.768 404.251C182.03 305.116 53.0965 314.129 0.736816 375.863V375.299Z" fill="#78c5d1"/>
<path d="M0.736816 365.521C62.5321 317.032 196.425 318.463 451.49 415.078C749.075 527.801 848.532 522.196 871.577 461.328C885.246 425.239 872.081 369.674 857.444 307.858C832.262 201.526 802.705 76.6653 897.484 0.0310669H898.13C803.068 76.5443 832.604 201.445 857.806 307.778C872.464 369.674 885.65 425.279 871.94 461.47C848.794 522.539 749.216 528.265 451.369 415.42C196.123 318.746 62.3103 317.395 0.736816 365.984V365.521Z" fill="#78c5d1"/>
<path d="M0.736816 360.299C69.7903 321.971 207.292 331.165 454.111 426.288C756.938 543.003 860.528 540.644 883.311 481.53C897.888 443.727 879.42 382.658 858.875 314.693C845.306 269.813 830.83 221.93 824.338 175.699C814.963 108.944 822.282 45.6769 872.988 0.0108948H873.573C822.665 45.6164 815.326 108.863 824.701 175.639C831.193 221.829 845.649 269.713 859.218 314.572C879.782 382.618 898.251 443.727 883.633 481.651C860.77 540.967 757.039 543.426 453.949 426.61C207.01 331.447 69.629 322.314 0.736816 360.722V360.299Z" fill="#78c5d1"/>
<path d="M0.736816 357.416C76.0807 327.778 216.486 343.444 456.712 437.497C765.325 558.306 872.907 558.911 895.509 501.228C910.932 461.853 886.779 395.279 859.943 321.225C839.5 264.813 817.463 204.066 810.144 147.674C802.806 91.1615 810.265 39.0438 848.855 0.0310669H849.399C810.668 38.9833 803.189 91.101 810.507 147.634C817.806 203.986 839.842 264.713 860.286 321.105C887.162 395.219 911.315 461.853 895.851 501.369C873.19 559.274 765.466 558.769 456.591 437.84C216.204 343.706 75.8791 328.181 0.736816 358.02V357.416Z" fill="#78c5d1"/>
</svg>
