<svg xmlns="http://www.w3.org/2000/svg" width="328" height="100.515" viewBox="0 0 328 100.515">
  <g id="Group_27" data-name="Group 27" transform="translate(-359.553 -484.703)">
    <g id="Group_25" data-name="Group 25" transform="translate(359.553 529.328)">
      <path id="Path_83" data-name="Path 83" d="M366.547,539.406v5.808h9.366v5.4h-9.366v6.3h10.593v5.6H359.553V533.8h17.586v5.6Z" transform="translate(-359.553 -533.803)" fill="#fe5c36"/>
      <path id="Path_84" data-name="Path 84" d="M418.435,542.59a9.813,9.813,0,0,1,2.516,7.157V563.08H414V550.688a4.71,4.71,0,0,0-1.165-3.415,4.872,4.872,0,0,0-6.42,0,4.71,4.71,0,0,0-1.166,3.415V563.08h-6.953V550.688a4.718,4.718,0,0,0-1.165-3.415,4.875,4.875,0,0,0-6.422,0,4.718,4.718,0,0,0-1.165,3.415V563.08h-6.994V540.258h6.994v2.863a7.478,7.478,0,0,1,2.781-2.269,8.741,8.741,0,0,1,3.885-.839,9.455,9.455,0,0,1,4.6,1.1,7.915,7.915,0,0,1,3.169,3.149,9.209,9.209,0,0,1,3.231-3.067,8.727,8.727,0,0,1,4.458-1.186A9.024,9.024,0,0,1,418.435,542.59Z" transform="translate(-361.649 -534.369)" fill="#fe5c36"/>
      <path id="Path_85" data-name="Path 85" d="M450.1,553.338H434.275a4.753,4.753,0,0,0,1.37,3.252,4.183,4.183,0,0,0,2.965,1.124,3.675,3.675,0,0,0,3.64-2.208h7.444a10.226,10.226,0,0,1-2.066,4.049,10.344,10.344,0,0,1-3.742,2.822,12.023,12.023,0,0,1-5.031,1.022,12.234,12.234,0,0,1-5.972-1.431,10.182,10.182,0,0,1-4.09-4.09,12.624,12.624,0,0,1-1.472-6.217,12.772,12.772,0,0,1,1.452-6.217,10.048,10.048,0,0,1,4.069-4.09,13.254,13.254,0,0,1,11.9-.041,9.986,9.986,0,0,1,4.029,3.967,12.051,12.051,0,0,1,1.451,6.012A17.834,17.834,0,0,1,450.1,553.338Zm-7.035-3.885a3.6,3.6,0,0,0-1.226-2.863,4.524,4.524,0,0,0-3.067-1.063,4.429,4.429,0,0,0-2.966,1.022,4.532,4.532,0,0,0-1.492,2.9Z" transform="translate(-365.73 -534.361)" fill="#fe5c36"/>
      <path id="Path_86" data-name="Path 86" d="M465.283,541.1a7.91,7.91,0,0,1,4.09-1.084v7.4h-1.922a5.9,5.9,0,0,0-3.927,1.125q-1.309,1.125-1.308,3.946V563.08h-6.994V540.258h6.994v3.8A9.208,9.208,0,0,1,465.283,541.1Z" transform="translate(-368.273 -534.369)" fill="#fe5c36"/>
      <path id="Path_87" data-name="Path 87" d="M485.895,540.9a7.239,7.239,0,0,1,2.8,2.577V540.25h6.993v22.78a12.837,12.837,0,0,1-1.247,5.706,9.511,9.511,0,0,1-3.8,4.069,12.311,12.311,0,0,1-6.359,1.513,13.226,13.226,0,0,1-8.221-2.393,9.028,9.028,0,0,1-3.6-6.482h6.911a3.319,3.319,0,0,0,1.554,2.066,5.667,5.667,0,0,0,3.027.756,4.758,4.758,0,0,0,3.456-1.248,5.351,5.351,0,0,0,1.289-3.987V559.8a7.756,7.756,0,0,1-2.822,2.6,8.515,8.515,0,0,1-4.213,1,9.35,9.35,0,0,1-5.112-1.451,10.025,10.025,0,0,1-3.62-4.132,15.062,15.062,0,0,1,0-12.371,9.909,9.909,0,0,1,3.62-4.09,9.45,9.45,0,0,1,5.112-1.431A8.783,8.783,0,0,1,485.895,540.9Zm1.35,6.626a4.914,4.914,0,0,0-7.075-.02,5.645,5.645,0,0,0-1.451,4.11,5.79,5.79,0,0,0,1.451,4.151,4.869,4.869,0,0,0,7.075.021,6.6,6.6,0,0,0,0-8.261Z" transform="translate(-369.766 -534.361)" fill="#fe5c36"/>
      <path id="Path_88" data-name="Path 88" d="M523.586,553.338H507.759a4.749,4.749,0,0,0,1.371,3.252,4.183,4.183,0,0,0,2.965,1.124,3.674,3.674,0,0,0,3.639-2.208h7.444a10.281,10.281,0,0,1-5.808,6.871,12.02,12.02,0,0,1-5.031,1.022,12.23,12.23,0,0,1-5.971-1.431,10.182,10.182,0,0,1-4.09-4.09,12.624,12.624,0,0,1-1.472-6.217,12.772,12.772,0,0,1,1.451-6.217,10.05,10.05,0,0,1,4.07-4.09,13.254,13.254,0,0,1,11.9-.041,9.984,9.984,0,0,1,4.028,3.967,12.041,12.041,0,0,1,1.452,6.012A17.841,17.841,0,0,1,523.586,553.338Zm-7.034-3.885a3.6,3.6,0,0,0-1.227-2.863,4.521,4.521,0,0,0-3.067-1.063,4.425,4.425,0,0,0-2.965,1.022,4.533,4.533,0,0,0-1.493,2.9Z" transform="translate(-372.428 -534.361)" fill="#fe5c36"/>
      <path id="Path_89" data-name="Path 89" d="M549.011,542.61a10.128,10.128,0,0,1,2.392,7.136V563.08h-6.953V550.688a5.008,5.008,0,0,0-1.186-3.558,4.647,4.647,0,0,0-6.38,0,5.008,5.008,0,0,0-1.186,3.558V563.08h-6.994V540.258H535.7v3.026a7.371,7.371,0,0,1,2.863-2.392,9.1,9.1,0,0,1,4.049-.88A8.285,8.285,0,0,1,549.011,542.61Z" transform="translate(-374.971 -534.369)" fill="#fe5c36"/>
      <path id="Path_90" data-name="Path 90" d="M557.607,545.444a10.079,10.079,0,0,1,4.049-4.09,12.121,12.121,0,0,1,5.951-1.431,11.32,11.32,0,0,1,7.177,2.249,10.615,10.615,0,0,1,3.783,6.339h-7.443a3.584,3.584,0,0,0-3.641-2.617,3.669,3.669,0,0,0-3.067,1.493,8.548,8.548,0,0,0,0,8.548,3.668,3.668,0,0,0,3.067,1.492,3.583,3.583,0,0,0,3.641-2.617h7.443a10.71,10.71,0,0,1-3.8,6.3,11.2,11.2,0,0,1-7.157,2.29,12.11,12.11,0,0,1-5.951-1.431,10.079,10.079,0,0,1-4.049-4.09,14.031,14.031,0,0,1,0-12.433Z" transform="translate(-377.472 -534.361)" fill="#fe5c36"/>
      <path id="Path_91" data-name="Path 91" d="M606.615,540.283,592.3,573.942h-7.525l5.234-11.615-9.283-22.044h7.811l5.277,14.273,5.235-14.273Z" transform="translate(-379.712 -534.394)" fill="#fe5c36"/>
      <path id="Path_92" data-name="Path 92" d="M625.833,557.115h9.161v5.4H618.839V533.8h6.994Z" transform="translate(-383.186 -533.803)" fill="#53afbe"/>
      <path id="Path_93" data-name="Path 93" d="M643.17,561.967a10.481,10.481,0,0,1-4.213-4.09,13.247,13.247,0,0,1,.021-12.412,10.541,10.541,0,0,1,4.253-4.111,13.513,13.513,0,0,1,12.106,0,10.547,10.547,0,0,1,4.253,4.111,13.055,13.055,0,0,1-.02,12.392,10.642,10.642,0,0,1-4.3,4.11A12.824,12.824,0,0,1,649.2,563.4,12.587,12.587,0,0,1,643.17,561.967Zm9.448-6.094a5.849,5.849,0,0,0,1.41-4.213,5.964,5.964,0,0,0-1.37-4.213,4.648,4.648,0,0,0-6.769-.02,6,6,0,0,0-1.35,4.232,6.072,6.072,0,0,0,1.33,4.213,4.3,4.3,0,0,0,3.333,1.472A4.559,4.559,0,0,0,652.618,555.873Z" transform="translate(-384.88 -534.361)" fill="#53afbe"/>
      <path id="Path_94" data-name="Path 94" d="M666.068,545.444a9.909,9.909,0,0,1,3.62-4.09,9.445,9.445,0,0,1,5.112-1.431,8.783,8.783,0,0,1,4.232.982,7.239,7.239,0,0,1,2.8,2.577V540.25h6.993v22.821h-6.993v-3.231a7.561,7.561,0,0,1-2.843,2.577,8.783,8.783,0,0,1-4.233.982,9.274,9.274,0,0,1-5.071-1.451,10.025,10.025,0,0,1-3.62-4.132,15.053,15.053,0,0,1,0-12.371Zm14.314,2.086a4.914,4.914,0,0,0-7.075-.02,5.646,5.646,0,0,0-1.452,4.11,5.791,5.791,0,0,0,1.452,4.151,4.869,4.869,0,0,0,7.075.021,6.6,6.6,0,0,0,0-8.261Z" transform="translate(-387.369 -534.361)" fill="#53afbe"/>
      <path id="Path_95" data-name="Path 95" d="M715.779,542.61a10.129,10.129,0,0,1,2.392,7.136V563.08h-6.952V550.688a5.009,5.009,0,0,0-1.187-3.558,4.646,4.646,0,0,0-6.379,0,5.008,5.008,0,0,0-1.186,3.558V563.08h-6.994V540.258h6.994v3.026a7.367,7.367,0,0,1,2.862-2.392,9.1,9.1,0,0,1,4.049-.88A8.282,8.282,0,0,1,715.779,542.61Z" transform="translate(-390.171 -534.369)" fill="#53afbe"/>
    </g>
    <g id="Group_26" data-name="Group 26" transform="translate(595.701 564.332)">
      <path id="Path_96" data-name="Path 96" d="M629.341,578.949a4.057,4.057,0,0,1-1.729,1.652,6.415,6.415,0,0,1-3.045.637h-2.721v6.09h-2.463V572.318h5.184a6.541,6.541,0,0,1,2.927.594,4.131,4.131,0,0,1,1.792,1.609,4.412,4.412,0,0,1,.594,2.268A4.546,4.546,0,0,1,629.341,578.949Zm-2.678-.357a2.331,2.331,0,0,0,.692-1.8q0-2.462-2.786-2.462h-2.721v4.9h2.721A3,3,0,0,0,626.663,578.592Z" transform="translate(-619.384 -572.318)" fill="#ffb349"/>
      <path id="Path_97" data-name="Path 97" d="M637.422,576.034a4.247,4.247,0,0,1,2.127-.508v2.548h-.626a3,3,0,0,0-2.191.735,3.508,3.508,0,0,0-.746,2.548v6.263h-2.462v-11.9h2.462v1.728A3.87,3.87,0,0,1,637.422,576.034Z" transform="translate(-620.673 -572.61)" fill="#ffb349"/>
      <path id="Path_98" data-name="Path 98" d="M644.685,587.048a5.5,5.5,0,0,1-2.138-2.159,6.509,6.509,0,0,1-.777-3.229,6.383,6.383,0,0,1,.8-3.218,5.525,5.525,0,0,1,2.181-2.159,6.687,6.687,0,0,1,6.177,0,5.537,5.537,0,0,1,2.181,2.159,6.4,6.4,0,0,1,.8,3.218,6.258,6.258,0,0,1-.821,3.218,5.682,5.682,0,0,1-2.236,2.17,6.437,6.437,0,0,1-3.121.767A6.088,6.088,0,0,1,644.685,587.048Zm4.828-1.825a3.458,3.458,0,0,0,1.35-1.361,4.377,4.377,0,0,0,.518-2.2,4.472,4.472,0,0,0-.5-2.192,3.356,3.356,0,0,0-1.318-1.35,3.6,3.6,0,0,0-1.77-.453,3.54,3.54,0,0,0-1.76.453,3.233,3.233,0,0,0-1.285,1.35,4.63,4.63,0,0,0-.475,2.192,4.18,4.18,0,0,0,.982,2.97,3.249,3.249,0,0,0,2.473,1.047A3.665,3.665,0,0,0,649.513,585.223Z" transform="translate(-621.424 -572.61)" fill="#ffb349"/>
      <path id="Path_99" data-name="Path 99" d="M664.973,576.077a4.706,4.706,0,0,1,1.674,1.371V575.72h2.483v12.1a6.08,6.08,0,0,1-.691,2.927,4.983,4.983,0,0,1-2,2.019,6.268,6.268,0,0,1-3.121.735,6.772,6.772,0,0,1-4.017-1.134,4.183,4.183,0,0,1-1.814-3.077h2.44a2.651,2.651,0,0,0,1.2,1.5,4.057,4.057,0,0,0,2.192.573,3.278,3.278,0,0,0,2.409-.907,3.545,3.545,0,0,0,.918-2.635v-1.988a5.02,5.02,0,0,1-1.7,1.415,5.074,5.074,0,0,1-2.429.573,5.326,5.326,0,0,1-2.84-.788,5.574,5.574,0,0,1-2.03-2.2,6.783,6.783,0,0,1-.744-3.207,6.6,6.6,0,0,1,.744-3.176,5.431,5.431,0,0,1,4.871-2.916A5.275,5.275,0,0,1,664.973,576.077Zm1.166,3.445a3.56,3.56,0,0,0-1.328-1.382,3.472,3.472,0,0,0-1.771-.475,3.538,3.538,0,0,0-1.771.464,3.5,3.5,0,0,0-1.328,1.361,4.254,4.254,0,0,0-.508,2.128,4.435,4.435,0,0,0,.508,2.159,3.584,3.584,0,0,0,1.339,1.415,3.486,3.486,0,0,0,3.532.01,3.545,3.545,0,0,0,1.328-1.392,4.376,4.376,0,0,0,.508-2.149A4.31,4.31,0,0,0,666.139,579.522Z" transform="translate(-622.804 -572.61)" fill="#ffb349"/>
      <path id="Path_100" data-name="Path 100" d="M677.82,576.034a4.248,4.248,0,0,1,2.127-.508v2.548h-.626a3,3,0,0,0-2.191.735,3.508,3.508,0,0,0-.746,2.548v6.263h-2.462v-11.9h2.462v1.728A3.877,3.877,0,0,1,677.82,576.034Z" transform="translate(-624.355 -572.61)" fill="#ffb349"/>
      <path id="Path_101" data-name="Path 101" d="M682.888,578.442a5.431,5.431,0,0,1,4.87-2.916,5.193,5.193,0,0,1,2.451.551,4.975,4.975,0,0,1,1.674,1.371V575.72h2.484v11.9h-2.484V585.85a4.886,4.886,0,0,1-1.706,1.4,5.524,5.524,0,0,1-5.27-.226,5.6,5.6,0,0,1-2.019-2.2,6.774,6.774,0,0,1-.746-3.207A6.587,6.587,0,0,1,682.888,578.442Zm8.488,1.081a3.555,3.555,0,0,0-1.329-1.382,3.467,3.467,0,0,0-1.77-.475,3.494,3.494,0,0,0-3.1,1.825,4.253,4.253,0,0,0-.507,2.128,4.434,4.434,0,0,0,.507,2.159,3.586,3.586,0,0,0,1.34,1.415,3.484,3.484,0,0,0,3.531.01,3.541,3.541,0,0,0,1.329-1.392,4.375,4.375,0,0,0,.507-2.149A4.309,4.309,0,0,0,691.376,579.522Z" transform="translate(-625.104 -572.61)" fill="#ffb349"/>
      <path id="Path_102" data-name="Path 102" d="M716.079,576.109a4.21,4.21,0,0,1,1.75,1.728,5.61,5.61,0,0,1,.637,2.765v7.019h-2.44v-6.652a3.449,3.449,0,0,0-.8-2.451,2.843,2.843,0,0,0-2.181-.853,2.876,2.876,0,0,0-2.191.853,3.42,3.42,0,0,0-.81,2.451v6.652H707.6v-6.652a3.453,3.453,0,0,0-.8-2.451,2.843,2.843,0,0,0-2.181-.853,2.876,2.876,0,0,0-2.192.853,3.424,3.424,0,0,0-.811,2.451v6.652h-2.462v-11.9h2.462v1.361a4.1,4.1,0,0,1,1.534-1.144,4.857,4.857,0,0,1,1.987-.411,5.284,5.284,0,0,1,2.548.605,4.128,4.128,0,0,1,1.728,1.749,3.993,3.993,0,0,1,1.685-1.717,4.984,4.984,0,0,1,2.462-.637A5.331,5.331,0,0,1,716.079,576.109Z" transform="translate(-626.655 -572.61)" fill="#ffb349"/>
    </g>
    <path id="Path_103" data-name="Path 103" d="M613.569,497.89,596.06,484.881a.911.911,0,0,0-1.271.187l-3.693,4.971a.884.884,0,0,0-.175.188,1.158,1.158,0,0,0-.045.108L574.853,511.9a.852.852,0,0,0-.193.211c-.011.027-.019.056-.028.085l-3.692,4.971a.91.91,0,0,0,.187,1.271l17.509,13.008.068.05a.9.9,0,0,0,1.2-.238l23.848-32.1A.91.91,0,0,0,613.569,497.89Zm-24.578,31.558-16.05-11.924,2.71-3.648L591.7,525.8Zm3.794-5.107-16.049-11.924,15.176-20.427,16.05,11.924Zm16.261-21.886L593,490.53l2.71-3.647,16.05,11.924Z" transform="translate(-19.251 0)" fill="#53afbe"/>
    <path id="Path_104" data-name="Path 104" d="M624.176,513.279l-3.647-2.71a.909.909,0,1,0-1.084,1.46l2.234,1.66a26.828,26.828,0,0,0-2.994,1.172l-1.824-1.355a.905.905,0,0,0-.732-.164.908.908,0,0,0-.353,1.623l1.094.813c-.68.362-1.406.773-2.209,1.26-5.25,3.185-12.3,8.84-19.649,18.732l-.051.068-.051.068-.051.068a.918.918,0,1,0,1.611.879c7.214-9.708,14.1-15.188,19.151-18.253a29.092,29.092,0,0,1,8.2-3.706.909.909,0,0,0,.351-1.615Z" transform="translate(-21.437 -2.341)" fill="#53afbe"/>
    <path id="Path_105" data-name="Path 105" d="M613.136,513.43a40.353,40.353,0,0,1,7.224-5.247.909.909,0,0,0,.118-1.541L616.1,503.39a.909.909,0,1,0-1.084,1.46l3.283,2.438a33.494,33.494,0,0,0-3.171,2.173l-2.279-1.693a.909.909,0,0,0-1.345.238,1.081,1.081,0,0,0-.045.108.912.912,0,0,0,.306,1.112l1.892,1.406c-.534.434-1.064.885-1.7,1.428-4.732,4.06-11.434,10.771-19.352,21.429l-.051.068-.051.068a.913.913,0,1,0,1.561.947C601.911,524.015,608.509,517.4,613.136,513.43Z" transform="translate(-21.221 -1.686)" fill="#ffb448"/>
    <path id="Path_106" data-name="Path 106" d="M595.424,515.877a7.943,7.943,0,0,1-7.316-5.537,4.623,4.623,0,0,1,4.575-6.127,7.688,7.688,0,0,1,4.6,1.576c2.938,2.194,3.9,5.889,2.152,8.235a4.818,4.818,0,0,1-3.91,1.852ZM592.782,505.8h-.075a3.042,3.042,0,0,0-3.068,4.109,6.005,6.005,0,0,0,2.237,3.115,5.941,5.941,0,0,0,3.623,1.259,3.264,3.264,0,0,0,2.659-1.213c1.228-1.644.407-4.34-1.829-6.009A6.019,6.019,0,0,0,592.782,505.8Z" transform="translate(-20.812 -1.778)" fill="#ffb448"/>
  </g>
</svg>
