<svg xmlns="http://www.w3.org/2000/svg" width="50" height="30.001" viewBox="0 0 50 30.001">
  <path id="Subtraction_3" data-name="Subtraction 3" d="M-1299-661h-22a1,1,0,0,1-.835-.45,1,1,0,0,1-.085-.945l2.215-5.166.617-1.439-2.832-6.606a1.009,1.009,0,0,1,0-.788l2.832-6.606-.617-1.439-2.215-5.166a1,1,0,0,1,.085-.945A1,1,0,0,1-1321-691h22a1,1,0,0,1,1,1v28A1,1,0,0,1-1299-661Zm-10-2h9v-26h-19.483l1.5,3.512a10.652,10.652,0,0,1,3.614,3.955A11.777,11.777,0,0,1-1313-676a11.772,11.772,0,0,1-1.364,5.534,10.64,10.64,0,0,1-3.614,3.954l-1.5,3.512Zm-8.262-19.182h0l-2.65,6.182,2.651,6.181A9.535,9.535,0,0,0-1315-676a9.532,9.532,0,0,0-2.262-6.182ZM-1327-661h-20a1,1,0,0,1-1-1v-28a1,1,0,0,1,1-1h20a1,1,0,0,1,.92.606l1.841,4.3,1.158,2.7a1,1,0,0,1,0,.788l-2.832,6.606,2.832,6.605a1,1,0,0,1,0,.789l-1.158,2.7-1.841,4.3A1,1,0,0,1-1327-661Zm-19-5.014h0V-663h18.34l1.162-2.711,1.41-3.289-.006-.014.026-.06-.724-1.567-2.128-4.964a1.008,1.008,0,0,1,0-.788l2.832-6.606-.006-.014.026-.06-1.991-4.522-.6-1.4h-.016l-.016-.034-.045.034H-1346v5.648c0,.016,0,.032,0,.05V-668.7c0,.017,0,.034,0,.05v2.633Z" transform="translate(1348 691)" fill="#fff"/>
</svg>
