<svg width="24" height="24" viewBox="0 0 24 24" fill="none" xmlns="http://www.w3.org/2000/svg">
<path d="M7.55056 0.799988H3.9998C2.23249 0.799988 0.799805 2.23268 0.799805 3.99999V7.19999C0.799805 16.0365 7.96325 23.2 16.7998 23.2H19.9998C21.7671 23.2 23.1998 21.7673 23.1998 20V17.7888C23.1998 17.1828 22.8574 16.6288 22.3153 16.3578L18.4499 14.425C17.579 13.9896 16.5243 14.4264 16.2164 15.3501L15.74 16.7794C15.4314 17.7052 14.4817 18.2564 13.5247 18.065C9.69467 17.299 6.70083 14.3051 5.93482 10.4751C5.74343 9.51811 6.29456 8.5684 7.22038 8.2598L8.99419 7.66853C9.78734 7.40414 10.2432 6.57367 10.0405 5.76258L9.10279 2.01193C8.92472 1.29966 8.28475 0.799988 7.55056 0.799988Z" stroke="#53AFBE" stroke-width="1.5"/>
</svg>
