<svg width="48" height="48" viewBox="0 0 48 48" fill="none" xmlns="http://www.w3.org/2000/svg">
<g clip-path="url(#clip0_70_4071)">
<mask id="mask0_70_4071" style="mask-type:luminance" maskUnits="userSpaceOnUse" x="0" y="0" width="48" height="48">
<path d="M0 3.8147e-06H48V48H0V3.8147e-06Z" fill="white"/>
</mask>
<g mask="url(#mask0_70_4071)">
<path d="M38.0625 24C38.0625 31.7665 31.7665 38.0625 24 38.0625C16.2335 38.0625 9.9375 31.7665 9.9375 24C9.9375 16.2335 16.2335 9.9375 24 9.9375C31.7665 9.9375 38.0625 16.2335 38.0625 24Z" stroke="#fff" stroke-width="2" stroke-miterlimit="10" stroke-linecap="round" stroke-linejoin="round"/>
<path d="M31.0312 19.7812L22.5938 28.2188L16.9688 22.5938" stroke="#fff" stroke-width="2" stroke-miterlimit="10" stroke-linecap="round" stroke-linejoin="round"/>
<path d="M22.1762 2.07774C23.2273 1.18243 24.7727 1.18243 25.8238 2.07774L29.4785 5.30321L35.6631 4.82461C37.0397 4.71811 38.29 5.62646 38.614 6.96858L39.854 12.1038L45.2576 15.3384C46.4339 16.0614 46.9115 17.5312 46.3848 18.8074L44.25 23.9803L46.3848 29.1531C46.9115 30.4294 46.4339 31.8992 45.2576 32.6222L39.854 35.8568L38.614 40.992C38.29 42.3341 37.0397 43.2425 35.6631 43.136L29.5389 42.662L25.8238 45.9223C24.7727 46.8176 23.2273 46.8176 22.1762 45.9223L18.4611 42.662L12.3369 43.136C10.9603 43.2425 9.70997 42.3341 9.38597 40.992L8.14106 35.8365L2.7465 32.6222C1.57012 31.8992 1.09256 30.4294 1.61934 29.1531L3.75403 23.9803L1.61934 18.8074C1.09256 17.5312 1.57012 16.0614 2.7465 15.3384L7.67869 12.4082L9.38597 6.96858C9.70997 5.62646 10.9603 4.71811 12.3369 4.82461L18.5216 5.30321L22.1762 2.07774Z" stroke="#fff" stroke-width="2" stroke-miterlimit="10" stroke-linecap="round" stroke-linejoin="round"/>
</g>
</g>
<defs>
<clipPath id="clip0_70_4071">
<rect width="48" height="48" fill="white"/>
</clipPath>
</defs>
</svg>
