<svg width="487" height="524" viewBox="0 0 487 524" fill="none" xmlns="http://www.w3.org/2000/svg">
<g opacity="0.1">
<path d="M9.8465 174.428L4.01898 170.911L1.00475 169.103C0.66983 168.902 0.334915 168.667 0 168.399V170.409C0.066983 170.476 0.133967 170.509 0.20095 170.509L3.21519 172.217L9.14318 175.634L20.9992 182.466L32.8552 189.298C36.8742 191.408 40.7927 193.92 44.9121 195.829C37.0751 191.207 29.3386 186.284 21.5016 181.562L9.8465 174.428Z" fill="#53AFBE"/>
<path d="M44.8116 140.769C44.1083 139.563 42.9026 138.759 41.8979 138.257L38.9841 136.448L33.1566 132.932L21.4011 125.899L9.64555 118.865L3.71756 115.449L0.803796 113.641L0 113.239V115.65L2.61234 117.258L8.54033 120.774L20.3963 127.607L32.1518 134.539L38.0798 138.056L41.0941 139.764C42.0988 140.266 42.9026 140.869 43.3045 141.573C43.8069 142.376 43.9074 143.381 43.9074 144.486V147.902L44.0078 154.735L44.3093 168.5C44.5102 177.542 44.9121 186.686 44.9121 195.829C45.314 191.307 45.1131 186.686 45.2135 182.164L45.4145 168.399V154.735L45.515 147.902V144.486C45.515 143.381 45.515 141.974 44.8116 140.769Z" fill="#53AFBE"/>
<path d="M3.11471 221.651L0.20095 223.359C0.133967 223.359 0.066983 223.392 0 223.459V224.765C0.200949 224.565 0.43539 224.397 0.703322 224.263L3.61708 222.455L9.44461 218.938L21.0996 211.804L32.8552 204.872L38.6827 201.355C39.6205 200.819 40.5247 200.283 41.3955 199.747C34.5632 203.565 27.731 207.584 20.8987 211.503L3.11471 221.651Z" fill="#53AFBE"/>
<path d="M44.8116 240.54V227.177L44.9121 200.451L44.5102 227.177L44.1083 240.54L44.0078 247.171L43.9074 250.587C43.9074 251.592 43.6059 252.496 42.8021 253.099L19.5925 266.261L2.21044 276.409L0 277.715V280.127L0.401899 279.825L3.31566 278.117L9.04271 274.701L20.4968 267.869L43.405 253.903C44.5102 253.2 44.9121 251.693 44.8116 250.587V247.171V240.54Z" fill="#53AFBE"/>
<path d="M44.4097 196.432C42.6012 195.125 40.5917 194.221 38.6827 193.116L32.9556 190.001L21.5016 183.671L0 171.614L21.3006 183.872L32.6542 190.504L38.2808 193.819C39.9889 194.824 41.6969 195.829 43.3045 196.934L42.5007 197.537C42.0988 197.838 41.5965 198.039 41.0941 198.341L38.0798 199.948L32.0514 203.264L19.9944 209.795L8.03796 216.426L2.00949 219.742L0 220.947V223.359C0 223.359 0.0334919 223.325 0.100475 223.258L3.01424 221.651L8.94223 218.235L20.8987 211.402L32.7547 204.47L38.6827 201.053L41.5965 199.345C42.0988 199.044 42.6012 198.743 43.1036 198.341L44.4097 197.235L45.0126 196.833L44.4097 196.432Z" fill="#53AFBE"/>
<path d="M44.0078 366.033L41.1946 364.325L38.3813 362.817L32.6542 359.703L21.3006 353.473L0 341.517L21.2001 353.674L32.3528 360.205L37.9794 363.521L40.7927 365.128L42.8021 366.535C41.1946 367.64 39.386 368.645 37.5775 369.549L31.549 372.865L19.4921 379.396L7.53559 386.027L1.50712 389.443L0 390.247V392.658L2.61234 391.252L8.54033 387.836L20.3963 381.003L32.2523 374.071L38.1803 370.654C40.1898 369.449 42.1993 368.344 44.0078 366.937L44.6107 366.435L44.0078 366.033Z" fill="#53AFBE"/>
<path d="M45.314 381.405L45.2135 374.573V371.157C45.2135 370.554 45.2135 369.951 45.1131 369.348L44.9121 367.64L44.7112 366.836L44.0078 367.238L42.4002 368.042L40.8931 368.946L37.7784 370.755L31.75 374.472L19.4921 381.908L7.23417 389.242L1.10522 392.859C0.703322 393.127 0.334915 393.362 0 393.563V393.663C0.401898 393.462 0.803797 393.228 1.2057 392.96L7.33464 389.343L19.693 382.209L32.1518 375.176L38.2808 371.659L41.3955 369.851L43.0031 368.946L43.8069 368.544L43.9074 369.449C44.0078 370.052 44.0078 370.554 44.0078 371.157L43.9074 374.573L43.7064 381.405L43.405 395.07L43.204 408.734L43.1036 415.567L43.0031 418.983C43.0031 420.289 43.0031 421.093 42.6012 421.796C42.1993 422.499 41.3955 423.002 40.3908 423.605L37.477 425.313L31.549 428.829L19.7935 435.862L8.13844 442.996L2.31091 446.513C1.50712 446.982 0.736813 447.484 0 448.02V449.326C1.00475 448.723 1.90902 448.221 2.91376 447.618L8.84176 444.202L20.7982 437.47L32.5537 430.638L38.4817 427.222L41.496 425.413C42.4003 424.911 43.7064 424.207 44.5102 422.901C45.2135 421.595 45.2135 420.088 45.2135 419.083V415.667V408.734L45.314 395.07V381.405Z" fill="#53AFBE"/>
<path d="M45.4145 337.799L45.2135 310.571V309.968L44.7112 309.666L20.8987 295.701C13.966 291.581 6.93274 287.462 0 283.443V285.452C6.63132 289.471 13.2626 293.49 19.894 297.409L43.0031 311.274L43.405 337.799C43.5055 346.44 43.6059 355.081 43.8069 363.722C43.204 363.42 42.5007 363.119 41.8979 362.818L38.8836 361.21L32.8552 357.894L20.8987 351.162L9.04271 344.431C5.928 342.622 2.91376 340.914 0 339.005V339.206C2.81329 341.215 5.72705 343.024 8.74128 344.933L20.3963 352.167L32.1518 359.1L38.1803 362.516L41.1946 364.224L42.7017 365.028C43.204 365.329 43.8069 365.53 44.4097 365.832L45.515 366.234V364.927C45.515 355.885 45.4145 346.842 45.4145 337.799Z" fill="#53AFBE"/>
<path d="M9.14318 288.064L3.41613 284.648L0.502373 283.041C0.368407 282.907 0.200949 282.773 0 282.639V283.744C0 283.811 0.0334919 283.844 0.100475 283.844L3.01424 285.452L8.74128 288.567L20.3963 294.997L43.5055 307.958L20.5973 294.696L9.14318 288.064Z" fill="#53AFBE"/>
<path d="M93.3408 281.232C91.4318 279.926 89.4223 278.821 87.5133 277.615L81.5853 274.199L69.8298 267.266L57.9738 260.534L52.0458 257.118L49.132 255.41C48.1273 254.807 46.8211 254.204 45.314 254.204C43.9074 254.204 42.6012 254.908 41.5965 255.511L32.7547 260.534L20.8987 267.367L0 279.524V280.83L21.803 268.974L33.7594 262.343L42.7017 257.319C43.7064 256.716 44.5102 256.415 45.314 256.415C46.2183 256.314 47.0221 256.716 48.0268 257.319L56.9691 262.343L68.8251 268.974C76.5616 273.295 84.3986 277.314 91.9342 281.835C90.3266 283.041 88.5181 283.945 86.81 285.05L80.681 288.567L68.4231 295.7L56.1653 302.734L49.9358 306.15L46.9216 307.958L50.0363 306.25L56.1653 302.834L68.6241 296.002L80.9825 289.17L87.2119 285.854C89.3218 284.648 91.4318 283.744 93.3408 282.237L94.0442 281.734L93.3408 281.232Z" fill="#53AFBE"/>
<path fill-rule="evenodd" clip-rule="evenodd" d="M142.975 195.929L95.2495 168.701L94.8476 168.399V167.897C94.6467 158.754 94.6467 149.61 94.4457 140.467L94.1443 112.937V111.028L95.7519 111.932C103.79 116.554 111.526 121.277 119.363 125.898L131.119 132.932L137.047 136.448L139.961 138.257C140.965 138.86 142.071 139.563 142.774 140.769C143.477 141.974 143.578 143.381 143.578 144.486L143.477 147.902V154.835V168.5L143.276 182.164C143.276 186.786 143.276 191.408 142.975 195.929ZM142.975 195.929C142.874 186.786 142.573 177.643 142.372 168.5L142.071 154.835L141.97 147.902V144.486C141.97 143.381 141.769 142.376 141.367 141.673C140.865 140.869 140.061 140.266 139.056 139.764L136.042 138.056L130.215 134.64L118.359 127.707C111.024 123.387 103.689 118.966 96.3547 114.846L96.4552 140.367C96.4552 149.409 96.6562 158.452 96.5557 167.495L142.975 195.929ZM96.3547 114.846V112.937L94.6467 113.841C95.1825 114.176 95.7519 114.511 96.3547 114.846ZM96.5557 167.394L96.1538 167.193L96.5557 167.897C96.5557 167.763 96.5557 167.595 96.5557 167.394Z" fill="#53AFBE"/>
<path fill-rule="evenodd" clip-rule="evenodd" d="M143.076 201.154L142.975 227.679V240.942V247.573C142.975 248.678 142.975 249.784 142.975 250.889C142.975 252.094 142.473 253.401 141.368 254.104L118.761 267.969L107.307 274.802L101.68 278.218L98.7665 279.926L97.3599 280.73C96.8575 281.031 96.3551 281.232 95.7523 281.534L94.5466 282.136L94.2452 280.73C94.1447 280.227 93.9437 279.725 93.8433 279.022C93.8433 278.821 93.8433 278.62 93.8433 278.419V278.017V277.113L93.9437 273.697L94.0442 266.864L94.2452 253.2L94.5466 239.535L94.848 229.287V227.579C94.9485 226.976 95.049 226.273 95.4509 225.67C96.2546 224.464 97.4603 224.062 98.3646 223.459L101.278 221.751L107.307 218.335L119.163 211.603L131.019 204.771L136.947 201.355C138.856 200.25 140.765 198.943 142.975 198.14L143.076 201.154ZM143.076 201.154L142.875 198.14C140.765 198.943 138.956 200.35 136.947 201.455L131.019 204.972L119.364 211.905L107.608 219.038L101.781 222.655L98.867 224.364C97.8622 224.966 96.8575 225.469 96.4556 226.273C95.9532 227.076 96.0537 228.182 96.0537 229.287L96.1542 239.535V253.2L96.0537 266.965V273.797V277.213V278.017L95.9532 278.419C95.9532 278.62 95.9532 278.62 96.0537 278.72C96.0537 278.787 96.0537 278.888 96.0537 279.022C96.1207 278.955 96.1877 278.921 96.2546 278.921L97.6613 278.017L100.575 276.409L106.302 273.094L117.756 266.362L140.765 253.3C142.473 252.195 141.971 249.683 142.071 247.573L142.272 240.942L142.573 227.679L143.076 201.154ZM96.1542 278.921C95.6853 279.122 95.2499 279.323 94.848 279.524L96.4556 280.328C96.3551 279.825 96.1542 279.323 96.1542 278.921Z" fill="#53AFBE"/>
<path fill-rule="evenodd" clip-rule="evenodd" d="M97.1588 171.112L119.766 183.772L131.119 190.001L139.66 194.623L142.473 196.331L143.176 196.733L142.473 197.235C141.569 197.838 140.664 198.542 139.66 199.144L136.645 200.853L130.717 204.369L118.861 211.201L107.005 218.034L101.077 221.45L98.0631 223.057C97.1588 223.56 95.9531 224.464 94.446 224.464C93.6422 224.464 92.8384 224.263 92.2355 223.962C91.6327 223.66 91.2308 223.359 90.7284 223.057L87.7142 221.45L81.7862 218.034L69.9302 211.201L58.0742 204.269L52.1462 200.853C50.2372 199.647 48.2277 198.542 46.3187 197.135L45.5149 196.532L46.3187 196.13L71.6383 182.365L84.1976 175.433L90.5275 171.916C91.5322 171.313 92.537 170.61 93.7427 170.409C94.9484 170.107 96.154 170.509 97.1588 171.112ZM97.1588 171.112C96.154 170.509 94.9484 170.107 93.7427 170.409C92.537 170.71 91.6327 171.414 90.5275 172.016L84.2981 175.533L71.8392 182.667L47.7253 196.733C49.3329 197.738 51.1415 198.642 52.8495 199.546L58.878 202.862L70.8345 209.493L82.7909 216.225L88.8194 219.541L91.8337 221.148L93.2403 221.952C93.6422 222.22 94.0106 222.354 94.3455 222.354C95.1493 222.354 95.9531 221.852 97.0583 221.249L100.073 219.541L106.001 216.225L117.957 209.594L130.014 203.063L136.042 199.848L139.057 198.24C139.86 197.738 140.564 197.235 141.267 196.834L139.258 195.427L136.444 193.819L130.818 190.504L119.665 183.973L97.1588 171.112ZM47.7253 196.733C47.4574 196.599 47.1895 196.432 46.9215 196.231V197.235L47.7253 196.733ZM141.267 196.834L141.87 197.235V196.432C141.669 196.566 141.468 196.7 141.267 196.834Z" fill="#53AFBE"/>
<path fill-rule="evenodd" clip-rule="evenodd" d="M93.7425 165.385C93.7425 166.591 93.4411 167.796 92.5369 168.701C91.6326 169.504 90.5274 170.007 89.5226 170.61L83.3937 174.327L71.0353 181.662L58.8779 189.097L52.749 192.815C50.639 194.02 48.73 195.326 46.5195 196.331L45.7157 196.633L45.6153 195.829C45.4143 193.518 45.4143 191.207 45.4143 188.997V182.164V168.399L45.5148 144.486C45.5148 143.482 45.4143 141.974 46.1176 140.668C46.9214 139.262 48.3281 138.558 49.1319 138.056L52.1461 136.348L58.0741 132.932L69.8296 126.099L87.7141 115.952C89.7236 114.746 91.6326 113.641 93.7425 112.636L94.4459 112.334L94.5464 113.038C94.5464 114.143 94.6468 115.248 94.6468 116.353V119.669L94.4459 126.2L94.1445 139.262L93.7425 165.385ZM93.7425 165.385L93.843 139.262V126.2L93.7425 119.569V116.353C93.7425 115.55 93.6421 114.746 93.5416 113.942C91.8335 114.846 90.1255 115.952 88.3169 116.956L82.4894 120.573L70.8344 127.607L59.0788 134.64L53.1508 138.156L50.2371 139.965C49.2323 140.568 48.4285 140.97 48.1271 141.673C47.7252 142.376 47.7252 143.281 47.7252 144.486L47.6247 147.902L47.5243 154.735L47.3233 168.399L47.0219 182.164L46.821 188.997C46.7205 191.006 46.7205 192.915 46.821 194.925C48.6295 194.121 50.438 192.915 52.2466 191.91L58.476 188.394L70.9348 181.36L83.2932 174.126L89.5226 170.509C90.5274 169.906 91.6326 169.404 92.5369 168.6C93.4411 167.796 93.7425 166.591 93.7425 165.385ZM93.5416 113.942C93.8095 113.808 94.044 113.674 94.2449 113.54L93.5416 113.138C93.5416 113.406 93.5416 113.674 93.5416 113.942ZM46.821 194.925C46.553 195.059 46.2851 195.159 46.0172 195.226L46.821 195.728C46.821 195.46 46.821 195.192 46.821 194.925Z" fill="#53AFBE"/>
<path fill-rule="evenodd" clip-rule="evenodd" d="M46.1177 197.838C54.2562 202.058 62.0932 206.78 70.0307 211.201L81.8867 218.034L87.8147 221.45L90.7284 223.158C91.7332 223.66 92.9389 224.364 93.6422 225.569C94.3455 226.775 94.446 228.182 94.446 229.287V232.703L94.5465 239.535L94.8479 266.965L94.9484 273.797L95.0488 277.213L94.8479 280.629V282.237L93.3408 281.634C91.1303 280.629 89.2213 279.424 87.2118 278.218L81.3843 274.701L69.5283 267.668L57.7728 260.635L51.9453 257.118L49.0315 255.41C48.1272 254.807 46.8211 254.305 46.0173 252.999C45.7158 252.295 45.5149 251.592 45.5149 250.889V249.181V245.765V238.932L45.6154 225.167L45.7158 211.503L45.8163 204.671C45.9168 202.36 45.8163 200.049 46.1177 197.838ZM46.1177 197.838C45.9168 200.149 46.1177 202.36 46.1177 204.671L46.3187 211.503L46.7206 225.167L46.9215 238.932L47.1225 245.765V249.181L47.223 250.889C47.223 251.358 47.3234 251.76 47.5244 252.095C47.9263 252.798 48.931 253.3 49.9358 253.903L52.8495 255.611L58.7775 259.027L70.6335 265.96L82.389 272.893L88.317 276.409L91.2308 278.117C91.7667 278.385 92.269 278.653 92.7379 278.921L92.8384 277.213V273.797L92.7379 266.965V253.3L92.6374 239.636V232.703V229.287C92.6374 228.182 92.6374 227.277 92.1351 226.473C91.7332 225.67 90.9294 225.067 89.9246 224.564L87.0109 222.756L81.1833 219.239L69.4278 212.106C61.6913 207.383 53.9548 202.561 46.1177 197.838ZM92.7379 278.921L92.6374 280.529L94.245 279.625C93.7761 279.357 93.2738 279.122 92.7379 278.921Z" fill="#53AFBE"/>
<path fill-rule="evenodd" clip-rule="evenodd" d="M93.7425 285.854L93.6421 312.379V325.642L93.7425 332.273C93.7425 333.479 93.7425 334.484 93.6421 335.689C93.6421 336.895 93.0392 338.101 92.1349 338.904C84.4989 343.727 76.9633 348.148 69.4277 352.87L57.9736 359.602L52.347 363.018C50.438 364.124 48.529 365.329 46.5195 366.334L45.2133 366.937L44.9119 365.53C44.8114 365.028 44.711 364.525 44.6105 363.822C44.51 363.018 44.51 362.516 44.51 361.913L44.6105 358.497L44.711 351.665L44.9119 338L45.2133 324.336L45.4143 317.403L45.5148 313.987C45.5148 312.982 45.4143 311.575 46.1176 310.37C46.419 309.767 47.0219 309.365 47.5242 308.963L49.0314 308.159L52.0456 306.451L57.9736 303.035L69.8296 296.203L81.6856 289.371L87.6136 285.954C89.6231 284.849 91.5321 283.543 93.6421 282.639L93.7425 285.854ZM93.7425 285.854L93.6421 282.739C91.5321 283.543 89.6231 284.849 87.7141 286.055L81.7861 289.571L70.0305 296.605L58.3755 303.738L52.4475 307.255L49.5337 309.064C48.529 309.666 47.5242 310.169 47.1223 310.973C46.7204 311.776 46.8209 312.882 46.8209 313.987V317.403V324.336V338V351.665L46.7205 358.597V362.014C46.7205 362.516 46.7205 363.219 46.7205 363.521C46.7205 363.588 46.7205 363.655 46.7205 363.722C48.2276 363.018 49.7347 362.114 51.2418 361.21L56.9688 357.894L68.4229 351.263C76.059 346.842 83.9965 342.522 91.4316 338.101C93.0392 336.895 92.7378 334.484 92.8383 332.273L93.0392 325.642L93.3406 312.379L93.7425 285.854ZM93.5416 282.739C93.5416 282.739 93.5751 282.739 93.6421 282.739L93.5416 282.639V282.739ZM46.7205 363.822C46.3186 364.023 45.8832 364.224 45.4143 364.425L47.0219 365.229C46.9214 364.726 46.8209 364.224 46.7205 363.822Z" fill="#53AFBE"/>
<path fill-rule="evenodd" clip-rule="evenodd" d="M45.8165 367.741C53.9549 371.76 61.6914 376.582 69.7294 381.003L93.4414 394.768L93.8433 394.969V395.472C94.0442 404.615 94.1447 413.758 94.2452 422.801L94.6471 450.13V451.838L93.0395 451.134L91.5324 450.532C90.9295 450.331 90.3267 449.929 89.8243 449.627L86.9105 447.919L81.083 444.403L69.3275 437.37L57.572 430.437L51.644 426.92L48.7302 425.112L47.2231 424.207C46.7207 423.906 46.2184 423.404 45.8165 422.801C45.4146 422.097 45.2136 421.394 45.2136 420.691V418.983V415.567V408.734L45.3141 395.07L45.4146 381.405L45.515 374.573V371.056L45.6155 369.348L45.8165 367.741ZM45.8165 367.741L45.6155 369.449L45.716 371.157L45.8165 374.573L46.0174 381.405L46.4193 395.17L46.6203 408.835L46.8212 415.667V419.083L46.9217 420.691C46.9217 421.227 47.0222 421.662 47.2231 421.997C47.625 422.6 48.6298 423.102 49.6345 423.705L52.6487 425.413L58.4763 428.829L70.3323 435.762L82.0878 442.695L88.0158 446.111L90.9295 447.919C91.5324 448.221 91.8338 448.422 92.3362 448.623H92.4366L92.2357 422.901C92.2357 413.959 92.1352 405.017 92.1352 396.074L69.1266 382.109C61.39 377.286 53.6535 372.362 45.8165 367.741ZM92.4366 448.623V450.23L93.9438 449.225L92.4366 448.623ZM92.1352 396.074L92.6376 396.275L92.2357 395.572C92.1687 395.773 92.1352 395.94 92.1352 396.074Z" fill="#53AFBE"/>
<path fill-rule="evenodd" clip-rule="evenodd" d="M91.8337 392.457L68.9255 379.697L57.4714 373.367L51.6439 370.253L48.8306 368.645C47.8258 368.042 46.9216 367.439 46.0173 366.836L45.314 366.434L46.0173 366.033C53.8543 361.31 61.7918 356.789 69.6288 352.167L81.4848 345.435L87.4128 342.019L90.427 340.311C91.4318 339.708 92.6375 339.105 94.1446 339.005C95.5512 339.005 96.8574 339.608 97.8621 340.211L100.876 341.919L118.66 352.167L130.416 358.999C134.334 361.411 138.353 363.521 142.171 366.033L142.875 366.535L142.272 367.037L140.865 368.143C140.262 368.544 139.76 368.745 139.258 369.047L136.042 370.755L129.813 374.171L117.254 381.003L104.694 388.036L98.465 391.453C97.3598 392.056 96.4555 392.759 95.2498 393.06C94.0441 393.462 92.8384 393.06 91.8337 392.457ZM91.8337 392.457C92.8384 393.06 94.0441 393.362 95.2498 393.06C96.355 392.658 97.3598 391.955 98.3645 391.453L104.594 387.836L117.053 380.802L129.411 373.568L135.641 369.951L138.755 368.143C139.258 367.841 139.76 367.54 140.162 367.238L140.865 366.635C133.229 362.215 125.392 358.196 117.656 353.775L105.8 347.143L99.7712 343.828L96.7569 342.12C95.8526 341.517 95.0489 341.215 94.1446 341.215C93.3408 341.215 92.4365 341.617 91.4318 342.12L88.518 343.828L82.4895 347.143L70.5331 353.775C62.7965 357.995 54.9595 362.215 47.3235 366.535L49.2325 367.841L52.1462 369.449L57.7728 372.764L69.1264 379.396L91.8337 392.457ZM140.865 366.635C141.066 366.769 141.301 366.903 141.569 367.037L141.468 366.133L140.865 366.635ZM47.3235 366.434L46.6201 365.932V366.836C46.8211 366.702 47.0555 366.568 47.3235 366.434Z" fill="#53AFBE"/>
<path fill-rule="evenodd" clip-rule="evenodd" d="M95.0489 397.682C95.0489 396.577 95.3503 395.271 96.3551 394.567C97.3598 393.965 98.465 393.362 99.4698 392.759L105.599 389.142L117.756 381.807L129.914 374.372L136.043 370.755L139.057 368.846C140.061 368.243 141.066 367.64 142.272 367.138L142.975 366.937L143.076 367.741C143.277 370.052 143.277 372.262 143.277 374.573V381.405V395.07V408.634L143.176 415.466V418.882C143.176 419.987 143.277 421.394 142.573 422.7C142.171 423.404 141.669 424.006 141.066 424.308C140.463 424.71 140.061 424.911 139.559 425.212L136.545 426.92L130.717 430.437L118.861 437.269L107.005 444.001L101.077 447.417C99.0679 448.422 97.2594 449.728 95.0489 450.632L94.4461 450.934L94.3456 450.23C94.2451 449.728 94.1446 449.226 94.0442 448.623C93.9437 448.02 94.0442 447.417 94.0442 446.915L94.1446 443.599L94.2451 437.068L94.647 424.006L95.0489 397.682ZM95.0489 397.682L94.848 423.906V436.968L94.9484 443.599V446.814C94.9484 447.417 94.9484 447.919 94.9484 448.422C95.0154 448.69 95.0824 448.991 95.1494 449.326C96.9579 448.422 98.666 447.216 100.475 446.211L106.302 442.695L117.957 435.561L129.612 428.528L135.44 425.112L138.454 423.303C139.459 422.7 140.363 422.298 140.664 421.595C140.966 420.992 140.966 419.987 140.966 418.782L141.066 415.366L141.167 408.533L141.368 394.869L141.669 381.305L141.87 374.472C141.971 372.463 141.971 370.453 141.87 368.444C141.167 368.745 140.363 369.248 139.559 369.65L136.444 371.458L130.315 374.975L117.957 382.008L105.599 389.142L99.4698 392.759C98.465 393.362 97.3598 393.864 96.3551 394.567C95.3503 395.17 94.9484 396.476 95.0489 397.682ZM95.1494 449.326C94.9484 449.393 94.7475 449.493 94.5465 449.627L95.3503 450.029C95.2834 449.761 95.2164 449.527 95.1494 449.326ZM141.87 368.444C142.138 368.31 142.406 368.21 142.674 368.143L141.87 367.64C141.87 367.908 141.87 368.176 141.87 368.444Z" fill="#53AFBE"/>
<path fill-rule="evenodd" clip-rule="evenodd" d="M142.573 365.731L118.861 352.268L94.848 338.402L94.4461 338.201V337.699C94.2452 328.556 94.1447 319.412 94.0442 310.269L93.6423 282.94V281.333L95.1495 281.935C95.6518 282.036 96.1542 282.237 96.757 282.438C97.5608 282.739 97.9627 283.041 98.4651 283.342L101.379 285.151L107.307 288.667L119.062 295.7L130.918 302.734L136.746 306.25L139.76 308.059L141.167 308.963C141.77 309.265 142.272 309.767 142.674 310.37C143.076 311.073 143.176 311.877 143.176 312.48V314.188V317.604V324.537L143.076 338.201L142.975 351.966L142.875 358.799V362.315L142.774 364.023C142.774 364.526 142.674 365.128 142.573 365.731ZM142.573 365.731C142.64 365.128 142.707 364.559 142.774 364.023L142.674 362.315L142.573 358.799L142.372 351.966L142.071 338.201L141.77 324.537L141.669 317.604L141.569 314.188V312.48C141.569 312.011 141.468 311.609 141.267 311.274C140.865 310.671 139.861 310.169 138.856 309.566L135.842 307.858L129.914 304.341L106.202 290.476L97.3599 285.251C96.8575 284.95 96.3551 284.548 96.0537 284.447H95.8528L96.0537 310.269C96.0537 319.312 96.1542 328.254 96.1542 337.196L142.573 365.731ZM95.8528 284.447V282.94L94.4461 284.045L95.8528 284.447ZM96.0537 337.196L95.6518 336.895L96.0537 337.598C96.0537 337.464 96.0537 337.33 96.0537 337.196Z" fill="#53AFBE"/>
<path fill-rule="evenodd" clip-rule="evenodd" d="M140.966 307.556L118.058 294.696L106.603 288.366L100.776 285.251L97.9627 283.644L95.1494 281.835L94.446 281.433L95.1494 281.031L118.761 267.166L130.717 260.434L136.645 257.018L139.559 255.31C140.564 254.807 141.77 254.104 143.277 254.004C144.784 254.004 146.09 254.707 147.095 255.31L150.008 256.917L155.936 260.333L167.792 267.166L179.648 274.098L185.576 277.515C187.485 278.62 189.495 279.825 191.404 281.132L192.107 281.634L191.404 282.136C189.495 283.644 187.385 284.648 185.275 285.854L178.945 289.27L166.386 296.102L153.927 303.035L147.597 306.552C146.592 307.054 145.588 307.757 144.382 308.159C143.277 308.461 141.97 308.159 140.966 307.556ZM140.966 307.556C141.97 308.159 143.277 308.461 144.382 308.059C145.588 307.757 146.492 306.954 147.597 306.451L153.826 302.935L166.185 295.801L178.543 288.567L184.773 284.95C186.581 283.945 188.39 282.94 189.997 281.735C182.462 277.213 174.524 273.194 166.888 268.874L154.932 262.142L148.903 258.826L145.989 257.118C144.985 256.616 144.181 256.214 143.377 256.214C142.473 256.214 141.669 256.616 140.664 257.219L137.65 258.826L131.722 262.142L119.665 268.773L96.4555 281.534L98.3646 282.84L101.278 284.548L106.905 287.863L118.259 294.394L140.966 307.556ZM189.997 281.835C190.198 281.969 190.433 282.103 190.701 282.237V281.232C190.433 281.433 190.198 281.634 189.997 281.835ZM96.3551 281.534L95.6517 281.132V281.935L96.3551 281.534Z" fill="#53AFBE"/>
<path fill-rule="evenodd" clip-rule="evenodd" d="M239.33 195.025L216.121 181.461L204.466 174.729L198.638 171.413L195.724 169.705C195.222 169.404 194.72 169.103 194.217 168.701C193.715 168.299 193.413 167.595 193.313 166.993C192.911 157.849 192.811 149.008 192.61 139.965L192.409 126.501L192.308 119.77L192.208 114.746C192.208 114.243 192.409 113.54 192.409 112.937L192.61 111.43L194.016 112.133C195.021 112.636 196.126 113.138 197.131 113.741L200.045 115.449L205.872 118.966L217.628 125.999L229.283 133.133L235.01 136.649L237.924 138.458C238.828 139.061 240.034 139.563 240.737 140.769C241.541 141.974 241.44 143.281 241.44 144.386L241.34 147.802V154.634L241.239 168.299C241.239 177.341 241.34 186.485 241.139 195.527C240.536 195.326 239.933 195.326 239.33 195.025ZM239.33 195.025C239.933 195.326 240.536 195.326 241.139 195.527C241.239 186.485 240.938 177.341 240.837 168.299L240.536 154.634L240.436 147.802L240.335 144.386C240.335 143.18 240.335 142.175 239.833 141.372C239.33 140.568 238.326 140.166 237.321 139.563L234.407 137.855L228.479 134.439L216.623 127.607L204.868 120.774L198.94 117.358L196.026 115.65L194.418 114.746V116.454V126.501V139.965C194.418 148.907 194.217 158.05 194.318 166.792C194.418 167.696 195.222 168.299 196.227 168.902L199.04 170.61L204.868 174.126L216.322 181.159L239.33 195.025ZM241.038 195.527H241.139C241.139 195.527 241.105 195.527 241.038 195.527ZM194.318 114.846V114.746C194.318 114.243 194.519 113.842 194.519 113.339L193.012 114.043L194.318 114.846Z" fill="#53AFBE"/>
<path fill-rule="evenodd" clip-rule="evenodd" d="M241.139 201.254L241.039 227.78V241.042V247.674C241.039 248.779 241.139 249.884 241.039 251.09C240.838 252.195 240.235 253.401 239.23 254.204C231.694 259.027 224.159 263.448 216.523 268.07L205.169 274.902L199.442 278.318L196.629 280.026L193.615 281.534L192.107 282.337V280.629L191.906 277.113V273.697L192.007 266.864L192.308 253.2L192.61 239.535L192.71 232.602L192.811 229.186C192.811 228.081 192.911 226.775 193.615 225.569C194.318 224.464 195.423 223.761 196.428 223.258L205.37 218.134L217.226 211.402L240.938 197.637H241.039L241.139 201.254ZM241.139 201.254L240.938 197.738L217.427 211.704L205.672 218.837L199.844 222.455L196.93 224.263C195.925 224.765 195.122 225.368 194.619 226.273C194.117 227.076 194.117 228.081 194.117 229.287V232.703V239.535V253.2L194.016 273.797V277.213L194.117 278.921L195.524 278.218L198.337 276.51L204.164 273.194L215.618 266.563C223.255 262.142 231.092 257.822 238.527 253.401C239.33 252.798 239.833 251.994 240.034 250.889C240.134 249.985 240.134 248.779 240.134 247.674L240.335 241.042L240.637 227.78L241.139 201.254ZM194.217 278.821L192.71 279.625L194.217 280.529V278.821Z" fill="#53AFBE"/>
<path fill-rule="evenodd" clip-rule="evenodd" d="M195.524 171.313L218.13 183.973L229.484 190.202L235.211 193.317L238.024 194.925L240.838 196.633L241.541 197.135L240.737 197.537L217.126 211.302L205.27 218.134L199.342 221.45L196.327 223.158C195.423 223.66 194.217 224.565 192.71 224.565C191.203 224.565 189.897 223.761 188.993 223.258L185.979 221.55L180.051 218.134L168.195 211.402L156.439 204.47L150.511 201.054L147.597 199.245C146.593 198.642 145.588 198.039 144.684 197.336L143.98 196.834L144.684 196.331C146.693 195.025 148.803 193.92 150.913 192.714L157.243 189.298L169.903 182.466L182.462 175.433L188.792 171.916C189.797 171.414 190.801 170.71 192.007 170.509C193.213 170.208 194.418 170.71 195.524 171.313ZM195.524 171.313C194.418 170.71 193.213 170.308 192.007 170.509C190.902 170.71 189.897 171.414 188.792 172.016L182.562 175.533L170.104 182.667L157.645 190.001L151.415 193.618C149.607 194.623 147.798 195.728 146.09 196.834C146.794 197.336 147.497 197.738 148.2 198.14L151.214 199.848L157.142 203.063L169.199 209.694L181.156 216.326L187.084 219.742L190.098 221.349C191.103 221.952 191.907 222.354 192.71 222.354C193.514 222.354 194.318 221.952 195.323 221.349L198.337 219.641L204.265 216.326L216.221 209.694L239.532 197.035L237.622 195.728L234.809 194.02L229.183 190.805L218.03 184.174L195.524 171.313ZM146.09 196.934C145.822 196.733 145.588 196.566 145.387 196.432V197.436C145.588 197.236 145.822 197.068 146.09 196.934ZM239.532 197.135L240.235 197.537V196.733L239.532 197.135Z" fill="#53AFBE"/>
<path fill-rule="evenodd" clip-rule="evenodd" d="M191.705 165.586C191.806 166.691 191.404 167.997 190.399 168.701C189.394 169.404 188.39 169.906 187.385 170.509L181.256 174.227L169.099 181.461L156.941 188.896L150.812 192.513C148.803 193.719 146.894 195.125 144.683 196.13L143.98 196.532L143.879 195.728L143.578 194.02C143.478 193.417 143.478 192.814 143.478 192.212V188.795V181.963V168.299V154.634L143.578 147.802V144.386C143.578 143.28 143.377 141.974 144.181 140.467C144.583 139.764 145.186 139.261 145.788 138.96L147.296 138.056L150.209 136.348L156.137 132.932L167.993 125.999L179.849 119.267L185.777 115.951L188.792 114.243L190.299 113.339C190.5 113.239 190.701 113.038 191.203 112.937L192.007 112.736L192.61 112.535V113.138C192.811 115.449 192.71 117.559 192.61 119.769L192.509 126.3L192.208 139.362L191.705 165.586ZM191.705 165.586L191.806 139.462V126.3L191.705 119.769C191.705 117.86 191.806 115.851 191.605 113.942L191.404 114.042C191.303 114.042 191.002 114.243 190.801 114.344L189.294 115.248L186.38 117.057L180.553 120.573L168.898 127.707L157.142 134.74L151.214 138.257L148.3 139.965L146.793 140.869C146.391 141.07 146.123 141.304 145.989 141.572C145.688 142.175 145.688 143.28 145.688 144.386L145.487 154.735L145.286 168.399L144.985 182.064L144.784 188.896L144.683 192.312C144.683 192.915 144.683 193.417 144.683 193.92L144.784 194.824C146.693 193.92 148.501 192.814 150.31 191.81L156.439 188.293L168.797 181.26L181.055 174.126L187.284 170.509C188.289 169.906 189.294 169.404 190.299 168.701C191.303 167.997 191.705 166.792 191.705 165.586ZM191.605 113.942L192.208 113.741L191.504 113.339C191.571 113.54 191.605 113.741 191.605 113.942ZM144.784 194.824C144.583 194.958 144.348 195.092 144.08 195.226L144.884 195.628L144.784 194.824Z" fill="#53AFBE"/>
<path fill-rule="evenodd" clip-rule="evenodd" d="M191.505 225.77C192.007 243.655 192.509 261.841 192.811 280.127V281.333L191.806 280.931L190.801 280.629L189.997 280.227L188.49 279.424L185.476 277.816C183.366 276.711 181.457 275.606 179.448 274.5L167.491 267.668L155.635 260.735C151.717 258.324 147.798 256.114 143.88 253.401L143.478 253.099V252.496L143.277 225.067C143.277 215.924 143.176 206.781 143.277 197.637V196.13L144.483 196.934L168.195 211.302L191.505 225.77ZM191.505 225.77L167.391 212.106L144.985 199.245C145.186 207.886 145.186 216.527 145.286 225.167L145.688 251.994C149.205 254.405 153.023 256.716 156.74 258.927L168.496 265.96L180.352 272.893L186.28 276.208L189.294 277.917L190.801 278.72L191.103 278.921C191.103 261.338 191.304 243.755 191.505 225.77ZM144.985 199.245C144.985 198.709 144.951 198.207 144.884 197.738L143.679 198.441L144.985 199.245ZM145.688 251.994C145.487 251.927 145.32 251.827 145.186 251.693L145.688 252.597V251.994ZM191.103 278.921C191.103 279.323 191.103 279.725 191.103 280.127L192.107 279.323L191.505 279.122L191.103 278.921Z" fill="#53AFBE"/>
<path fill-rule="evenodd" clip-rule="evenodd" d="M192.007 285.05L191.806 311.977L191.906 325.34V332.072V335.388C192.007 336.594 191.504 338 190.5 338.804C189.595 339.608 188.591 340.11 187.686 340.713L184.773 342.421L179.045 345.938L167.591 352.871C159.855 357.492 152.219 362.114 144.482 366.535L142.875 367.439L142.774 365.631C142.573 361.009 142.875 356.488 142.875 351.966L143.076 338.302L143.377 324.637L143.578 317.805L143.678 314.389C143.678 313.284 143.578 311.977 144.281 310.772C144.884 309.466 146.09 308.863 146.994 308.36L150.008 306.652L155.936 303.236L167.893 296.504L179.648 289.672L185.576 286.155C187.586 285.05 189.495 283.845 191.605 282.94C191.705 283.644 192.007 284.347 192.007 285.05ZM192.007 285.05C191.906 284.347 191.705 283.644 191.605 282.94C189.495 283.945 187.586 285.151 185.677 286.256L179.749 289.773L167.993 296.806L156.338 303.939L150.511 307.456L147.597 309.265C146.592 309.867 145.688 310.37 145.286 311.274C144.884 312.078 144.985 313.183 144.985 314.389V317.805V324.637V338.302C144.985 346.742 144.884 355.382 144.985 363.822C152.219 359.703 159.352 355.483 166.587 351.263L178.342 344.732L184.17 341.416L187.083 339.708C187.988 339.106 189.093 338.704 189.796 338C190.6 337.397 190.901 336.493 191.002 335.388V332.072L191.203 325.34L191.504 311.977L192.007 285.05ZM191.605 282.84C191.605 282.84 191.638 282.84 191.705 282.84H191.605ZM144.985 363.722C144.449 363.99 143.913 364.291 143.377 364.626L145.085 365.53C145.018 364.927 144.985 364.325 144.985 363.722Z" fill="#53AFBE"/>
<path fill-rule="evenodd" clip-rule="evenodd" d="M143.88 367.54C151.918 371.86 159.755 376.482 167.692 380.903L179.548 387.735L185.476 391.151L188.49 392.859C189.395 393.362 190.6 394.065 191.304 395.271C192.107 396.476 192.107 397.983 192.107 399.089L192.208 402.505L192.308 409.337L192.409 423.002L192.61 436.666L192.71 443.498V446.915L192.61 450.331V451.938L191.002 451.335C188.792 450.331 186.883 449.125 184.974 448.02L179.046 444.503L167.29 437.47L155.535 430.437L149.607 426.92L146.693 425.112C145.789 424.509 144.583 424.006 143.779 422.7C143.377 421.997 143.277 421.294 143.277 420.691V418.882V415.466V408.634V394.969L143.478 381.204L143.578 374.372C143.578 372.061 143.478 369.75 143.88 367.54ZM143.88 367.54C143.578 369.851 143.779 372.061 143.88 374.372L144.081 381.204L144.382 394.969L144.683 408.634L144.784 415.466L144.884 418.882V420.59C144.951 421.059 145.085 421.461 145.286 421.796C145.588 422.499 146.593 423.002 147.597 423.604L150.611 425.313L156.539 428.729L168.295 435.661L180.151 442.695L186.079 446.111L188.993 447.819C189.462 448.154 189.964 448.422 190.5 448.623V446.915V436.666L190.399 423.002V409.337V402.505V399.089C190.399 397.883 190.399 396.979 189.897 396.175C189.495 395.371 188.591 394.768 187.687 394.266L184.672 392.457L178.845 388.941L167.19 381.807L143.88 367.54ZM190.5 448.623L190.399 450.331L192.007 449.326C191.471 449.125 190.969 448.891 190.5 448.623Z" fill="#53AFBE"/>
<path fill-rule="evenodd" clip-rule="evenodd" d="M190.198 392.558L167.29 379.697L155.736 373.367L149.908 370.253C147.999 369.147 146.09 368.243 144.181 366.937L143.679 366.434L144.282 366.033C146.09 364.726 148.1 363.521 150.109 362.415L155.937 358.999L167.793 352.167L179.649 345.335L185.577 341.919L188.591 340.311C189.495 339.809 190.6 338.904 192.208 338.904C193.715 338.804 195.021 339.608 195.925 340.11L198.839 341.818L204.767 345.234L216.623 352.067L228.479 358.899L234.307 362.415C236.316 363.521 238.326 364.626 240.235 365.932L240.838 366.434L240.235 366.937L238.828 368.042C238.225 368.444 237.723 368.645 237.22 368.946L234.106 370.654L227.876 373.97L215.418 380.802L202.959 387.635L196.729 391.151C195.725 391.654 194.72 392.357 193.615 392.859C192.509 393.362 191.203 393.261 190.198 392.558ZM190.198 392.558C191.203 393.161 192.509 393.362 193.615 392.759C194.619 392.256 195.624 391.654 196.729 391.051L202.858 387.534L215.217 380.501L227.474 373.367L233.603 369.75L236.718 368.042C237.22 367.741 237.723 367.439 238.125 367.138L238.828 366.535C231.293 362.114 223.355 358.095 215.719 353.674L203.762 347.043L197.834 343.727L194.82 342.019C193.816 341.416 193.012 341.014 192.208 341.014C191.505 341.014 190.6 341.517 189.596 342.12L186.581 343.828L180.653 347.143L168.697 353.775L156.64 360.205L150.712 363.521C148.903 364.425 147.095 365.43 145.387 366.535C146.994 367.64 148.702 368.544 150.31 369.549L156.037 372.865L167.391 379.496L190.198 392.558ZM238.828 366.535C239.029 366.669 239.263 366.803 239.531 366.937V365.932L238.828 366.535ZM145.387 366.535C145.186 366.401 144.985 366.234 144.784 366.033V366.937C144.985 366.803 145.186 366.669 145.387 366.535Z" fill="#53AFBE"/>
<path fill-rule="evenodd" clip-rule="evenodd" d="M193.213 398.185C193.213 396.979 193.514 395.773 194.418 394.869C195.323 394.065 196.428 393.663 197.433 392.96L215.719 382.008L227.876 374.673L234.005 370.956C236.115 369.75 238.024 368.344 240.235 367.339L240.938 367.037L241.039 367.741C241.139 368.243 241.34 368.846 241.44 369.449C241.44 370.152 241.44 370.655 241.44 371.257V381.506L241.541 395.17L241.44 408.835L241.34 419.083C241.34 420.188 241.541 421.495 240.737 423.002C240.335 423.705 239.732 424.207 239.13 424.509L237.622 425.413L234.709 427.121L228.781 430.537L216.925 437.47L205.069 444.202L199.141 447.518L196.126 449.226C195.122 449.828 194.217 450.431 193.012 450.733L192.308 450.934V450.331C192.107 448.12 192.208 445.91 192.308 443.8L192.409 437.269L192.71 424.207L193.213 398.185ZM193.213 398.185L193.112 424.308V437.269L193.213 443.8C193.213 445.809 193.213 447.718 193.313 449.627C194.117 449.326 194.921 448.824 195.624 448.321L198.538 446.513L204.365 442.996L216.121 435.862L227.776 428.829L233.704 425.313L236.618 423.605L238.125 422.7C238.46 422.499 238.728 422.231 238.929 421.897C239.33 421.394 239.23 420.289 239.23 419.184L239.33 415.667L239.431 408.835L239.632 395.17L239.933 381.506L240.134 374.673L240.235 371.257C240.235 370.755 240.335 370.052 240.235 369.65C240.235 369.382 240.201 369.08 240.134 368.745C238.225 369.65 236.417 370.755 234.608 371.76L228.379 375.276L216.02 382.41L203.662 389.544L197.533 393.06C196.528 393.764 195.423 394.166 194.519 394.969C193.615 395.773 193.213 396.979 193.213 398.185ZM193.313 449.627C193.112 449.694 192.911 449.761 192.71 449.828L193.414 450.331C193.347 450.063 193.313 449.828 193.313 449.627ZM240.134 368.745C240.335 368.612 240.57 368.511 240.838 368.444L239.933 368.042C240 368.243 240.067 368.478 240.134 368.745Z" fill="#53AFBE"/>
<path fill-rule="evenodd" clip-rule="evenodd" d="M237.823 363.923L215.116 350.66L203.662 344.129L197.935 340.813L195.021 339.206C194.016 338.603 193.112 337.498 192.911 336.292C192.61 327.35 192.509 318.709 192.208 309.867C192.107 301.026 191.906 292.284 192.007 283.443V282.84L192.409 282.538L192.911 282.237H193.012C193.012 282.237 193.112 282.136 193.414 282.136C193.514 282.036 193.614 282.036 193.815 282.036C193.949 282.103 194.05 282.136 194.117 282.136L194.217 282.237H194.318L194.72 282.438L195.523 282.84C196.026 283.041 196.528 283.342 197.031 283.643L199.944 285.452L205.772 288.868L217.427 295.901C225.163 300.624 232.9 305.346 240.637 310.169L240.938 310.269V310.671L240.837 338.101V365.53L237.823 363.923ZM237.823 363.923L240.837 365.43L240.335 338L239.732 310.973C231.996 306.451 224.159 302.03 216.422 297.509L204.667 290.677L198.739 287.261L195.825 285.452C195.323 285.251 194.82 284.849 194.418 284.648L194.016 284.548C193.916 292.887 194.117 301.327 194.016 309.767C194.016 318.508 193.916 327.45 193.916 336.091C194.117 338 196.528 338.804 198.337 340.01L203.963 343.526L215.216 350.359L237.823 363.923ZM239.632 310.973C239.766 311.04 239.866 311.073 239.933 311.073L239.632 310.571V310.973ZM194.016 284.548C194.016 284.213 194.016 283.878 194.016 283.543L193.614 284.246C193.547 284.246 193.48 284.246 193.414 284.246C193.28 284.246 193.179 284.213 193.112 284.146L193.213 284.246L193.514 284.347L194.016 284.548ZM193.715 284.246C193.782 284.246 193.815 284.246 193.815 284.246L193.614 284.347L193.715 284.246Z" fill="#53AFBE"/>
<path fill-rule="evenodd" clip-rule="evenodd" d="M238.928 307.456L216.121 294.796L204.667 288.466L198.94 285.352L196.126 283.744L193.313 282.036L192.61 281.634L193.313 281.132L217.025 267.367L228.881 260.534L234.809 257.219L237.823 255.511C238.727 255.008 239.833 254.205 241.44 254.104C243.048 253.903 244.254 254.908 245.158 255.31L248.172 257.018L254.1 260.434L265.956 267.266L277.812 274.199L283.64 277.615C285.649 278.821 287.659 279.826 289.568 281.232L290.17 281.735L289.568 282.237C287.659 283.844 285.448 284.849 283.338 285.954L277.109 289.371L264.449 296.303L251.89 303.236L245.56 306.753C244.555 307.356 243.55 308.059 242.345 308.26C241.139 308.561 239.933 308.059 238.928 307.456ZM238.928 307.456C239.933 308.059 241.139 308.461 242.345 308.26C243.55 307.958 244.555 307.255 245.56 306.652L251.789 303.136L264.248 296.002L276.707 288.768L282.936 285.151C284.745 284.045 286.654 283.041 288.261 281.835C286.553 280.73 284.745 279.826 283.037 278.821L277.008 275.606L265.052 268.974L253.095 262.242L247.067 258.927L244.053 257.219C243.048 256.616 242.244 256.114 241.541 256.214C240.737 256.214 239.833 256.716 238.828 257.319L235.814 259.027L229.886 262.343L217.929 268.974L194.619 281.634L196.528 282.94L199.341 284.648L204.968 287.964L216.322 294.495L238.928 307.456ZM288.161 281.735C288.429 281.935 288.663 282.103 288.864 282.237V281.232C288.596 281.433 288.362 281.601 288.161 281.735ZM194.519 281.634L193.815 281.132V282.036L194.519 281.634Z" fill="#53AFBE"/>
<path fill-rule="evenodd" clip-rule="evenodd" d="M289.869 165.385C289.969 166.591 289.668 167.897 288.764 168.701C287.759 169.404 286.654 169.906 285.649 170.61L279.52 174.227L267.262 181.561L255.105 188.997L248.976 192.714C246.966 193.92 244.957 195.226 242.746 196.331L241.943 196.733V195.829C241.842 194.724 241.641 193.518 241.641 192.413V188.997V182.064V168.399L241.742 147.902V144.486C241.742 143.381 241.641 141.974 242.344 140.568C242.746 139.965 243.349 139.362 243.952 139.061L245.459 138.156L248.373 136.448L254.301 132.932L266.157 126.099L278.113 119.368L284.041 115.952C286.051 114.846 287.96 113.641 290.07 112.736L290.773 112.435L290.874 113.138C290.974 115.349 290.874 117.559 290.773 119.77L290.673 126.3L290.371 139.262L289.869 165.385ZM289.869 165.385L289.969 139.362V126.3L289.869 119.77C289.969 117.76 289.869 115.851 289.768 113.942C288.06 114.846 286.352 116.052 284.544 117.057L278.716 120.573L267.061 127.707L255.306 134.74L249.378 138.257L246.464 139.965L245.057 140.869C244.655 141.07 244.387 141.338 244.253 141.673C243.852 142.376 243.852 143.281 243.852 144.486L243.751 147.902L243.651 154.735L243.45 168.5L243.148 182.164L242.947 188.997L242.847 192.413C242.847 193.216 242.947 194.121 242.947 194.925C244.856 194.02 246.564 192.915 248.473 191.91L254.602 188.394L267.061 181.26L279.42 174.126L285.548 170.509C286.553 169.906 287.658 169.404 288.663 168.701C289.567 167.897 289.869 166.591 289.869 165.385ZM289.768 113.942C290.036 113.875 290.271 113.775 290.472 113.641L289.768 113.239C289.768 113.507 289.768 113.741 289.768 113.942ZM242.947 194.925C242.679 195.058 242.411 195.192 242.143 195.326L243.048 195.728C243.048 195.46 243.014 195.192 242.947 194.925Z" fill="#53AFBE"/>
<path fill-rule="evenodd" clip-rule="evenodd" d="M242.345 197.939C244.354 198.843 246.464 199.948 248.373 201.154L254.301 204.47L266.258 211.201L278.114 218.034L284.042 221.45L286.955 223.158C287.86 223.761 289.166 224.263 289.97 225.569C290.673 226.875 290.572 228.282 290.572 229.287L290.673 232.803L290.773 239.636L290.874 253.3L291.075 266.965L291.175 273.797C291.175 276.108 291.276 278.318 291.075 280.73L290.874 282.237L289.467 281.634C287.257 280.629 285.448 279.424 283.439 278.318L277.511 274.802L265.856 267.769L254.1 260.735L248.172 257.219L245.258 255.41C244.354 254.908 243.148 254.305 242.345 252.999C241.541 251.693 241.742 250.286 241.742 249.281V245.865V239.033L241.842 225.268L241.943 211.603L242.043 204.771C242.043 202.561 242.043 200.25 242.345 197.939ZM242.345 197.939C242.144 200.25 242.244 202.46 242.345 204.771L242.546 211.603L242.947 225.268L243.148 239.033L243.349 249.281C243.45 250.386 243.349 251.492 243.852 252.195C244.254 252.898 245.158 253.3 246.163 253.903L249.177 255.611L255.004 259.128L266.86 266.06L278.616 272.993L284.544 276.409C286.051 277.314 287.458 278.218 288.965 278.921C289.065 277.314 288.965 275.505 288.965 273.797V266.965V253.3L288.864 239.636V232.803V229.387C288.864 228.182 288.864 227.177 288.462 226.473C288.061 225.67 287.156 225.167 286.152 224.564L283.238 222.856L277.41 219.239L265.655 212.206L254 204.972L248.273 201.355C246.263 200.149 244.455 198.943 242.345 197.939ZM288.965 278.921C288.965 279.457 288.931 279.993 288.864 280.529L290.472 279.624C289.936 279.424 289.434 279.189 288.965 278.921Z" fill="#53AFBE"/>
<path fill-rule="evenodd" clip-rule="evenodd" d="M289.969 285.854L289.869 312.379V325.742V332.374C289.869 333.479 289.969 334.584 289.869 335.689C289.869 336.895 289.266 338.201 288.261 338.904L265.454 352.87L254.1 359.703L248.373 363.119C246.464 364.224 244.555 365.329 242.445 366.334L240.938 367.037V365.43L240.737 362.014L240.837 358.597L240.938 351.765L241.139 338L241.44 324.336L241.641 317.503L241.742 314.087C241.742 312.982 241.842 311.676 242.545 310.47C243.148 309.365 244.354 308.662 245.359 308.159L248.272 306.451L254.2 303.136L266.157 296.303L289.768 282.639L289.969 285.854ZM289.969 285.854L289.768 282.739L266.358 296.705L254.703 303.839L248.775 307.355L245.861 309.164C244.957 309.767 244.052 310.37 243.55 311.173C243.048 312.078 243.048 313.083 243.048 314.188V317.604V324.436V338.101V351.765V358.597L242.947 362.014L243.048 363.722C244.454 363.018 245.861 362.215 247.268 361.31L253.095 357.995L264.549 351.363L287.658 338.201C289.366 337.096 288.965 334.584 289.065 332.374L289.266 325.742L289.567 312.48L289.969 285.854ZM243.048 363.822C242.512 364.09 242.009 364.325 241.541 364.525L243.048 365.43V363.822Z" fill="#53AFBE"/>
<path fill-rule="evenodd" clip-rule="evenodd" d="M289.166 395.472C289.768 413.356 290.17 431.442 290.572 449.728V450.23L290.17 450.431L289.467 450.733H289.567C289.467 450.733 289.366 450.833 289.065 450.833C288.998 450.833 288.931 450.833 288.864 450.833C288.663 450.833 288.563 450.733 288.563 450.733H288.462L288.06 450.532L287.256 450.13C286.754 449.929 286.252 449.527 285.749 449.326L282.836 447.618L276.908 444.101L265.253 437.269L241.742 423.404L241.239 423.102V422.499L241.038 394.969C241.038 385.826 240.938 376.582 240.938 367.439V365.932L242.244 366.635L265.855 381.104L289.166 395.472ZM289.166 395.472L265.152 381.807L242.646 368.846C242.847 377.487 242.947 386.228 243.048 394.869L243.349 421.796L266.257 435.461L277.912 442.494L283.74 445.91L286.654 447.718C287.156 448.02 287.658 448.321 288.06 448.522L288.864 448.924C288.864 431.241 288.965 413.457 289.166 395.472ZM242.646 368.846C242.646 368.377 242.646 367.875 242.646 367.339L241.34 368.042L242.646 368.846ZM243.349 421.896L242.847 421.495L243.349 422.499V421.896ZM289.166 449.125L289.266 448.924C289.199 448.991 289.132 449.058 289.065 449.125L288.864 449.025C288.864 449.226 288.864 449.46 288.864 449.728L289.166 449.226C289.266 449.226 289.366 449.226 289.266 449.226L289.166 449.125ZM289.166 449.226C289.099 449.159 289.032 449.125 288.965 449.125C288.965 449.192 288.965 449.226 288.965 449.226L289.065 449.125H289.166V449.226ZM288.965 449.226C288.898 449.226 288.898 449.226 288.965 449.226V449.226Z" fill="#53AFBE"/>
<path fill-rule="evenodd" clip-rule="evenodd" d="M288.362 392.658L265.454 379.898L254 373.568L248.172 370.453C246.263 369.348 244.354 368.444 242.545 367.138L241.943 366.736L242.545 366.234C244.354 364.726 246.364 363.722 248.273 362.516L254.201 359.1L266.057 352.167L277.913 345.335L283.941 342.019L286.855 340.311C287.859 339.809 288.965 338.904 290.572 338.904C291.376 338.904 292.079 339.206 292.682 339.507C293.285 339.809 293.687 340.01 294.29 340.311L297.204 342.019L303.132 345.435L315.088 352.268L326.844 359.2L332.772 362.616C334.781 363.822 336.791 364.827 338.599 366.334L339.302 366.836L338.599 367.339C334.48 369.65 330.26 371.86 326.04 374.171L313.581 380.903L301.122 387.836L294.893 391.252C293.888 391.754 292.883 392.457 291.778 392.96C290.673 393.462 289.367 393.362 288.362 392.658ZM288.362 392.658C289.367 393.362 290.673 393.462 291.778 392.859C292.783 392.357 293.787 391.754 294.893 391.151L301.022 387.635L313.38 380.601L325.738 373.468C329.556 371.257 333.374 369.047 337.192 366.736C335.585 365.631 333.776 364.827 332.068 363.822L326.04 360.507L314.083 353.976L296.199 343.928L293.185 342.22L291.678 341.416C291.276 341.215 290.907 341.115 290.572 341.115C289.869 341.115 288.965 341.517 287.96 342.12L284.946 343.828L278.917 347.143L266.961 353.775L254.904 360.306L248.875 363.621C247.167 364.626 245.258 365.53 243.651 366.635C245.158 367.841 246.966 368.645 248.674 369.65L254.301 373.066L265.655 379.597L288.362 392.658ZM337.192 366.736C337.393 366.937 337.628 367.104 337.896 367.238V366.334C337.695 366.468 337.46 366.602 337.192 366.736ZM243.651 366.635C243.45 366.501 243.249 366.368 243.048 366.234V367.037C243.249 366.903 243.45 366.769 243.651 366.635Z" fill="#53AFBE"/>
<path fill-rule="evenodd" clip-rule="evenodd" d="M291.275 398.084C291.175 396.878 291.476 395.572 292.381 394.768C293.285 393.965 294.39 393.462 295.395 392.859L301.423 389.142L313.681 381.908L325.839 374.472L331.968 370.755C333.977 369.549 335.987 368.243 338.197 367.138L338.8 366.836L339.001 367.54C339.101 368.042 339.403 368.544 339.503 369.248V371.056V374.472V381.305V394.969V408.734V415.567L339.403 418.983V420.691C339.403 421.394 339.202 422.198 338.8 422.901C337.996 424.207 336.69 424.81 335.786 425.313L326.844 430.437L314.987 437.37C307.083 441.857 299.146 446.312 291.175 450.733L290.371 451.135V450.331C290.371 449.226 290.271 448.12 290.271 447.015L290.371 443.8L290.472 437.269L290.773 424.207L291.275 398.084ZM291.275 398.084L291.175 424.207V437.269L291.275 443.8V447.015C291.275 447.819 291.376 448.623 291.376 449.426C299.012 444.939 306.615 440.384 314.184 435.762L325.939 428.729L331.767 425.212L334.781 423.504C335.786 422.901 336.69 422.399 336.991 421.695C337.192 421.428 337.293 421.059 337.293 420.59V418.983L337.393 415.567L337.494 408.634L337.695 394.969L337.996 381.305L338.197 374.472L338.298 371.056V369.348C338.298 369.147 338.197 368.846 338.097 368.444C336.188 369.449 334.379 370.554 332.571 371.559L326.341 375.075L313.983 382.109L301.624 389.343L295.495 392.859C294.491 393.563 293.385 393.965 292.481 394.768C291.577 395.673 291.275 396.878 291.275 398.084ZM291.376 449.426C291.175 449.56 290.941 449.694 290.673 449.828L291.476 450.23C291.476 449.962 291.443 449.694 291.376 449.426ZM338.097 368.444C338.298 368.377 338.532 368.277 338.8 368.143L337.896 367.841C337.963 368.042 338.03 368.243 338.097 368.444Z" fill="#53AFBE"/>
<path fill-rule="evenodd" clip-rule="evenodd" d="M336.891 364.525L313.682 351.062L302.027 344.33L296.199 341.014L293.285 339.306C292.883 339.105 292.281 338.804 291.879 338.302C291.376 337.799 291.075 337.196 290.974 336.594C290.673 327.45 290.472 318.609 290.271 309.666L290.07 296.203L289.97 286.155V284.447C289.97 283.945 290.07 283.242 290.171 282.639L290.372 281.132L291.778 281.835C292.783 282.438 293.788 282.84 294.792 283.443L297.706 285.251L303.634 288.667L315.289 295.7L326.944 302.834L332.772 306.351L335.686 308.159C336.59 308.762 337.796 309.365 338.499 310.47C339.202 311.676 339.102 313.083 339.102 314.087V317.503V324.336L339.001 338C338.901 347.143 339.102 356.186 338.901 365.329C338.198 365.028 337.494 364.927 336.891 364.525ZM336.891 364.525C337.494 364.927 338.198 365.028 338.901 365.329C339.001 356.186 338.7 347.143 338.599 338L338.097 317.503V314.087C337.997 312.982 338.097 311.877 337.494 311.073C336.992 310.269 336.088 309.867 335.083 309.265L332.069 307.556L326.141 304.14L314.385 297.409L302.529 290.476L296.702 287.06L293.687 285.352L292.08 284.548L292.18 296.203V309.666L291.979 336.393C292.08 337.297 292.883 338 293.788 338.503L296.702 340.311L302.429 343.828L313.883 350.761L336.891 364.525ZM292.08 284.447C292.08 283.844 292.281 283.443 292.281 282.94L290.774 283.744L292.08 284.447Z" fill="#53AFBE"/>
<path fill-rule="evenodd" clip-rule="evenodd" d="M388.133 286.256L388.032 312.781V326.044L388.133 332.675C388.032 333.78 388.133 334.785 388.032 335.991C387.831 337.196 387.128 338.402 386.224 339.105C378.588 343.928 371.153 348.349 363.517 353.071L340.809 366.635L339.302 367.54L339.101 365.731C339.101 364.626 339.001 363.42 338.9 362.215L339.001 358.798L339.101 351.966L339.302 338.302L339.604 324.537L339.805 317.704L339.905 314.288C339.905 313.183 339.905 311.877 340.508 310.671C341.211 309.365 342.417 308.863 343.422 308.36L346.335 306.652L352.364 303.236L364.22 296.504L376.076 289.571L382.004 286.155C384.013 285.05 385.922 283.844 388.032 282.94H388.133V286.256ZM388.133 286.256L388.032 282.94C385.922 283.844 384.013 285.151 382.004 286.256L376.176 289.772L364.421 296.806L352.665 303.939L346.838 307.456L343.924 309.264C342.919 309.867 341.915 310.37 341.513 311.274C341.111 312.078 341.111 313.183 341.111 314.288V317.704L341.211 324.537V338.302L341.111 351.966V358.899V362.315C341.111 362.851 341.111 363.387 341.111 363.923L362.612 351.464C370.248 347.043 378.085 342.723 385.521 338.302C386.324 337.699 386.827 336.895 387.028 335.89C387.229 334.885 387.128 333.78 387.229 332.675L387.329 326.044L387.631 312.781L388.133 286.256ZM388.032 282.94C388.099 282.94 388.133 282.94 388.133 282.94H388.032ZM341.211 363.822L339.704 364.726L341.312 365.53C341.312 364.994 341.278 364.425 341.211 363.822Z" fill="#53AFBE"/>
<path fill-rule="evenodd" clip-rule="evenodd" d="M387.329 395.673C387.932 413.557 388.334 431.743 388.736 449.929V451.135L387.731 450.833L386.726 450.431L385.923 450.029C385.387 449.761 384.851 449.527 384.315 449.326L381.301 447.718C379.291 446.613 377.282 445.508 375.272 444.302L363.316 437.57L351.46 430.537C347.541 428.226 343.623 425.815 339.704 423.203L339.302 422.901L339.202 422.399L339.102 395.17C339.102 386.128 338.901 377.085 339.001 368.042V366.836L340.006 367.238L341.011 367.64L341.814 368.042C342.35 368.31 342.853 368.578 343.321 368.846L346.336 370.453L352.364 373.87L364.22 380.903L375.875 388.137C379.794 390.548 383.612 393.06 387.329 395.673ZM387.329 395.673C383.511 393.261 379.492 390.95 375.574 388.639L363.617 381.807L351.661 375.075L345.632 371.86L342.618 370.253C342.082 369.985 341.58 369.75 341.111 369.549L340.709 369.348C340.91 377.989 341.011 386.63 341.111 395.17L341.412 421.796C345.03 424.207 348.848 426.418 352.565 428.729L364.321 435.762L376.177 442.695L382.205 446.111L385.219 447.718C385.688 447.986 386.157 448.254 386.626 448.522L387.028 448.723C387.028 431.14 387.128 413.557 387.329 395.673ZM340.709 369.348C340.709 368.946 340.709 368.511 340.709 368.042L339.704 368.946L340.307 369.147L340.709 369.348ZM341.412 421.796C341.278 421.662 341.144 421.562 341.011 421.495L341.412 422.298V421.796ZM387.028 448.723C387.028 449.192 387.028 449.627 387.028 450.029L388.033 449.226L387.43 448.924L387.028 448.723Z" fill="#53AFBE"/>
<path fill-rule="evenodd" clip-rule="evenodd" d="M385.722 392.156L363.115 379.496L351.661 373.267C347.943 371.157 344.025 369.248 340.408 366.937L339.704 366.535L340.408 366.033C341.312 365.43 342.216 364.726 343.221 364.124L352.163 358.999L364.019 352.067L375.875 345.234L384.817 340.11C385.822 339.608 387.028 338.804 388.535 338.804C390.143 338.804 391.348 339.708 392.253 340.211L395.267 341.919L401.195 345.335L413.051 352.167L424.907 359.1L430.835 362.516C432.844 363.722 434.753 364.827 436.662 366.234L437.366 366.836L436.562 367.238L411.343 381.104L398.683 388.036L392.453 391.553C391.348 392.156 390.344 392.859 389.138 393.06C387.932 393.261 386.726 392.759 385.722 392.156ZM385.722 392.156C386.726 392.759 387.932 393.161 389.138 392.96C390.344 392.759 391.348 392.055 392.353 391.453L398.683 387.936L411.142 380.802L435.256 366.736C433.648 365.631 431.839 364.726 430.131 363.722L424.103 360.506L412.146 353.875L400.09 347.143L394.162 343.828L391.147 342.12C390.143 341.517 389.339 341.014 388.535 341.014C387.731 341.014 386.927 341.416 385.923 342.019L382.908 343.627L376.88 347.043L364.923 353.674L352.867 360.205L346.838 363.42L343.824 365.128C343.02 365.53 342.317 366.033 341.613 366.535C344.929 368.745 348.546 370.654 351.962 372.764L363.215 379.295L385.722 392.156ZM435.256 366.635C435.524 366.836 435.758 367.004 435.959 367.138L436.059 366.234L435.256 366.635ZM341.613 366.434C341.345 366.233 341.111 366.066 340.91 365.932V366.836C341.111 366.702 341.345 366.568 341.613 366.434Z" fill="#53AFBE"/>
<path fill-rule="evenodd" clip-rule="evenodd" d="M389.439 398.184C389.339 396.979 389.64 395.673 390.544 394.869C391.449 394.065 392.554 393.563 393.559 392.96L399.688 389.242L411.946 382.008L424.103 374.573L430.232 370.855C432.241 369.65 434.251 368.344 436.461 367.238L437.165 366.836L437.265 367.64L437.567 369.348C437.667 369.951 437.667 370.654 437.667 371.157V374.573V381.405V395.17V408.835L437.567 415.667V419.083C437.567 420.088 437.667 421.595 436.964 422.901C436.16 424.308 434.753 425.011 433.949 425.514L430.935 427.222L425.007 430.638L413.151 437.57L401.295 444.302L395.367 447.718C393.358 448.723 391.449 450.029 389.238 450.833L388.535 451.135V450.431C388.334 448.221 388.434 446.01 388.535 443.9L388.635 437.37L388.937 424.308L389.439 398.184ZM389.439 398.184L389.339 424.308V437.37L389.439 443.9C389.439 445.809 389.439 447.718 389.54 449.627C391.348 448.824 393.056 447.618 394.764 446.613L400.592 443.097L412.347 435.963L424.103 428.93L432.945 423.605C433.949 423.002 434.753 422.6 435.055 421.896C435.457 421.193 435.457 420.289 435.457 419.083L435.557 415.667L435.658 408.835L435.858 395.07L436.16 381.405L436.361 374.573L436.461 371.157C436.461 370.554 436.461 370.052 436.461 369.549L436.361 368.645C434.452 369.549 432.643 370.654 430.835 371.659L424.605 375.176L412.146 382.209L399.889 389.443L393.659 393.06C392.654 393.663 391.549 394.165 390.645 394.869C389.741 395.673 389.439 396.979 389.439 398.184ZM389.54 449.627C389.339 449.761 389.104 449.862 388.836 449.929L389.64 450.331C389.573 450.13 389.54 449.895 389.54 449.627ZM436.361 368.645C436.562 368.511 436.796 368.377 437.064 368.243L436.16 367.841L436.361 368.645Z" fill="#53AFBE"/>
<path fill-rule="evenodd" clip-rule="evenodd" d="M389.64 337.699C389.138 319.814 388.635 301.628 388.334 283.342V282.136L389.339 282.538L390.343 282.84L391.147 283.242C391.616 283.51 392.119 283.777 392.654 284.045L395.669 285.653C397.779 286.658 399.788 287.863 401.697 288.969L413.654 295.7L425.51 302.734C429.428 305.045 433.347 307.355 437.165 310.068L437.667 310.37V310.872L437.767 338.302C437.868 347.445 437.968 356.588 437.868 365.731V367.238L436.662 366.535L412.95 352.067L389.64 337.699ZM389.64 337.699L413.754 351.363L436.16 364.325C435.959 355.684 435.959 347.043 435.858 338.402L435.457 311.575C431.94 309.164 428.122 306.853 424.404 304.542L412.649 297.509L400.793 290.677L394.865 287.261L391.851 285.653C391.382 285.385 390.879 285.117 390.343 284.849L390.042 284.648C389.942 302.231 389.841 319.814 389.64 337.699ZM436.16 364.325C436.16 364.86 436.193 365.363 436.26 365.832L437.466 365.128L436.16 364.325ZM435.457 311.475C435.657 311.609 435.825 311.709 435.959 311.776L435.457 310.973V311.475ZM390.042 284.548C390.042 284.146 390.042 283.71 390.042 283.242L389.037 284.146L389.64 284.347L390.042 284.548Z" fill="#53AFBE"/>
<path fill-rule="evenodd" clip-rule="evenodd" d="M485.392 395.572L486.196 422.901L486.799 450.632V452.139L485.493 451.335C477.555 446.814 469.618 442.092 461.68 437.47L437.968 423.504L437.366 423.203V422.499L437.265 394.969C437.265 385.826 437.064 376.582 437.165 367.439V365.932L438.471 366.736L462.082 381.104L485.392 395.572ZM485.392 395.572L461.278 381.908L438.873 368.946C439.074 377.688 439.174 386.328 439.275 394.969L439.576 421.997L462.685 435.762C470.12 440.183 477.656 444.604 485.091 449.125L485.191 423.303L485.392 395.572ZM438.772 368.946C438.772 368.411 438.772 367.908 438.772 367.439L437.466 368.143L438.772 368.946ZM439.476 421.997L438.973 421.595L439.476 422.6V421.997ZM484.99 449.226V450.733L486.297 449.929C485.828 449.661 485.392 449.426 484.99 449.226Z" fill="#53AFBE"/>
<path fill-rule="evenodd" clip-rule="evenodd" d="M243.952 85.9096L266.86 98.7704L278.415 105.1L284.142 108.215C286.051 109.32 287.96 110.224 289.869 111.531L290.472 112.033L289.869 112.435C288.864 113.038 287.96 113.741 286.955 114.344L284.042 116.052L278.114 119.468L266.258 126.401L254.301 133.233L248.373 136.549L245.459 138.257C244.455 138.759 243.349 139.664 241.742 139.664C240.938 139.664 240.235 139.463 239.632 139.161C238.928 138.759 238.527 138.558 238.024 138.257L235.11 136.549L229.182 133.133L217.226 126.3L205.47 119.468L199.542 115.952C197.533 114.746 195.523 113.741 193.715 112.334L192.911 111.732L193.715 111.33L218.733 97.6652L231.192 90.7324L237.421 87.3163C238.426 86.7134 239.431 86.1106 240.536 85.6082C241.641 85.1058 242.947 85.3068 243.952 85.9096ZM243.952 85.9096C242.947 85.3068 241.641 85.2063 240.536 85.7087C239.531 86.2111 238.527 86.8139 237.421 87.4168L231.292 90.9334L218.934 97.9666L206.576 105.1L195.122 111.832C196.729 112.937 198.437 113.842 200.145 114.746L206.174 118.061L218.231 124.693L230.187 131.324L239.129 136.348L240.536 137.152C240.938 137.353 241.34 137.453 241.742 137.453C242.445 137.453 243.349 137.051 244.354 136.448L247.368 134.74L253.397 131.425L265.353 124.793L277.41 118.262L283.439 114.947L286.453 113.339C287.156 112.937 287.86 112.435 288.663 111.933C287.156 110.827 285.348 109.923 283.74 108.918L278.114 105.603L266.76 98.9713L243.952 85.9096ZM195.021 111.832C194.753 111.698 194.519 111.531 194.318 111.33L194.217 112.334L195.021 111.832ZM288.563 111.933C288.764 112.067 288.965 112.2 289.166 112.334V111.531C288.965 111.665 288.764 111.799 288.563 111.933Z" fill="#53AFBE"/>
<path fill-rule="evenodd" clip-rule="evenodd" d="M146.592 29.1417L169.601 42.6053L181.156 49.2366L186.983 52.5522L189.897 54.2603C190.801 54.7627 192.107 55.466 192.409 56.8727C192.61 58.1788 192.509 59.1836 192.61 60.2888V63.7049L192.811 70.3362L193.112 83.6993L193.414 103.794V107.11C193.414 108.215 193.614 109.22 193.313 110.627L193.112 111.832L192.107 111.531C191.772 111.397 191.404 111.263 191.002 111.129L190.198 110.727C189.662 110.526 189.16 110.258 188.691 109.923L185.677 108.316L179.649 105L167.793 98.0672C163.874 95.7563 159.956 93.3449 156.037 90.9335C152.219 88.4217 148.3 86.0103 144.583 83.3979L144.281 83.197V82.8956L144.482 55.667L144.382 28.3379C145.085 28.6393 145.889 28.7398 146.592 29.1417ZM146.592 29.1417C145.889 28.7398 145.085 28.6393 144.382 28.3379L144.784 55.667L145.487 82.5941C149.205 85.0055 153.023 87.3164 156.941 89.5269L168.797 96.3591L180.653 103.191L186.682 106.407L189.696 108.014L191.203 108.818H191.304C191.304 108.316 191.304 107.612 191.304 107.11V103.794V97.0625V83.6993V70.3362L191.404 63.7049V60.3893C191.404 59.284 191.505 57.9779 191.404 57.1741C191.203 56.1693 190.399 55.667 189.395 55.0641L186.581 53.356L180.854 49.8394L169.501 42.9067L146.592 29.1417ZM145.487 82.5941C145.42 82.5271 145.353 82.4602 145.286 82.3932L145.487 82.8956V82.5941ZM191.304 108.818C191.304 109.421 191.304 109.923 191.203 110.325L192.409 109.32C192.275 109.253 192.107 109.186 191.906 109.119L191.304 108.818Z" fill="#53AFBE"/>
<path fill-rule="evenodd" clip-rule="evenodd" d="M146.994 86.6131L169.4 99.1724L191.806 111.531L192.509 111.933L191.906 112.335C191.002 113.038 190.098 113.842 189.093 114.445L186.079 116.153L180.151 119.569L168.295 126.501L156.439 133.334L150.511 136.75L147.497 138.458C146.492 138.96 145.186 139.664 143.779 139.664C142.272 139.664 140.966 138.86 140.062 138.357L137.047 136.649L119.163 126.401L107.307 119.569L101.379 116.052L98.4651 114.344L95.5514 112.435L94.7476 111.832L95.5514 111.43C104.092 106.607 112.632 102.086 121.072 97.4643L133.832 90.3306L140.162 86.814C141.267 86.2112 142.372 85.6083 143.578 85.6083C144.784 85.5079 145.99 86.0102 146.994 86.6131ZM146.994 86.6131C145.99 86.0102 144.784 85.5079 143.578 85.6083C142.372 85.7088 141.267 86.3117 140.263 86.9145L133.933 90.5316L121.273 97.7657C113.235 102.488 105.096 107.11 97.0585 111.933C104.594 116.354 112.532 120.373 120.168 124.693L132.124 131.425L138.153 134.74L141.066 136.448C142.172 137.051 142.875 137.453 143.779 137.453C144.583 137.554 145.487 137.152 146.391 136.549L149.406 134.941L155.434 131.626L167.391 124.894L179.448 118.363L185.476 115.047L188.49 113.44C189.294 113.038 189.997 112.536 190.701 112.033L180.352 105.904L169.199 99.3733L146.994 86.6131ZM97.0585 111.933C96.7905 111.732 96.5226 111.564 96.2547 111.43V112.435C96.5226 112.301 96.7905 112.134 97.0585 111.933ZM190.701 112.033L191.404 112.435L191.304 111.631C191.103 111.765 190.902 111.899 190.701 112.033Z" fill="#53AFBE"/>
<path fill-rule="evenodd" clip-rule="evenodd" d="M143.377 31.4525L143.276 58.0783L143.377 71.3409V77.9722C143.377 79.0774 143.477 80.1827 143.276 81.3884C143.075 82.4936 142.473 83.6993 141.468 84.5031C133.932 89.3258 126.397 93.7467 118.761 98.3686L107.407 105.201L101.68 108.617L98.8666 110.325L95.8524 111.832L94.3452 112.636L94.2448 110.928L94.1443 107.411L94.2448 103.995L94.3452 97.1629L94.5462 83.4983L94.8476 69.7333L95.0486 62.901L95.149 59.4849C95.149 58.3797 95.149 57.0735 95.8524 55.8678C96.5557 54.7626 97.7614 54.0593 98.6656 53.4564L101.68 51.8488L107.608 48.4327L119.564 41.6004L143.276 27.9359L143.377 31.4525ZM143.377 31.4525L143.176 27.9359L119.665 41.9019L108.01 49.0356L102.082 52.6526L99.168 54.4612C98.1633 54.9636 97.3595 55.5664 96.8571 56.4707C96.4552 57.2745 96.3547 58.3797 96.3547 59.4849V62.901L96.4552 69.7333V83.4983C96.4552 92.0387 96.2543 100.579 96.3547 109.119L97.7614 108.416L100.575 106.708L106.302 103.392L117.856 96.761C125.492 92.3401 133.329 88.0197 140.764 83.5988C141.568 82.996 142.071 82.1922 142.272 81.1874C142.473 80.1827 142.372 78.977 142.473 77.8718L142.673 71.2404L142.975 57.9778L143.377 31.4525ZM96.3547 109.119L94.7471 109.823L96.3547 110.827C96.3547 110.225 96.3547 109.655 96.3547 109.119Z" fill="#53AFBE"/>
<path fill-rule="evenodd" clip-rule="evenodd" d="M49.4333 25.7254L72.643 12.4628L84.298 5.73102L90.025 2.31489L92.9388 0.707294C93.9436 0.104447 95.3502 -0.196978 96.5559 0.305395C104.594 4.6258 112.23 8.9462 120.167 13.1661L131.822 19.697L137.65 22.9122C139.559 24.0174 141.568 25.0221 143.477 26.4288L144.884 27.4335L143.377 28.2373C135.44 32.8591 127.402 37.1795 119.464 41.6004L107.508 48.1313L101.479 51.4469L98.4649 53.0545C97.4602 53.5569 96.4554 54.2602 95.0488 54.3607C93.6421 54.4612 92.5369 53.6574 91.6326 53.0545L88.6184 51.3464L70.9349 40.9976L59.0789 34.1653L53.1509 30.7492C51.1414 29.644 49.1319 28.5387 47.3234 27.2326L49.4333 25.7254ZM49.4333 25.7254L47.3234 27.1321C49.1319 28.5387 51.2419 29.5435 53.1509 30.6487L59.1794 33.9644L71.0354 40.6961L83.0923 47.227L89.1208 50.4422L92.135 52.1502C93.1398 52.6526 94.044 53.2555 94.9483 53.155C95.8526 53.155 96.7568 52.4517 97.7616 51.9493L100.776 50.2412L106.704 46.7246L118.459 39.8924L140.765 27.2326C139.459 26.3283 137.951 25.5245 136.545 24.7207L130.818 21.405L119.163 14.7737C111.527 10.2524 103.79 5.63054 96.154 1.31014C94.3454 0.405869 92.336 2.11393 90.4269 3.11868L84.4989 6.23339L72.8439 12.6638L49.4333 25.7254ZM47.3234 27.2326C47.2564 27.2326 47.2229 27.2326 47.2229 27.2326H47.3234ZM140.865 27.333C141.334 27.601 141.803 27.9359 142.272 28.3378V26.4288L140.865 27.333Z" fill="#53AFBE"/>
<path fill-rule="evenodd" clip-rule="evenodd" d="M46.5196 28.0363L94.1445 55.3653L94.5464 55.5663L94.6469 56.0686C94.8478 65.2118 94.8478 74.355 95.0488 83.4982L95.3502 110.928V112.736L93.7426 111.932L90.6279 110.325L87.7141 108.516L81.8866 105L70.0306 98.067L58.2751 91.0338L52.4476 87.5172L49.5338 85.7086C48.5291 85.2063 47.3234 84.4025 46.6201 83.1968C45.9167 81.8906 45.9167 80.484 45.9167 79.3787L46.0172 75.9626V69.1303V55.4658L46.2182 41.7008C46.2182 37.1794 46.2182 32.5576 46.5196 28.0363ZM46.5196 28.0363C46.5196 37.1794 46.9215 46.3226 47.1224 55.4658L47.4239 69.1303L47.5243 75.9626L47.6248 79.3787C47.6248 80.5844 47.6248 81.5892 48.1272 82.2925C48.5291 83.0963 49.3329 83.5987 50.3376 84.2015L53.3519 85.9096L59.2799 89.3257L71.1359 96.2585L82.8914 103.191L88.8194 106.708L91.8336 108.416L93.1398 109.119L93.0393 83.4982C92.9388 74.556 92.8384 65.5133 92.9388 56.4705L46.5196 28.0363ZM93.1398 109.22V111.028L94.7474 110.023L93.1398 109.22ZM92.9388 56.571L93.3407 56.8724L92.9388 56.1691C92.9388 56.3031 92.9388 56.437 92.9388 56.571Z" fill="#53AFBE"/>
<path d="M44.7112 85.5077C43.6059 85.7086 42.6012 86.4119 41.496 87.0148L35.2666 90.4309L22.7072 97.4641L10.1479 104.296C6.73179 106.105 3.31566 107.913 0 109.822V111.028C3.41613 109.019 6.93274 107.009 10.4494 104.899L22.9082 97.7655L41.5965 87.1153C42.6012 86.5124 43.6059 85.8091 44.8116 85.5077C45.9169 85.2062 47.1225 85.6081 48.2278 86.1105C47.223 85.5077 45.9169 85.2062 44.7112 85.5077Z" fill="#53AFBE"/>
<path d="M93.5418 111.43C89.8242 109.119 86.0062 107.21 82.1882 105.1L70.8345 98.7704L48.2278 86.1106L70.7341 99.0718L81.8867 105.603C85.4033 107.713 89.0204 109.722 92.4366 111.933C92.1686 112.133 91.9007 112.334 91.6328 112.535C91.3313 112.837 90.7285 113.138 90.2261 113.339L87.2119 115.047L81.1834 118.262L69.1265 124.793L57.17 131.525L51.1415 134.841L48.1273 136.448C47.1226 137.051 46.2183 137.654 45.515 137.554C45.18 137.554 44.8116 137.42 44.4097 137.152L42.9026 136.348L39.9889 134.64L33.9604 131.324L22.0039 124.592L9.94698 117.961L0.904271 113.038L0 112.535V113.942L0.301424 114.143L3.21519 115.851L9.14318 119.368L20.9992 126.3L32.9556 133.133L38.8836 136.549L41.8979 138.257L43.3045 139.061C43.9074 139.362 44.7112 139.664 45.515 139.664C47.1226 139.764 48.2278 138.86 49.2325 138.357L52.1463 136.649L58.1748 133.233L70.0307 126.401L81.8867 119.569L87.8147 116.052L90.829 114.344C91.3313 114.043 91.7332 113.842 92.3361 113.44C92.8385 113.038 93.1399 112.636 93.5418 112.234L94.1446 111.832L93.5418 111.43Z" fill="#53AFBE"/>
<path d="M45.2135 71.2403V57.9777L45.314 31.3519L44.9121 57.9777L44.6107 71.2403L44.4097 77.8716C44.3093 80.0821 44.7112 82.4935 43.0031 83.5987L19.894 96.7608L8.43986 103.493L2.71281 106.808C1.77505 107.344 0.870779 107.847 0 108.315V110.727C1.27268 110.057 2.51186 109.354 3.71756 108.617L9.44461 105.201L20.8987 98.3684L43.6059 84.5029C44.6107 83.6992 45.2135 82.393 45.314 81.2878C45.314 80.0821 45.314 78.9769 45.314 77.8716L45.2135 71.2403Z" fill="#53AFBE"/>
<path d="M45.2135 28.3379C44.1083 28.8403 43.1036 29.3426 42.0988 29.845L39.1851 31.5531L33.2571 35.0697L21.4011 41.902L9.54508 48.6337L3.61708 51.9494L0.703322 53.6575C0.43539 53.7914 0.200949 53.9254 0 54.0594V55.466C0.334915 55.1981 0.736814 54.9301 1.2057 54.6622L4.11946 52.8537L9.94698 49.3371L21.602 42.2034L33.3575 35.1702L39.1851 31.6535L42.1993 29.9455C43.1036 29.4431 44.2088 28.9407 45.1131 28.3379L45.314 31.3521L45.2135 28.3379Z" fill="#53AFBE"/>
<path d="M45.314 26.3284C43.405 24.9217 41.3955 23.917 39.4865 22.8118L33.659 19.5966L22.0039 13.0657C14.6693 9.04674 7.43511 5.02776 0 1.10925V2.31495C6.93274 6.33393 14.0664 10.5539 21.0996 14.6733L32.6542 21.3046L38.4817 24.6203C39.8884 25.4241 41.295 26.2279 42.6012 27.1322L20.3963 39.7919L8.54033 46.6242L2.61234 50.1408L0 51.6479V53.1551C0.066983 53.0881 0.167458 53.0211 0.301424 52.9541L3.31566 51.3465L9.34413 48.0308L21.3006 41.5C29.2381 37.0791 37.276 32.6583 45.2135 28.1369L46.6202 27.3331L45.314 26.3284Z" fill="#53AFBE"/>
<path d="M19.9944 522.672L8.13844 515.74L2.21044 512.223L0 510.917V512.123L1.70807 513.127L7.73654 516.343L19.7935 522.974L20.6978 523.476H21.4011L19.9944 522.672Z" fill="#53AFBE"/>
<path d="M9.04271 513.831L0.301424 508.505C0.167458 508.438 0.066983 508.371 0 508.305V510.214L2.41139 511.62L8.33939 515.036L20.1954 521.869L23.0087 523.476H24.8172L20.6978 520.964L9.04271 513.831Z" fill="#53AFBE"/>
<path d="M44.0078 480.071C43.3045 478.765 41.9983 478.162 41.0941 477.66L38.1803 475.851L32.3528 472.335L20.5973 465.402L8.94223 458.369L3.01424 454.852L0.100475 453.144C0.0334919 453.077 0 453.044 0 453.044V455.555L2.00949 456.761L7.83701 460.177L19.5925 467.11L31.348 474.043L37.276 477.459L40.1898 479.167C41.1945 479.77 42.0988 480.172 42.6012 480.975C43.1036 481.679 43.1036 482.583 43.1036 483.789V487.205L43.3045 494.037L43.5055 507.702C43.6394 512.926 43.7734 518.184 43.9074 523.476H44.5102C44.5102 522.739 44.5102 522.003 44.5102 521.266L44.6107 507.702L44.7112 494.037V487.205V483.789C44.7112 482.784 44.8116 481.277 44.0078 480.071Z" fill="#53AFBE"/>
<path d="M8.74128 457.665L3.01424 454.35C2.00949 453.747 1.00475 453.144 0 452.541V453.646C0.870779 454.115 1.74156 454.618 2.61234 455.153L8.43986 458.268L19.894 464.598L42.8021 477.358L19.9944 464.297L8.74128 457.665Z" fill="#53AFBE"/>
<path d="M93.1399 451.034C91.2309 449.628 89.2214 448.522 87.3124 447.317L81.3844 443.9L69.5284 436.968L51.6439 426.719L48.7301 425.011C48.2278 424.81 47.8259 424.509 47.1225 424.207C46.5197 423.906 45.8164 423.705 45.0126 423.705C43.405 423.705 42.2998 424.509 41.3955 425.011L38.3813 426.719L32.4533 430.135L20.4968 436.968L8.74128 443.8L2.81329 447.216L0 448.924V450.23C0.133966 450.163 0.267933 450.063 0.401899 449.929L3.41613 448.321L9.4446 445.106L21.4011 438.575L33.458 431.844L39.386 428.528L42.4002 426.92C43.405 426.317 44.3093 425.815 45.0126 425.815C45.4145 425.815 45.8164 425.916 46.2183 426.116L47.6249 426.92L50.6392 428.628L56.5672 431.944L68.5236 438.676L80.5806 445.307L86.609 448.522C88.3171 449.527 90.0252 450.431 91.6328 451.537L67.9208 465.302L55.4619 472.435L49.333 475.952C48.2278 476.454 47.3235 477.158 46.2183 477.66C45.1131 478.162 43.8069 477.961 42.8021 477.358C43.8069 478.062 45.1131 478.162 46.2183 477.66C47.3235 477.158 48.3282 476.555 49.333 475.952L55.5624 472.536L68.0212 465.603L93.0394 452.039L93.8432 451.637L93.1399 451.034Z" fill="#53AFBE"/>
<path d="M45.4144 492.43V505.793L45.314 523.476H45.4144L45.7159 505.793L46.1178 492.43L46.2182 485.798C46.4192 483.688 45.9168 481.076 47.5244 479.971C55.06 475.55 62.897 471.229 70.6335 466.809L82.0876 460.177L87.8147 456.862C89.3218 456.058 90.8289 455.053 92.336 454.249C92.336 454.316 92.336 454.417 92.336 454.551C92.4365 454.852 92.336 455.555 92.336 456.058V459.474V466.306L92.2356 479.971V493.635V500.568L92.336 503.984C92.2356 505.089 92.4365 506.195 91.9341 506.998C91.7332 507.4 91.3313 507.702 90.9294 508.003L89.5228 508.807L86.5085 510.615L80.681 514.233L69.0259 521.266L65.4089 523.476H66.1122L69.2269 521.668L81.0829 514.835L87.0109 511.52L90.0251 509.812L91.5322 508.907C92.0346 508.606 92.6375 508.204 92.9389 507.601C93.6422 506.295 93.5417 504.989 93.5417 503.984L93.6422 500.568L93.8432 493.736L94.1446 480.071L94.3455 466.306L94.5465 456.058C94.5465 455.455 94.6469 455.053 94.5465 454.249C94.446 453.546 94.2451 453.044 94.1446 452.541L93.9436 451.135L92.6375 451.737C90.427 452.642 88.719 453.948 86.8099 455.053L81.0829 458.469L69.6288 465.201C62.0932 469.923 54.5576 474.344 46.9216 479.167C45.9168 479.87 45.4144 481.277 45.4144 482.483V485.798V492.43Z" fill="#53AFBE"/>
<path d="M70.0308 523.476L70.2318 523.376L82.1882 516.543L88.1162 513.027L91.03 511.319C92.0347 510.716 92.939 510.113 93.8433 510.113C94.3456 510.113 94.7475 510.314 95.2499 510.515L96.757 511.319L99.7713 513.027L105.699 516.242L117.756 522.873L118.861 523.476H119.565L117.957 522.572L106.101 515.539L100.173 512.123L97.2594 510.414L95.7523 509.51C95.2499 509.209 94.5466 508.907 93.8433 508.907C92.4366 508.907 91.3314 509.711 90.4271 510.214L87.4129 511.821L81.3844 515.137L69.3275 521.668L66.1123 523.476H70.0308Z" fill="#53AFBE"/>
<path d="M121.072 523.476H123.282L119.062 521.065L94.9482 507.4L118.258 521.768L121.072 523.476Z" fill="#53AFBE"/>
<path d="M94.1448 479.971L94.9486 507.4L95.2501 479.669V453.747C102.685 458.268 110.221 462.689 117.656 467.11L140.765 480.975L141.066 507.903C141.2 513.06 141.267 518.252 141.267 523.476H143.176C143.176 518.252 143.143 513.06 143.076 507.903L142.975 480.272V479.669L142.373 479.368L118.661 465.402C110.723 460.78 102.886 456.058 94.8482 451.536L93.542 450.733L93.6425 452.24L94.1448 479.971Z" fill="#53AFBE"/>
<path fill-rule="evenodd" clip-rule="evenodd" d="M141.368 477.66L118.158 464.699L106.503 458.369L100.675 455.153L96.3551 452.742C95.8527 452.441 95.4508 452.039 94.9484 451.637L94.446 451.235L95.0489 450.833L118.66 437.068L130.416 430.236L136.344 426.92L139.358 425.212C140.363 424.609 141.569 424.006 142.975 423.906C144.482 423.906 145.789 424.509 146.793 425.112L149.707 426.82L155.635 430.236L167.491 436.968L179.247 443.9L185.175 447.316C187.084 448.422 189.093 449.627 191.002 450.934L191.605 451.335L191.002 451.838C190.6 452.139 190.198 452.642 189.595 453.043L188.088 453.847L184.974 455.555L178.744 458.972L166.285 465.703L153.927 472.536L147.798 475.952L144.683 477.66C143.679 478.263 142.372 478.363 141.368 477.66ZM141.368 477.66C142.372 478.363 143.679 478.263 144.683 477.66L147.698 475.851L153.826 472.435L166.185 465.402L178.342 458.268L184.471 454.752L187.485 452.943L188.993 452.039C189.194 451.905 189.428 451.737 189.696 451.536C182.16 447.115 174.223 442.996 166.486 438.676L154.63 431.944L148.702 428.628L145.688 427.021C144.784 426.418 143.88 426.116 143.076 426.116C142.272 426.116 141.368 426.518 140.363 427.021L137.449 428.729L131.421 432.044L119.565 438.676L96.2546 451.335C96.4555 451.536 96.6565 451.737 96.8574 451.938L98.2641 452.742L101.178 454.45L106.905 457.766L118.359 464.498L141.368 477.66ZM189.696 451.436C189.897 451.57 190.098 451.704 190.299 451.838V450.934C190.098 451.068 189.897 451.235 189.696 451.436ZM96.2546 451.335C96.0536 451.134 95.8527 450.967 95.6517 450.833V451.637L96.2546 451.335Z" fill="#53AFBE"/>
<path d="M143.478 492.43V505.793L143.377 523.476H143.478L143.779 505.793L144.081 492.43L144.281 485.698C144.482 483.588 143.88 480.976 145.588 479.87C153.123 475.449 160.96 471.029 168.697 466.608L180.251 459.876L186.079 456.56C187.486 455.656 188.892 454.852 190.299 454.048C190.366 455.79 190.399 457.531 190.399 459.273V466.105L190.299 479.77V493.434V500.267L190.399 503.683C190.399 504.888 190.399 505.893 189.997 506.797C189.495 507.702 188.691 508.204 187.686 508.807L184.773 510.515L178.845 514.132L167.19 521.266L163.472 523.476H164.075L167.391 521.567L179.247 514.735L185.175 511.419L188.189 509.711C189.093 509.209 190.399 508.606 191.002 507.3C191.705 506.195 191.605 504.788 191.605 503.683L191.705 500.267L191.906 493.434L192.208 479.77L192.409 466.105L192.509 459.273C192.61 456.962 192.71 454.752 192.409 452.34L192.308 450.833L190.902 451.436C188.792 452.441 186.883 453.546 184.974 454.752L179.247 458.168L167.792 465C160.156 469.722 152.621 474.143 144.884 478.966C143.88 479.77 143.377 481.176 143.377 482.382L143.478 485.698V492.43Z" fill="#53AFBE"/>
<path d="M168.395 523.476L180.151 516.644L186.079 513.228L188.993 511.52C189.897 510.917 190.902 510.515 191.906 510.414C192.911 510.414 193.815 510.816 194.82 511.319L197.834 513.027L203.762 516.242L215.819 522.873L216.925 523.476H217.527L216.02 522.572L204.164 515.639L198.337 512.123L195.322 510.414C194.418 509.812 193.213 509.209 191.906 509.309C190.5 509.309 189.394 509.812 188.39 510.414L185.375 512.022L179.347 515.338L167.391 521.869C166.386 522.404 165.415 522.94 164.477 523.476H168.395Z" fill="#53AFBE"/>
<path d="M191.605 466.105L191.705 479.87L191.906 493.535L192.007 500.367V503.783C192.007 504.888 192.107 506.295 192.81 507.501C193.514 508.706 194.719 509.41 195.724 510.013L204.566 515.137L216.422 521.969L219.135 523.476H220.943L217.025 521.065L205.269 513.931L199.442 510.414L196.528 508.606C195.523 508.003 194.719 507.501 194.217 506.697C193.815 505.893 193.715 504.888 193.815 503.783V500.367V493.535L193.715 479.77L193.614 466.105V459.273V455.857L193.715 454.249L195.121 454.953L198.136 456.761L203.963 460.177L215.819 467.11L227.575 474.043L233.503 477.459L236.517 479.167C237.522 479.77 238.325 480.272 238.727 481.076C239.23 481.779 239.33 482.784 239.33 483.99V487.406L239.531 494.238L239.732 507.903C239.833 513.127 240.033 518.251 240.134 523.476H240.636C240.703 522.806 240.737 522.17 240.737 521.567L240.837 507.903L240.938 494.238V487.406V483.99C240.938 482.784 240.938 481.377 240.234 480.172C239.531 478.966 238.325 478.263 237.421 477.66L234.407 475.851L228.579 472.335L216.824 465.402L205.068 458.369L199.14 454.852L196.227 453.144L193.212 451.436L191.605 450.632V452.441L191.404 455.857L191.504 459.273L191.605 466.105Z" fill="#53AFBE"/>
<path fill-rule="evenodd" clip-rule="evenodd" d="M238.225 476.957L215.819 464.397L204.466 458.168C200.748 456.058 196.93 454.149 193.213 451.938L192.71 451.537L193.112 451.135C193.514 450.733 193.815 450.331 194.418 449.828L195.925 448.924L204.767 443.8L216.623 436.867L228.58 430.135L234.508 426.719L237.522 425.011L239.029 424.107C239.632 423.806 240.335 423.605 241.139 423.605C241.943 423.605 242.646 423.806 243.249 424.207L244.756 425.011L247.77 426.719L253.698 430.135L265.554 436.968L277.41 443.9L283.338 447.317L286.252 449.025L287.759 449.929C288.261 450.23 288.663 450.632 289.166 451.034L289.869 451.537L289.166 452.039C287.056 453.345 284.946 454.45 282.836 455.656L276.506 459.072L263.846 465.904L251.287 472.938L244.957 476.454C243.952 477.057 242.947 477.66 241.742 477.861C240.536 478.062 239.33 477.559 238.225 476.957ZM238.225 476.957C239.33 477.559 240.536 478.062 241.742 477.861C242.847 477.66 243.952 476.957 244.957 476.354L251.186 472.837L263.746 465.703L276.205 458.369L282.333 454.752C284.242 453.747 286.051 452.642 287.759 451.436C287.558 451.302 287.357 451.168 287.156 451.034L285.649 450.23L282.635 448.522L276.606 445.207L264.65 438.676L246.665 428.628L243.651 426.92L242.244 426.116C241.842 425.849 241.474 425.715 241.139 425.715C240.804 425.715 240.402 425.815 239.933 426.016L238.527 426.82L235.512 428.528L229.484 431.844L217.527 438.475L205.47 445.006L199.442 448.321L196.428 449.929L195.021 450.733C194.82 450.833 194.519 451.135 194.318 451.436C197.734 453.647 201.351 455.555 204.767 457.665L215.92 464.196L238.225 476.957ZM287.759 451.436C287.96 451.57 288.161 451.704 288.362 451.838L288.462 450.934C288.194 451.068 287.96 451.235 287.759 451.436ZM194.217 451.336C194.083 451.202 193.916 451.101 193.715 451.034L193.815 451.737C193.949 451.604 194.083 451.47 194.217 451.336Z" fill="#53AFBE"/>
<path d="M241.641 492.329V505.692L241.541 523.476H241.641L241.943 505.692L242.244 492.329L242.445 485.698C242.646 483.487 242.144 480.976 243.852 479.87L266.961 466.708L278.515 459.976L284.242 456.661C285.649 455.857 287.056 454.953 288.462 454.249C288.563 462.689 288.462 471.33 288.462 479.87V493.535L288.563 503.783C288.563 504.888 288.462 505.994 288.06 506.898C287.558 507.702 286.754 508.405 285.85 508.907L282.936 510.716L277.008 514.233L265.353 521.366L261.837 523.476H262.54L265.554 521.668L277.41 514.936L283.338 511.52L286.352 509.912C287.357 509.309 288.462 508.606 289.065 507.4C289.769 506.295 289.769 504.888 289.869 503.783V500.367L290.07 493.535L290.371 479.87L290.572 466.206L290.673 459.373C290.74 457.096 290.74 454.785 290.673 452.441L290.572 450.833L289.065 451.536C286.955 452.541 285.147 453.646 283.238 454.852L277.511 458.268L266.057 465.101L243.249 479.067C242.144 479.77 241.641 481.076 241.641 482.282C241.541 483.487 241.641 484.492 241.641 485.597V492.329Z" fill="#53AFBE"/>
<path d="M266.459 523.476H266.559L278.415 516.544L284.343 513.127L287.257 511.419C288.262 510.816 289.166 510.214 290.07 510.214C291.075 510.214 291.979 510.816 292.984 511.419L302.027 516.343L313.983 522.873L315.088 523.476H315.792L314.184 522.572L302.428 515.639L296.5 512.123L293.486 510.415C292.582 509.912 291.577 509.108 290.07 509.008C288.663 509.008 287.558 509.812 286.654 510.314L283.64 511.922L277.611 515.137L265.554 521.768L262.54 523.476H266.459Z" fill="#53AFBE"/>
<path d="M289.869 479.87C290.07 489.013 290.07 498.157 290.371 507.4V507.903L290.773 508.104L317.6 523.476H319.007L291.979 506.898C292.079 497.855 291.979 488.812 291.879 479.77L291.778 454.149L313.782 467.11L325.638 474.043L331.566 477.459L334.48 479.267C335.484 479.77 336.389 480.272 336.791 481.076C337.293 481.779 337.394 482.784 337.394 483.99V487.406L337.594 494.238L337.795 507.903L338.197 521.668V523.476H338.7C338.7 522.873 338.733 522.271 338.8 521.668L338.901 507.903V494.238L339.001 487.406V483.889C339.001 482.885 339.001 481.377 338.298 480.172C337.594 478.966 336.288 478.263 335.384 477.66L332.47 475.952L326.542 472.435L314.787 465.402L291.276 451.335L289.568 450.331V452.24L289.869 479.87Z" fill="#53AFBE"/>
<path fill-rule="evenodd" clip-rule="evenodd" d="M336.59 477.258L313.882 464.498L302.428 458.168L296.701 455.053L293.888 453.546L291.075 451.737L290.371 451.335L291.075 450.934C298.912 446.211 306.849 441.69 314.686 437.068L326.643 430.236L332.571 426.92L335.484 425.212C336.489 424.609 337.695 423.906 339.202 423.906C340.709 423.805 342.015 424.509 342.92 425.112L345.934 426.82L351.862 430.236L363.718 437.068L375.574 443.9L381.401 447.316C383.411 448.522 385.32 449.627 387.229 450.934L388.033 451.436L387.329 451.938L385.923 453.044C385.32 453.445 384.817 453.646 384.315 453.948L381.1 455.656L374.77 459.172L362.211 466.005L349.651 472.937L343.321 476.454C342.317 477.057 341.312 477.76 340.106 477.961C338.901 478.263 337.695 477.861 336.59 477.258ZM336.59 477.258C337.695 477.76 338.901 478.162 340.106 477.961C341.211 477.66 342.216 476.956 343.321 476.354L349.551 472.837L362.01 465.703L374.469 458.469L380.597 454.852L383.712 453.044C384.315 452.742 384.817 452.441 385.219 452.139L385.923 451.536C378.387 447.116 370.45 443.097 362.713 438.676L350.857 432.044L344.829 428.729L341.814 427.021C340.81 426.418 340.106 426.016 339.202 426.016C338.398 426.116 337.494 426.518 336.59 427.021L333.575 428.729L327.547 432.044L315.59 438.676C307.854 442.896 300.017 447.015 292.381 451.436L294.29 452.742L297.103 454.35L302.73 457.665L313.983 464.196L336.59 477.258ZM385.923 451.637C386.191 451.771 386.425 451.905 386.626 452.039V451.034L385.923 451.637ZM292.28 451.536L291.577 451.034V451.938C291.845 451.804 292.079 451.67 292.28 451.536Z" fill="#53AFBE"/>
<path d="M339.704 492.229V505.491L339.604 523.476H339.704L340.006 505.491L340.307 492.229L340.508 485.497C340.508 484.492 340.508 483.286 340.609 482.282C340.81 481.277 341.312 480.373 342.116 479.77C349.551 475.349 357.388 471.029 365.125 466.608L386.526 454.149C386.626 458.067 386.526 462.086 386.526 466.005V479.77V493.434V500.267V503.683C386.626 504.888 386.526 505.893 386.023 506.697C385.621 507.601 384.717 508.204 383.712 508.807L380.799 510.515L374.971 514.132L363.316 521.266L359.598 523.476H360.201L363.517 521.567L375.373 514.835L381.301 511.419L384.315 509.711C385.32 509.209 386.425 508.506 387.128 507.3C387.832 506.195 387.832 504.788 387.832 503.683L387.932 500.267L388.133 493.434L388.435 479.77L388.736 459.173L388.837 455.756L388.636 452.34L388.535 450.532L387.028 451.436L364.12 465C356.584 469.722 349.049 474.143 341.413 478.966C340.508 479.77 339.805 480.976 339.704 482.181C339.604 483.387 339.604 484.392 339.604 485.497L339.704 492.229Z" fill="#53AFBE"/>
<path d="M364.823 523.476L376.377 516.744L382.305 513.328L385.32 511.52C386.224 511.017 387.128 510.515 388.133 510.515C389.138 510.414 390.042 510.816 391.047 511.419L400.089 516.342L412.046 522.873L413.051 523.476H413.754L412.247 522.572L400.491 515.639L394.563 512.223L391.65 510.515C390.645 509.912 389.439 509.309 388.133 509.309C386.827 509.309 385.621 509.912 384.616 510.414L381.602 512.122L375.674 515.338L363.617 521.869C362.679 522.404 361.775 522.94 360.904 523.476H364.823Z" fill="#53AFBE"/>
<path d="M387.832 466.206L387.932 479.87L388.133 493.535L388.233 500.367V503.884C388.334 504.888 388.133 506.295 388.937 507.601C389.741 508.907 390.946 509.41 391.85 510.013L394.865 511.721L400.793 515.137L412.649 521.969L415.362 523.476H417.17L413.151 520.964L401.496 513.931L395.669 510.314L392.654 508.606C391.65 508.003 390.745 507.501 390.343 506.697C389.941 505.994 390.042 504.989 390.042 503.783V500.367V493.535L389.941 479.87L389.841 466.206V459.373C389.841 457.699 389.875 456.024 389.941 454.35C391.415 455.087 392.889 455.89 394.362 456.761L400.29 460.278L412.046 467.21L423.902 474.043L429.729 477.559L432.744 479.267C433.748 479.87 434.653 480.272 435.055 480.975C435.557 481.679 435.456 482.784 435.456 483.889L435.557 487.305L435.657 494.238L435.959 507.903L436.361 521.567V523.476H436.863V521.567L437.064 507.802V494.138V487.305L437.165 483.889C437.064 482.885 437.265 481.478 436.562 480.172C435.758 478.866 434.552 478.263 433.648 477.76L430.734 475.952L424.806 472.435L413.051 465.402L401.396 458.469L395.468 454.953C393.559 453.747 391.65 452.541 389.439 451.536L388.032 450.934L387.832 452.541C387.631 454.852 387.631 457.163 387.731 459.373L387.832 466.206Z" fill="#53AFBE"/>
<path fill-rule="evenodd" clip-rule="evenodd" d="M435.055 477.258L412.247 464.598L400.793 458.268L395.066 455.154C393.157 454.149 391.248 453.144 389.439 451.938L388.836 451.537L389.439 451.034C391.147 449.427 393.257 448.522 395.166 447.317L401.094 443.9L412.95 436.968L424.806 430.135L430.835 426.82L433.749 425.112C434.753 424.609 435.858 423.705 437.466 423.705C438.27 423.705 438.973 423.906 439.576 424.207L441.184 425.112L450.025 430.236L461.982 437.068L473.737 443.9L479.665 447.417C481.675 448.623 483.684 449.628 485.493 451.034L486.297 451.637L485.493 452.039L472.934 458.871L460.374 465.703L441.586 476.153C440.581 476.655 439.576 477.358 438.471 477.76C437.265 478.162 436.059 477.961 435.055 477.258ZM435.055 477.258C436.059 477.861 437.265 478.162 438.471 477.76C439.576 477.358 440.48 476.655 441.586 476.052L447.815 472.536L460.173 465.402L472.532 458.268L484.086 451.537C482.479 450.431 480.67 449.527 478.962 448.623L473.034 445.307L460.977 438.676L449.021 432.044L442.992 428.729L440.078 427.021L438.571 426.217C438.169 426.016 437.801 425.916 437.466 425.916C436.763 425.815 435.859 426.317 434.854 426.92L431.84 428.628L425.811 431.944L413.855 438.575L401.798 445.106L395.769 448.321C394.061 449.326 392.152 450.23 390.545 451.436C392.152 452.541 393.86 453.446 395.468 454.45L401.094 457.766L412.448 464.297L435.055 477.258ZM484.086 451.436C484.354 451.637 484.622 451.838 484.89 452.039V451.034L484.086 451.436ZM390.545 451.336C390.344 451.202 390.143 451.068 389.942 450.934L390.042 451.737C390.176 451.604 390.344 451.47 390.545 451.336Z" fill="#53AFBE"/>
<path d="M437.868 492.53V505.793L437.767 523.476H437.868L438.169 505.793L438.471 492.53L438.672 485.899C438.772 483.688 438.37 481.176 439.978 480.071C447.513 475.65 455.35 471.229 462.986 466.909L474.541 460.177L480.268 456.862C481.775 456.058 483.282 455.154 484.789 454.35C484.789 454.417 484.789 454.484 484.789 454.551C484.789 454.852 484.789 455.555 484.789 456.058V459.474L484.689 466.407V480.071V493.736V500.568V503.984C484.689 505.089 484.789 506.195 484.388 506.998C484.187 507.4 483.785 507.702 483.383 508.003L481.876 508.907L478.962 510.716L473.134 514.233L461.479 521.366L457.963 523.476H458.566L461.68 521.668L473.536 514.936L479.464 511.52L482.478 509.812L483.986 509.008C484.488 508.706 484.99 508.204 485.392 507.601C486.096 506.396 485.895 505.089 485.995 503.984L486.096 500.568L486.297 493.736L486.598 480.071L486.799 466.407L486.899 459.574L487 456.158C487 455.555 487 455.053 486.899 454.249C486.899 453.546 486.698 453.044 486.598 452.541L486.397 451.135L485.091 451.737C482.981 452.742 481.172 453.948 479.263 455.053L473.536 458.469L462.082 465.301C454.547 469.923 447.011 474.344 439.375 479.267C438.37 479.971 437.868 481.377 437.767 482.483C437.767 483.688 437.767 484.693 437.767 485.899L437.868 492.53Z" fill="#53AFBE"/>
</g>
</svg>
