<svg width="420" height="397" viewBox="0 0 420 397" fill="none" xmlns="http://www.w3.org/2000/svg">
<g opacity="0.1">
<path d="M420.114 116.427C416.775 114.728 413.507 112.961 410.309 111.127C412.014 109.903 413.933 108.986 415.745 107.865L420.114 105.52V104.603L415.318 107.049C413.08 108.272 410.842 109.19 408.817 110.719L408.071 111.229L408.817 111.738C410.842 113.063 412.974 114.185 414.999 115.408L420.114 118.262V116.427Z" fill="#53AFBE"/>
<path fill-rule="evenodd" clip-rule="evenodd" d="M356.169 198.279L406.792 225.903L407.218 226.209V226.719C407.431 235.994 407.431 245.27 407.644 254.546L407.964 282.476V284.413L406.259 283.495C397.733 278.806 389.527 274.015 381.214 269.327L368.745 262.191L362.457 258.624L359.366 256.789C358.301 256.177 357.128 255.464 356.382 254.24C355.636 253.017 355.53 251.59 355.53 250.469V247.003L355.636 239.97V226.107L355.85 212.244C355.85 207.555 355.849 202.866 356.169 198.279ZM356.169 198.279C356.276 207.555 356.595 216.831 356.809 226.107L357.128 239.97L357.235 247.003V250.469C357.235 251.59 357.341 252.61 357.874 253.323C358.407 254.139 359.26 254.75 360.326 255.26L363.523 256.993L369.704 260.458L382.28 267.492C390.06 271.875 397.84 276.36 405.619 280.539L405.513 254.546C405.406 245.474 405.3 236.3 405.406 227.126L356.169 198.279ZM405.619 280.539V282.476L407.431 281.558C406.863 281.219 406.259 280.879 405.619 280.539ZM405.406 227.126L405.833 227.432L405.406 226.719C405.406 226.854 405.406 226.99 405.406 227.126Z" fill="#53AFBE"/>
<path fill-rule="evenodd" clip-rule="evenodd" d="M356.063 192.979L356.17 166.068V152.613V145.886C356.17 144.764 356.063 143.643 356.17 142.522C356.17 141.299 356.703 139.974 357.875 139.26L381.854 125.193L394.004 118.262L399.972 114.796L403.063 113.063L404.555 112.248C405.087 111.942 405.62 111.738 406.26 111.432L407.539 110.821L407.858 112.248C407.965 112.656 408.178 113.267 408.285 113.981C408.285 114.185 408.285 114.388 408.285 114.592V115V115.917L408.178 119.383L408.072 126.315L407.858 140.177L407.539 154.04L407.219 164.437V166.17C407.112 166.782 407.006 167.495 406.58 168.107C405.727 169.33 404.448 169.738 403.489 170.35L400.292 172.082L394.004 175.548L381.428 182.378L368.852 189.309L362.564 192.775C360.433 193.896 358.515 195.221 356.17 196.037L356.063 192.979ZM356.063 192.979L356.277 196.037C358.515 195.221 360.433 193.794 362.564 192.673L368.746 189.105L381.215 182.072L393.684 174.835L399.865 171.165L402.956 169.432C404.022 168.821 405.087 168.311 405.514 167.495C406.047 166.68 405.94 165.559 405.94 164.437L405.833 154.04V140.177L405.94 126.213V119.281V115.816V115V114.592C406.047 114.388 405.94 114.388 405.94 114.287C405.94 114.219 405.94 114.117 405.94 113.981C405.869 114.049 405.798 114.083 405.727 114.083L404.235 114.898L401.144 116.631L395.069 119.995L382.92 126.722L358.515 140.076C356.703 141.197 357.236 143.745 357.023 145.886L356.916 152.613L356.596 166.068L356.063 192.979ZM405.833 113.981C406.26 113.845 406.686 113.675 407.112 113.471L405.514 112.656C405.62 113.165 405.833 113.675 405.833 113.981Z" fill="#53AFBE"/>
<path d="M369.065 203.784L363.097 200.42L360.113 198.789L357.981 197.362C358.727 196.954 359.473 196.445 360.326 195.935L363.523 194.304L369.918 191.042L382.6 184.416L395.389 177.689L401.677 174.223L404.874 172.592C406.046 171.981 406.899 171.471 407.751 171.471C408.107 171.471 408.497 171.573 408.924 171.777L410.416 172.694L413.613 174.325L420.007 177.689L420.114 177.791V175.344L414.785 172.388L411.588 170.656C411.055 170.452 410.629 170.146 409.989 169.84C409.35 169.534 408.497 169.33 407.645 169.33C406.046 169.33 404.767 170.146 403.808 170.757L400.611 172.388L394.323 175.854L381.747 182.786L369.172 189.717L362.884 193.285L359.687 195.018C358.621 195.629 357.662 196.343 356.703 196.954L355.957 197.464L356.703 197.872L359.687 199.605L362.671 201.133L368.639 204.293L380.788 210.613L404.767 223.457L380.895 210.409L369.065 203.784Z" fill="#53AFBE"/>
<path d="M420.114 218.054L418.409 218.972L411.802 222.539C410.629 223.151 409.67 223.864 408.391 224.17C409.67 223.966 410.736 223.253 411.802 222.641L418.516 219.074L420.114 218.258V218.054Z" fill="#53AFBE"/>
<path d="M412.867 224.068L419.474 220.399L420.114 219.991V219.787L419.368 220.195L412.867 223.966C411.801 224.578 410.629 225.088 409.67 225.903C408.71 226.821 408.391 228.044 408.391 229.267C408.391 228.044 408.817 226.821 409.776 226.005C410.629 225.19 411.801 224.68 412.867 224.068Z" fill="#53AFBE"/>
<path d="M420.114 274.933L414.146 278.399C412.334 279.418 410.416 280.539 408.604 281.457C408.497 280.641 408.391 279.826 408.391 279.01V275.646L408.284 269.021V255.77L408.391 229.267L407.965 255.77L407.645 269.021L407.432 275.646V279.01C407.432 280.131 407.538 281.253 407.538 282.374L407.645 283.088L408.391 282.782C410.629 281.762 412.654 280.641 414.785 279.418L420.114 276.564V274.933Z" fill="#53AFBE"/>
<path d="M420.114 173.714L415.531 171.063L412.441 169.228C411.375 168.719 410.522 168.107 409.989 167.292C409.563 166.476 409.456 165.559 409.563 164.438V160.87V153.939L409.456 140.076V126.213L409.35 119.281V115.816L409.456 114.083C409.954 114.355 410.451 114.626 410.949 114.898L414.146 116.631L420.114 119.995V117.549L415.318 114.796C413.187 113.573 411.162 112.35 408.817 111.331L407.218 110.719V112.35L407.005 115.816L407.112 119.281L407.218 126.213L407.538 154.04L407.645 160.972V164.438C407.645 165.559 407.751 166.986 408.497 168.209C409.243 169.432 410.522 170.146 411.588 170.656L414.679 172.388L420.114 175.344V173.714Z" fill="#53AFBE"/>
<path d="M409.137 66.684L409.35 59.9564C409.456 57.7139 409.03 55.2675 410.842 54.0443C413.897 52.3455 416.988 50.6466 420.114 48.9477V47.3168C416.81 49.2535 413.506 51.1902 410.096 53.2289C409.137 54.0443 408.497 55.2675 408.497 56.4907C408.391 57.7139 408.391 58.7333 408.391 59.8545L408.497 66.684V80.1392L408.391 107.049L408.817 80.1392L409.137 66.684Z" fill="#53AFBE"/>
<path d="M420.114 103.89L414.785 106.846C412.76 107.967 410.735 109.394 408.497 110.209L408.391 107.05L408.497 110.311C410.735 109.394 412.76 108.069 414.892 106.948L420.114 104.094V103.89Z" fill="#53AFBE"/>
<path d="M420.114 4.09733L412.44 0.0200195L420.114 4.19927V4.09733Z" fill="#53AFBE"/>
<path d="M420.114 44.9724L413.933 48.2343L410.842 49.9671C409.777 50.4768 408.817 50.8845 407.965 50.8845C407.006 50.8845 406.153 50.4768 405.087 49.9671L401.997 48.2343L395.602 44.8705L383.027 38.1429C374.82 33.6579 366.507 29.5806 358.408 25.0955L359.154 24.4839C359.58 24.1781 360.113 23.8723 360.646 23.5665L363.95 21.7317L370.557 18.0621L383.666 10.723L396.881 3.58767L403.382 0.0200195H403.169L396.774 3.3838L383.453 10.4172L370.131 17.4505L363.523 20.9163L360.113 22.6491C359.58 22.9549 359.047 23.1588 358.408 23.5665L356.916 24.6878L356.276 25.1974L357.022 25.7071C361.072 28.2554 365.335 30.396 369.492 32.8424L381.961 39.7738L394.536 46.7053L400.824 50.171L404.021 51.9039C405.087 52.5154 406.473 53.127 407.965 53.0251C409.563 53.0251 410.842 52.4135 411.908 51.8019L415.105 50.0691L420.114 47.3169V44.9724Z" fill="#53AFBE"/>
<path d="M399.652 0.0200195L395.815 2.16061L382.707 9.39784L369.598 16.5331L362.99 20.1008L359.687 21.9356C358.941 22.3433 358.088 22.853 357.235 23.1588C357.235 21.1201 357.235 19.0815 357.342 17.0428L357.449 10.1114L357.768 0.0200195H355.85V10.1114V17.0428C355.85 19.3873 355.85 21.6298 356.063 23.9742L356.17 24.7897L356.916 24.5858C358.195 24.0762 359.26 23.4646 360.326 22.853L363.523 20.9163L370.024 17.2467L382.92 9.70364L395.815 2.26254L399.972 0.0200195H399.652Z" fill="#53AFBE"/>
<path fill-rule="evenodd" clip-rule="evenodd" d="M356.596 26.0128L381.747 39.6718L407.219 53.7386L407.645 53.9424V54.4521C407.858 63.728 407.965 73.0039 408.071 82.2798L408.497 110.006V111.636L406.899 111.025C406.366 110.923 405.833 110.719 405.087 110.515C404.341 110.209 403.915 109.904 403.382 109.598L400.291 107.763L394.003 104.195L381.534 97.06L368.958 89.9247L362.777 86.3571L359.58 84.5223L358.088 83.6049C357.449 83.2991 356.809 82.7894 356.489 82.1778C356.063 81.4643 355.957 80.6488 355.957 80.0372V78.3044V74.8387V67.8053L356.063 53.9424L356.17 39.9776L356.276 33.0462V29.4785L356.383 27.7457C356.383 27.236 356.489 26.6244 356.596 26.0128ZM356.596 26.0128C356.525 26.6244 356.454 27.202 356.383 27.7457L356.489 29.4785L356.596 33.0462L356.809 39.9776L357.129 53.9424L357.449 67.8053L357.555 74.8387L357.662 78.3044V80.0372C357.662 80.5129 357.768 80.9207 357.981 81.2604C358.408 81.872 359.473 82.3817 360.539 82.9933L363.736 84.7262L370.024 88.2938L382.6 95.3272L395.176 102.361L401.464 105.928L404.554 107.661C405.087 107.967 405.62 108.375 405.94 108.477H406.153L405.94 82.2798C405.94 73.1058 405.833 64.0338 405.833 54.9618L356.596 26.0128ZM406.153 108.477V110.006L407.645 108.884L406.153 108.477ZM405.94 54.9618L406.366 55.2676L405.94 54.554C405.94 54.6899 405.94 54.8258 405.94 54.9618Z" fill="#53AFBE"/>
<path fill-rule="evenodd" clip-rule="evenodd" d="M358.301 85.032L382.6 98.0794L394.75 104.501L400.824 107.661L403.915 109.292L406.899 111.025L407.645 111.535L406.899 111.942L381.854 126.009L369.172 132.838L362.884 136.304L359.793 138.037C358.728 138.547 357.449 139.26 355.85 139.362C354.251 139.362 352.866 138.649 351.8 138.037L348.71 136.304L342.422 132.94L329.846 126.009L317.27 118.976L310.982 115.51C308.958 114.389 306.826 113.165 304.801 111.84L304.055 111.331L304.801 110.821C306.826 109.292 309.064 108.273 311.302 107.049L318.016 103.584L331.338 96.6523L344.553 89.619L351.267 86.0513C352.333 85.5416 353.399 84.8281 354.571 84.4204C355.85 84.1146 357.235 84.4204 358.301 85.032ZM358.301 85.032C357.129 84.4204 355.85 84.1146 354.678 84.5223C353.399 84.8281 352.44 85.5416 351.267 86.1532L344.66 89.7209L331.551 96.9581L318.443 104.297L311.835 107.967C309.917 108.986 307.998 110.006 306.293 111.229C314.286 115.816 322.706 119.893 330.805 124.276L343.487 131.106L349.775 134.469L352.973 136.1C354.038 136.712 354.891 137.12 355.743 137.12C356.703 137.12 357.555 136.712 358.621 136.1L361.818 134.469L368.106 131.106L380.788 124.378L405.513 111.433L403.489 110.107L400.398 108.375L394.43 105.011L382.387 98.3852L358.301 85.032ZM306.293 111.127C306.08 110.991 305.831 110.855 305.547 110.719V111.738C305.831 111.535 306.08 111.331 306.293 111.127ZM405.62 111.331L406.366 111.84V111.025L405.62 111.331Z" fill="#53AFBE"/>
<path fill-rule="evenodd" clip-rule="evenodd" d="M253.859 199.197L278.584 212.958L290.947 219.787L297.128 223.151L300.219 224.884C300.751 225.19 301.284 225.495 301.817 225.903C302.35 226.311 302.67 227.024 302.776 227.636C303.203 236.912 303.309 245.882 303.522 255.056L303.736 268.715L303.842 275.545V278.908L303.949 280.641C303.949 281.151 303.735 281.864 303.629 282.476L303.522 284.005L302.03 283.291C300.965 282.782 299.792 282.272 298.727 281.66L295.636 279.928L276.985 269.225L264.623 261.987L258.548 258.42L255.458 256.585C254.392 255.973 253.219 255.464 252.367 254.241C251.621 253.017 251.727 251.692 251.727 250.571L251.834 247.105V240.174L251.941 226.311C251.941 217.137 251.727 207.861 252.047 198.687C252.687 198.891 253.326 198.891 253.859 199.197ZM253.859 199.197C253.326 198.891 252.687 198.891 252.047 198.687C251.941 207.861 252.26 217.137 252.26 226.311L252.687 240.174L252.793 247.105L252.9 250.571C252.9 251.794 252.9 252.814 253.433 253.629C253.966 254.444 255.031 254.852 256.097 255.464L259.188 257.197L265.475 260.662L278.051 267.492L290.52 274.525L296.808 277.991L299.899 279.724L301.604 280.641V278.908V275.545V268.715V255.056C301.604 245.984 301.711 236.708 301.711 227.84C301.604 226.923 300.751 226.311 299.686 225.699L290.52 220.399L278.371 213.264L253.859 199.197ZM301.604 280.539V280.641C301.604 281.151 301.391 281.559 301.391 282.068L302.989 281.253L301.604 280.539Z" fill="#53AFBE"/>
<path fill-rule="evenodd" clip-rule="evenodd" d="M252.047 192.877L252.153 165.967V152.511V145.784C252.153 144.663 252.047 143.541 252.153 142.318C252.367 141.197 253.006 139.974 254.072 139.158C262.065 134.265 270.058 129.78 278.157 125.092L290.2 118.16L296.275 114.694L299.259 112.962L302.456 111.433L304.055 110.617V112.35L304.268 115.918V119.383L304.161 126.315L303.842 140.178L303.522 154.04L303.415 161.074L303.309 164.54C303.309 165.661 303.202 166.986 302.456 168.209C301.71 169.33 300.538 170.044 299.472 170.554L289.987 175.752L277.411 182.582L252.26 196.546H252.153L252.047 192.877ZM252.047 192.877L252.26 196.445L277.198 182.276L289.667 175.039L295.849 171.369L298.939 169.636C300.005 169.025 300.858 168.413 301.391 167.598C301.923 166.68 301.923 165.661 301.923 164.54V160.972V154.04V140.178V126.315L302.03 119.281V115.816L301.923 114.185L300.431 114.898L297.447 116.529L291.266 119.893L279.117 126.621C271.017 131.106 262.704 135.489 254.818 139.974C253.965 140.585 253.432 141.503 253.219 142.522C253.113 143.541 253.113 144.663 253.113 145.784L252.899 152.511L252.58 165.967L252.047 192.877ZM252.26 196.445L252.153 196.546H252.26V196.445ZM301.817 114.083L303.415 113.267L301.817 112.35V114.083Z" fill="#53AFBE"/>
<path fill-rule="evenodd" clip-rule="evenodd" d="M300.432 223.253L276.453 210.409L264.41 204.09L258.335 200.93L255.351 199.299L252.367 197.566L251.621 197.056L252.367 196.648L277.519 182.684L290.094 175.752L296.382 172.388L299.473 170.656C300.539 170.146 301.817 169.229 303.416 169.229C305.015 169.229 306.4 170.044 307.359 170.554L310.556 172.287L316.844 175.752L329.42 182.582L341.889 189.615L348.177 193.081L351.268 194.916C352.333 195.527 353.293 196.139 354.358 196.852L355.104 197.362L354.358 197.872C352.227 199.197 349.989 200.318 347.751 201.541L341.037 205.007L327.608 211.938L314.286 219.074L307.572 222.641C306.507 223.151 305.441 223.865 304.162 224.068C302.883 224.374 301.604 223.865 300.432 223.253ZM300.432 223.253C301.604 223.865 302.883 224.272 304.055 224.068C305.334 223.865 306.4 223.151 307.572 222.539L314.18 218.972L327.395 211.633L340.61 204.293L347.218 200.624C349.136 199.605 351.054 198.483 352.866 197.362C352.12 196.852 351.374 196.445 350.628 196.037L347.431 194.304L341.037 191.042L328.354 184.315L315.672 177.587L309.384 174.121L306.187 172.49C305.121 171.879 304.269 171.471 303.416 171.471C302.563 171.471 301.711 171.879 300.645 172.49L297.448 174.223L291.16 177.587L278.478 184.315L253.753 197.158L255.777 198.483L258.762 200.216L264.73 203.478L276.559 210.206L300.432 223.253ZM352.866 197.26C353.15 197.464 353.399 197.634 353.612 197.77V196.75C353.399 196.954 353.15 197.124 352.866 197.26ZM253.753 197.056L253.007 196.648L252.9 197.464L253.753 197.056Z" fill="#53AFBE"/>
<path fill-rule="evenodd" clip-rule="evenodd" d="M304.482 229.063C304.375 227.942 304.801 226.617 305.867 225.903C306.933 225.19 307.999 224.68 309.064 224.068L315.565 220.297L328.461 212.958L341.356 205.415L347.857 201.643C349.989 200.522 352.014 199.095 354.358 198.075L355.104 197.668L355.211 198.483L355.53 200.216C355.637 200.828 355.637 201.439 355.637 202.051V205.517V212.448V226.311V240.174L355.53 247.105V250.571C355.53 251.692 355.744 253.017 354.891 254.546C354.465 255.26 353.825 255.769 353.186 256.075L351.587 256.993L348.497 258.726L342.209 262.191L329.633 269.225L317.057 276.054L310.769 279.418L307.572 281.151L305.974 282.068C305.654 282.17 305.547 282.374 305.014 282.476L304.162 282.68L303.522 282.884V282.272C303.309 279.928 303.416 277.787 303.522 275.544L303.629 268.919L303.949 255.668L304.482 229.063ZM304.482 229.063L304.375 255.566V268.919L304.482 275.544C304.482 277.481 304.375 279.52 304.588 281.457L304.801 281.355C304.908 281.355 305.228 281.151 305.441 281.049L307.039 280.131L310.13 278.297L316.311 274.729L328.674 267.492L341.143 260.356L347.431 256.789L350.522 255.056L352.12 254.139C352.475 253.935 352.76 253.697 352.973 253.425C353.292 252.813 353.292 251.692 353.292 250.571L353.399 247.003L353.506 240.072L353.719 226.209L354.038 212.346L354.252 205.415L354.358 201.949C354.358 201.337 354.358 200.828 354.358 200.318L354.252 199.401C352.227 200.318 350.308 201.439 348.39 202.459L341.889 206.026L328.78 213.162L315.778 220.399L309.171 224.068C308.105 224.68 307.039 225.19 305.974 225.903C304.908 226.617 304.482 227.84 304.482 229.063ZM304.588 281.457L303.949 281.66L304.695 282.068C304.624 281.864 304.588 281.66 304.588 281.457ZM354.252 199.401C354.465 199.265 354.713 199.129 354.998 198.993L354.145 198.585L354.252 199.401Z" fill="#53AFBE"/>
<path fill-rule="evenodd" clip-rule="evenodd" d="M304.695 168.005C304.162 149.861 303.629 131.411 303.309 112.86V111.636L304.375 112.044L305.334 112.35L306.187 112.758L307.892 113.573L311.089 115.204C313.327 116.325 315.352 117.447 317.483 118.568L330.166 125.499L342.741 132.533C346.898 134.979 351.054 137.222 355.21 139.974L355.637 140.279V140.891L355.743 168.719C355.85 177.995 355.957 187.271 355.85 196.546V198.075L354.571 197.26L329.42 182.684L304.695 168.005ZM304.695 168.005L330.272 181.868L354.038 194.916C353.825 186.149 353.825 177.383 353.719 168.617L353.292 141.401C349.562 138.954 345.512 136.61 341.569 134.367L329.1 127.232L316.524 120.199L310.236 116.733L307.039 115.102L305.441 114.287L305.121 114.083C305.014 131.921 304.908 149.759 304.695 168.005ZM354.038 194.916C354.038 195.459 354.038 195.969 354.038 196.444L355.424 195.731L354.038 194.916ZM353.292 141.401C353.505 141.469 353.683 141.571 353.825 141.707L353.292 140.789V141.401ZM305.121 114.083C305.121 113.675 305.121 113.233 305.121 112.758L304.055 113.675L304.695 113.879L305.121 114.083Z" fill="#53AFBE"/>
<path fill-rule="evenodd" clip-rule="evenodd" d="M304.162 107.865L304.375 80.547L304.268 66.9899V60.1604V56.7966C304.162 55.5734 304.694 54.1464 305.76 53.3309C306.719 52.5154 307.785 52.0058 308.744 51.3942L311.835 49.6613L317.91 46.0937L330.059 39.0603C338.265 34.3714 346.365 29.6825 354.571 25.0955L356.276 24.28L356.383 26.1148C356.596 30.8037 356.276 35.3907 356.276 39.9777L356.063 53.8406L355.743 67.7034L355.53 74.6349L355.424 78.1006C355.424 79.2218 355.53 80.547 354.784 81.7702C354.145 83.0953 352.866 83.7069 351.907 84.2166L348.709 85.9494L342.422 89.4151L329.739 96.2446L317.27 103.176L310.982 106.744C308.851 107.865 306.826 109.088 304.588 110.006C304.481 109.292 304.162 108.579 304.162 107.865ZM304.162 107.865C304.162 108.579 304.481 109.292 304.588 110.006C306.826 108.986 308.851 107.763 310.876 106.642L317.164 103.074L329.633 95.9388L341.995 88.7016L351.267 83.2992C352.333 82.6876 353.292 82.1779 353.719 81.2605C354.145 80.445 354.038 79.3238 354.038 78.1006V74.6349V67.7034V53.8406C354.038 45.2782 354.145 36.512 354.038 27.9496C346.365 32.1289 338.798 36.41 331.125 40.6912L318.656 47.3169L309.384 52.4135C308.425 53.0251 307.252 53.4328 306.506 54.1464C305.654 54.758 305.334 55.6754 305.227 56.7966V60.1604L305.014 66.9899L304.694 80.547L304.162 107.865ZM304.588 110.108C304.588 110.108 304.552 110.108 304.481 110.108H304.588ZM354.038 28.0515C354.607 27.7797 355.175 27.4739 355.743 27.1341L353.932 26.2168C353.932 26.8284 353.967 27.4399 354.038 28.0515Z" fill="#53AFBE"/>
<path d="M318.123 2.46641L313.754 0.0200195H310.663L311.089 0.223886L317.377 3.6896L329.953 10.621C338.372 15.1061 346.685 19.795 355.211 24.1781L330.486 9.70364L318.123 2.46641Z" fill="#53AFBE"/>
<path d="M354.784 0.0200195L354.997 10.3152L355.21 17.2467C355.317 19.5911 355.53 21.8337 355.21 24.1781C355.637 21.9356 355.53 19.5911 355.53 17.2467L355.637 10.3152L355.743 0.0200195H354.784Z" fill="#53AFBE"/>
<path d="M348.815 21.4259L342.634 18.266L330.378 11.8442L308.317 0.0200195H308.211L330.272 12.0481L342.314 18.7757L348.389 22.1395C350.094 23.1588 351.906 24.0762 353.505 25.1974C351.693 26.3187 349.881 27.338 347.963 28.2554L341.569 31.5173L328.886 38.1429L316.204 44.8705L309.916 48.2343L306.719 49.9671C305.653 50.5787 304.694 51.0884 303.841 51.0884C303.095 51.0884 302.243 50.6807 301.177 50.0691L297.98 48.3362L291.692 44.9724L279.01 38.2449C270.91 33.7598 262.491 29.6825 254.498 25.1974L255.244 24.5858C255.67 24.28 256.203 23.9742 256.736 23.6684L260.04 21.9356L266.541 18.266L279.543 11.0288L292.651 3.89347L299.152 0.325817C299.365 0.189907 299.578 0.0879748 299.792 0.0200195H299.578C299.436 0.0879748 299.294 0.155931 299.152 0.223886L292.545 3.6896L279.329 10.723L266.114 17.6544L259.507 21.0182L256.203 22.7511C255.67 23.0569 255.031 23.2607 254.498 23.6684L253.006 24.7897L252.366 25.2994L253.006 25.809C255.031 27.1342 257.162 28.2554 259.294 29.3767L265.475 32.9443L278.05 39.8758L290.626 46.8072L296.914 50.2729L300.005 52.0058C300.964 52.5155 302.349 53.3309 303.948 53.229C305.653 53.229 306.825 52.3116 307.785 51.8019L310.982 50.0691L317.27 46.7053L329.845 39.7738L342.314 32.8424L348.602 29.3767C350.734 28.2554 352.759 27.0322 354.784 25.7071L355.423 25.2994L354.89 24.7897C352.865 23.4646 350.84 22.5472 348.815 21.4259Z" fill="#53AFBE"/>
<path d="M295.423 0.0200195L291.906 1.95674L278.797 9.19398L265.689 16.3293L259.081 19.8969C257.163 20.9163 255.245 22.0375 253.22 22.9549C253.149 22.6831 253.078 22.3773 253.007 22.0375C253.007 21.6298 253.113 21.0182 253.113 20.4066V16.9409L253.326 10.0094L253.539 0.0200195H251.621L251.728 10.0094V16.9409V20.4066C251.728 21.0182 251.728 21.5279 251.728 22.2414C251.834 22.853 252.047 23.4646 252.154 23.9742L252.261 24.6878L253.007 24.382C255.351 23.3626 257.376 21.9356 259.614 20.7124L266.009 16.9409L279.011 9.49978L292.013 2.05868L295.636 0.0200195H295.423Z" fill="#53AFBE"/>
<path fill-rule="evenodd" clip-rule="evenodd" d="M255.564 27.8475L279.65 41.3026L291.799 47.9283L297.874 51.292L300.965 52.923C301.924 53.5346 302.989 54.6558 303.203 55.879C303.522 64.951 303.629 73.7173 303.842 82.6874C304.055 91.6575 304.268 100.526 304.162 109.496V110.107L303.735 110.413L303.203 110.719H303.096C303.096 110.719 302.989 110.821 302.67 110.821C302.563 110.923 302.457 110.923 302.243 110.821C302.101 110.821 301.995 110.821 301.924 110.821L301.817 110.719H301.711L301.284 110.515L300.432 110.107C299.899 109.903 299.366 109.598 298.833 109.292L295.742 107.457L289.561 103.889L277.199 96.856C268.992 92.0652 260.786 87.1724 252.58 82.3816L252.26 82.2796V81.8719L252.367 54.0442V26.2166L255.564 27.8475ZM255.564 27.8475L252.367 26.3185L252.9 54.1462L253.539 81.5661C261.745 86.1531 270.058 90.6381 278.264 95.2251L290.733 102.157L297.021 105.622L300.112 107.457C300.645 107.661 301.178 108.069 301.604 108.273L301.924 108.374C302.137 99.914 301.924 91.3517 302.03 82.7893C302.03 73.9211 302.137 64.8491 302.137 56.0829C301.924 54.1462 299.366 53.3307 297.448 52.1075L291.479 48.5399L279.543 41.6084L255.564 27.8475ZM253.539 81.5661C253.397 81.4981 253.29 81.4642 253.219 81.4642L253.539 81.9738V81.5661ZM301.924 108.374C301.924 108.714 301.924 109.054 301.924 109.394L302.35 108.68C302.421 108.68 302.492 108.68 302.563 108.68C302.705 108.68 302.812 108.714 302.883 108.782L302.776 108.68L302.35 108.578L301.924 108.374ZM302.35 108.68C302.279 108.68 302.243 108.68 302.243 108.68L302.457 108.578L302.35 108.68Z" fill="#53AFBE"/>
<path fill-rule="evenodd" clip-rule="evenodd" d="M254.392 85.1339L278.584 97.9775L290.733 104.399L296.808 107.559L299.792 109.19L302.776 110.923L303.522 111.331L302.776 111.84L277.625 125.805L265.049 132.737L258.761 136.1L255.564 137.833C254.605 138.343 253.433 139.158 251.727 139.26C250.022 139.464 248.743 138.445 247.784 138.037L244.587 136.304L225.723 125.907L213.148 118.874L206.966 115.408C204.835 114.185 202.703 113.165 200.679 111.738L200.039 111.229L200.679 110.719C202.703 109.088 205.048 108.069 207.286 106.948L213.894 103.38L227.322 96.4485L240.644 89.4151L247.251 85.8474C248.424 85.2358 249.489 84.5223 250.768 84.3185C252.047 84.0127 253.326 84.5223 254.392 85.1339ZM254.392 85.1339C253.326 84.5223 252.047 84.1146 250.768 84.3185C249.489 84.6243 248.424 85.3378 247.358 85.9494L240.75 89.517L227.535 96.7543L214.32 104.093L207.712 107.763C205.794 108.884 203.769 109.904 202.064 111.127C203.876 112.248 205.794 113.165 207.606 114.185L214 117.447L226.683 124.174L239.365 131.004L245.759 134.367L248.956 136.1C250.022 136.712 250.875 137.222 251.621 137.12C252.473 137.12 253.433 136.61 254.498 135.998L257.696 134.266L263.983 130.902L276.666 124.174L301.391 111.331L299.366 110.006L290.307 104.909L278.371 98.2833L254.392 85.1339ZM202.171 111.229C201.886 111.025 201.638 110.855 201.425 110.719V111.738C201.638 111.535 201.886 111.365 202.171 111.229ZM301.497 111.331L302.243 111.84V110.923L301.497 111.331Z" fill="#53AFBE"/>
<path fill-rule="evenodd" clip-rule="evenodd" d="M200.359 229.267C200.252 228.044 200.572 226.719 201.531 225.903C202.597 225.19 203.769 224.68 204.728 223.966L211.336 220.297L224.338 212.856L237.233 205.313L243.734 201.541C245.866 200.318 247.997 198.993 250.342 197.872L251.088 197.464L251.195 198.381C251.301 199.503 251.514 200.726 251.514 201.847V205.313V212.346V226.209L251.408 247.003V250.469C251.408 251.59 251.514 253.017 250.662 254.444C250.342 255.056 249.703 255.668 249.063 255.973L247.464 256.891L244.374 258.624L238.086 262.089L225.51 269.123L212.828 275.952L206.54 279.418C204.409 280.539 202.384 281.762 200.146 282.68L199.4 282.986L199.293 282.272C199.187 280.029 199.293 277.787 199.4 275.544L199.506 268.919L199.826 255.769L200.359 229.267ZM200.359 229.267L200.252 255.668V268.919L200.359 275.544C200.252 277.583 200.359 279.52 200.465 281.355C202.277 280.539 204.089 279.316 206.007 278.297L212.189 274.729L224.551 267.492L237.02 260.356L243.308 256.789L246.399 255.056L247.891 254.139C248.317 253.867 248.601 253.595 248.743 253.323C249.17 252.61 249.17 251.692 249.17 250.469L249.276 247.003L249.383 240.072L249.596 226.107L249.916 212.244L250.129 205.313L250.235 201.847C250.235 201.032 250.129 200.114 250.129 199.299C248.104 200.216 246.186 201.337 244.267 202.357L237.766 205.924L224.551 213.162L211.443 220.399L204.942 224.068C203.876 224.68 202.703 225.19 201.638 225.903C200.679 226.719 200.359 228.044 200.359 229.267ZM200.465 281.355C200.181 281.491 199.933 281.626 199.719 281.762L200.465 282.17C200.465 281.898 200.465 281.626 200.465 281.355ZM250.129 199.299C250.413 199.163 250.697 199.027 250.981 198.891L250.022 198.483C250.022 198.755 250.058 199.027 250.129 199.299Z" fill="#53AFBE"/>
<path fill-rule="evenodd" clip-rule="evenodd" d="M250.769 196.241C248.637 195.323 246.399 194.202 244.374 192.979L238.086 189.615L225.404 182.786L212.828 175.854L206.54 172.388L203.45 170.656C202.491 170.044 201.105 169.534 200.253 168.209C199.507 166.884 199.613 165.457 199.613 164.336L199.507 160.87L199.4 153.939L199.293 140.076L199.08 126.213L198.974 119.281C198.974 116.937 198.867 114.694 199.08 112.248L199.293 110.719L200.785 111.331C203.13 112.35 205.048 113.573 207.18 114.694L213.468 118.262L238.299 132.533L244.587 136.1L247.678 137.935C248.637 138.445 249.916 139.056 250.769 140.381C251.515 141.707 251.408 143.134 251.408 144.153V147.619V154.55L251.301 168.515L251.195 182.378L251.088 189.309C251.088 191.552 251.088 193.896 250.769 196.241ZM250.769 196.241C250.982 193.896 250.769 191.654 250.769 189.309L250.555 182.378L250.129 168.515L249.916 154.55L249.703 144.153C249.596 143.032 249.703 141.91 249.17 141.197C248.744 140.483 247.785 140.076 246.719 139.464L243.522 137.731L237.34 134.164L224.765 127.13L212.295 120.097L206.008 116.631C204.409 115.714 202.917 114.796 201.318 114.083C201.212 115.714 201.212 117.548 201.212 119.281L201.318 140.076L201.425 153.939V160.87V164.336C201.425 165.559 201.318 166.578 201.851 167.292C202.277 168.107 203.237 168.617 204.302 169.228L207.393 170.961L213.574 174.631L226.043 181.766L238.299 189.105L244.481 192.775C246.612 193.998 248.531 195.221 250.769 196.241ZM201.318 114.083C201.318 113.539 201.354 112.995 201.425 112.452L199.72 113.369C200.288 113.573 200.821 113.811 201.318 114.083Z" fill="#53AFBE"/>
<path fill-rule="evenodd" clip-rule="evenodd" d="M200.252 107.049L200.359 80.1391V66.582V59.8545C200.359 58.7332 200.252 57.6119 200.359 56.4907C200.359 55.2675 200.998 53.9424 202.064 53.2288L226.256 39.0602L238.299 32.1287L244.374 28.663C246.399 27.5417 248.424 26.4205 250.662 25.4012L252.26 24.6876V26.3185L252.473 29.7843L252.367 33.25L252.047 54.1462L251.727 68.0091L251.514 74.9405L251.408 78.4062C251.408 79.5275 251.301 80.8526 250.555 82.0758C249.916 83.1971 248.637 83.9106 247.571 84.4203L244.48 86.1531L238.193 89.5169L225.51 96.4484L200.465 110.311L200.252 107.049ZM200.252 107.049L200.465 110.209L225.297 96.0406L237.66 88.8034L243.947 85.2357L247.038 83.401C247.997 82.7894 248.956 82.1778 249.489 81.3623C250.022 80.4449 250.022 79.4256 250.022 78.3043V74.8386V67.9072L249.916 54.0443L250.022 40.1814V33.25L250.129 29.7843L250.022 28.0514C248.53 28.7649 247.038 29.5804 245.546 30.4978L239.365 33.8616L227.215 40.5891L202.703 53.9424C200.892 55.0636 201.318 57.6119 201.211 59.8545L200.998 66.582L200.679 80.0372L200.252 107.049ZM250.022 27.9495C250.591 27.6777 251.123 27.4398 251.621 27.2359L250.022 26.3185V27.9495Z" fill="#53AFBE"/>
<path d="M250.022 0.0200195C250.129 7.56305 250.235 15.208 250.448 22.751L226.576 9.70364L208.778 0.0200195H208.139L225.83 10.4172L250.875 25.0955L252.26 25.809V24.28C252.26 16.2273 252.154 8.07272 252.154 0.0200195H250.022Z" fill="#53AFBE"/>
<path d="M244.587 21.2221L238.405 18.0621L226.256 11.6404L204.408 0.0200195H204.302L226.043 11.9462L238.086 18.5718L244.054 22.0375C245.866 23.0568 247.677 23.9742 249.383 25.0955C247.571 26.2168 245.652 27.1342 243.734 28.1535L237.446 31.5173L224.657 38.1429L211.975 44.8705L205.581 48.2343L202.384 49.9671C201.318 50.5787 200.359 50.9865 199.613 50.9865C199.257 50.9865 198.867 50.8845 198.44 50.6807L196.842 49.8652L193.644 48.1323L187.357 44.7686L174.674 37.939L161.885 31.3134L155.598 27.9496C153.786 26.9303 151.868 26.0129 150.162 24.9936C154.212 22.6491 158.262 20.4066 162.312 18.1641L175.42 10.9268L188.529 3.79154L195.03 0.223886C195.172 0.155931 195.314 0.0879748 195.456 0.0200195H195.243C195.172 0.0200195 195.101 0.0539975 195.03 0.121953L188.422 3.58767L175.207 10.621L161.992 17.4505C157.516 19.795 153.04 22.0375 148.67 24.382L147.924 24.8916L148.67 25.4013C150.589 26.9303 152.72 27.9496 154.852 29.1728L161.139 32.6385L173.609 39.6719L186.291 46.6033L192.579 50.0691L195.669 51.8019C196.309 52.1077 196.735 52.3116 197.375 52.6174C198.014 52.9232 198.76 53.229 199.613 53.229C201.318 53.229 202.49 52.3116 203.556 51.8019L206.646 50.0691L212.934 46.6033L225.617 39.7738L238.192 32.7405L244.48 29.2748C246.505 28.0516 248.637 27.0322 250.555 25.5032L251.194 24.9936L250.555 24.5858C248.637 23.2607 246.505 22.3433 244.587 21.2221Z" fill="#53AFBE"/>
<path d="M191.726 0.0200195L187.996 2.05868L174.888 9.29591L161.779 16.5331L155.172 20.1008C153.253 21.1201 151.228 22.2414 149.203 23.1588C149.097 22.853 149.097 22.5472 148.99 22.3433L149.097 20.6105L149.203 17.1447L149.31 10.2133L149.63 0.0200195H147.711V10.2133V17.1447V20.6105V22.4453C147.818 23.1588 148.138 23.6684 148.244 24.1781L148.457 24.8916L149.097 24.5858C151.441 23.4646 153.573 22.1395 155.704 20.9163L162.099 17.1447L175.101 9.60171L187.996 2.26254L191.94 0.0200195H191.726Z" fill="#53AFBE"/>
<path fill-rule="evenodd" clip-rule="evenodd" d="M150.482 27.236L175.101 40.895L187.464 47.7245L193.645 51.0883L196.735 52.7192C197.162 53.025 197.801 53.3308 198.228 53.8405C198.76 54.3501 199.08 54.9617 199.187 55.5733C199.506 64.8492 199.613 73.8193 199.933 82.8913L200.146 96.5503V103.278L200.252 106.744V108.375C200.252 108.986 200.146 109.7 200.039 110.311L199.826 111.84L198.334 111.127C197.268 110.515 196.096 110.107 195.137 109.496L191.94 107.661L185.758 104.195L173.396 97.06L161.033 89.8228L154.852 86.2551L151.761 84.4203C150.802 83.8087 149.523 83.1971 148.777 82.0759C148.031 80.8527 148.138 79.4256 148.138 78.4063V74.9406V68.0091L148.244 54.1463C148.351 44.8704 148.138 35.6964 148.351 26.4205C149.097 26.7263 149.843 26.8283 150.482 27.236ZM150.482 27.236C149.843 26.8283 149.097 26.7263 148.351 26.4205C148.244 35.6964 148.564 44.8704 148.671 54.1463L148.99 68.0091L149.204 74.9406V78.4063C149.31 79.5276 149.204 80.6488 149.843 81.4643C150.376 82.2797 151.335 82.6875 152.401 83.2991L155.598 85.0319L161.886 88.4977L174.355 95.3271L186.931 102.361L193.112 105.826L196.309 107.559L198.014 108.375L197.908 96.5503V82.8913L198.121 55.7772C198.014 54.8598 197.162 54.1463 196.203 53.6366L193.112 51.8018L187.037 48.2342L174.888 41.2008L150.482 27.236ZM198.014 108.476C198.014 108.986 197.801 109.496 197.801 110.005L199.4 109.19L198.014 108.476Z" fill="#53AFBE"/>
<path fill-rule="evenodd" clip-rule="evenodd" d="M96.1296 106.642L96.2363 79.7314V66.2763L96.1296 59.5487C96.2362 58.4274 96.1297 57.4081 96.2363 56.1849C96.4494 54.9617 97.1954 53.7385 98.1546 53.025C106.254 48.1322 114.141 43.6472 122.24 38.8563L146.326 25.0954L147.925 24.178L148.031 26.0128C148.138 27.134 148.244 28.3572 148.351 29.5804L148.244 33.0461L148.138 39.9776L147.925 53.8404L147.605 67.8052L147.392 74.7367L147.285 78.2024C147.285 79.3237 147.285 80.6488 146.646 81.872C145.9 83.1971 144.514 83.7068 143.555 84.2164L140.464 85.9493L134.07 89.415L121.494 96.2445L108.918 103.278L102.631 106.744C100.499 107.865 98.4743 109.088 96.2363 110.005H96.1296V106.642ZM96.1296 106.642L96.2363 110.005C98.4743 109.088 100.499 107.763 102.631 106.642L108.812 103.074L121.281 95.9387L133.75 88.7015L139.932 85.1338L143.022 83.299C144.088 82.6874 145.154 82.1778 145.58 81.2604C146.006 80.4449 146.006 79.3237 146.006 78.2024V74.7367L145.9 67.7033V53.8404L146.006 39.9776V32.9442V29.4785C146.006 28.9348 146.006 28.3912 146.006 27.8476L123.199 40.4872C115.1 44.9723 106.787 49.3554 98.9006 53.8404C98.048 54.452 97.5151 55.2675 97.302 56.2868C97.0888 57.3062 97.1954 58.4274 97.0888 59.5487L96.9823 66.2763L96.6625 79.7314L96.1296 106.642ZM96.2363 110.005C96.1652 110.005 96.1296 110.005 96.1296 110.005H96.2363ZM145.9 27.9495L147.498 27.0321L145.793 26.2166C145.793 26.7603 145.829 27.3379 145.9 27.9495Z" fill="#53AFBE"/>
<path d="M146.006 0.0200195C146.113 7.46112 146.219 14.9022 146.432 22.3433L146.006 22.1395C145.509 21.9356 144.976 21.6977 144.408 21.4259L141.21 19.795L134.816 16.5331L122.134 9.70364L109.451 2.77221C107.746 1.82083 106.076 0.903438 104.442 0.0200195H103.696C105.473 1.1073 107.284 2.19459 109.132 3.28187L121.494 10.621L134.07 17.7563L140.464 21.2221L143.661 22.853C144.159 23.1248 144.692 23.3966 145.26 23.6684L146.113 24.0762L147.178 24.4839L148.244 24.8916V23.6684C148.244 15.7177 148.244 7.86885 148.138 0.0200195H146.006Z" fill="#53AFBE"/>
<path d="M134.816 18.3679L122.667 12.0481L100.179 0.0200195L122.56 12.252L134.39 18.8776C138.12 21.0182 141.956 22.9549 145.473 25.1974C144.727 25.7071 143.981 26.2168 143.129 26.6245L139.932 28.3574L133.537 31.6192L120.748 38.2448L108.066 44.9724L101.671 48.4381L98.4743 50.0691C97.4085 50.6807 96.556 51.0884 95.7034 51.0884C94.8508 51.0884 93.9982 50.5787 92.9324 49.9671L89.7352 48.2343L83.3408 44.8705L70.6585 38.041L57.9762 31.3134L51.5818 28.0516C49.77 27.0322 47.8517 26.1148 46.2531 24.9936L71.7243 10.723L84.9394 3.48574L91.4404 0.0200195H91.2273L84.9394 3.3838L71.5111 10.4172L44.6545 24.4839L43.9084 24.8916L44.6545 25.5032C46.5728 26.9303 48.7043 28.0516 50.8357 29.2748L57.1236 32.7405L69.6993 39.7738L82.275 46.7053L88.5629 50.171L91.7601 51.9039C92.7193 52.4135 93.9982 53.3309 95.7034 53.3309C97.302 53.3309 98.5809 52.5154 99.6466 52.0058L102.737 50.2729L109.132 46.8072L121.707 39.8758L134.283 32.8424L140.571 29.3767L143.768 27.6438C144.727 27.0322 145.793 26.3187 146.752 25.7071L147.498 25.1974L146.752 24.7897C142.916 22.4452 138.759 20.5085 134.816 18.3679Z" fill="#53AFBE"/>
<path d="M87.3905 0.0200195L83.767 1.95674L70.6584 9.29591L57.5498 16.4312L50.9422 19.9989C49.0239 21.0182 47.1056 22.1395 45.0807 23.0568L44.9741 22.1395C44.8675 21.6298 44.9741 21.1201 44.9741 20.5085L45.0807 17.0428L45.1872 10.1114L45.5069 0.0200195H43.5886V10.1114V17.0428V20.5085C43.5886 21.0182 43.5887 21.7317 43.6952 22.3433L44.0149 24.0762L44.1215 24.7897L44.8675 24.4839C47.2121 23.3626 49.2371 22.0375 51.4751 20.8143L57.8695 17.0428L70.8716 9.49978L83.8735 2.16061L87.6036 0.0200195H87.3905Z" fill="#53AFBE"/>
<path fill-rule="evenodd" clip-rule="evenodd" d="M94.531 54.4522C95.0639 72.5962 95.5968 91.0461 95.9165 109.598V110.821L94.8508 110.413L93.7851 110.107L92.9324 109.7C92.364 109.428 91.8312 109.156 91.3338 108.884L88.0301 107.253C85.8986 106.234 83.7671 105.011 81.7422 103.89L69.0599 97.0601L56.4842 89.9248C52.3278 87.5803 48.1715 85.2359 44.0151 82.4837L43.5888 82.1779V81.6682L43.3756 53.8406C43.3756 44.5647 43.269 35.2888 43.269 26.0129L43.3756 24.4839L44.6545 25.1974L69.806 39.8758L94.531 54.4522ZM94.531 54.4522L68.9533 40.5893L45.1874 27.4399C45.4005 36.2062 45.4005 44.9724 45.5071 53.7386L45.9334 80.9547C49.6635 83.4011 53.7133 85.7455 57.6565 88.09L70.1257 95.2253L82.7014 102.157L88.9892 105.622L92.1865 107.253C92.6838 107.525 93.2167 107.797 93.7851 108.069L94.1048 108.273C94.1048 90.4344 94.3179 72.5962 94.531 54.4522ZM45.1874 27.4399C45.1874 26.8963 45.1519 26.3866 45.0808 25.9109L43.8019 26.6245L45.1874 27.4399ZM45.9334 81.0566C45.7202 80.9207 45.5426 80.8188 45.4005 80.7508L45.9334 81.5663V81.0566ZM94.1048 108.375C94.1048 108.782 94.1048 109.224 94.1048 109.7L95.1705 108.782L94.531 108.579L94.1048 108.375Z" fill="#53AFBE"/>
<path d="M41.8835 0.0200195C41.9901 7.56305 42.0966 15.208 42.3098 22.751L18.4373 9.60171L0.639417 0.0200195H0L17.6912 10.4172L42.7361 24.9936L44.1215 25.809V24.28C44.1215 16.1254 44.1215 8.07272 44.015 0.0200195H41.8835Z" fill="#53AFBE"/>
<path fill-rule="evenodd" clip-rule="evenodd" d="M249.063 309.896L224.764 296.848L212.508 290.427L206.433 287.267C204.408 286.145 202.277 285.228 200.359 283.903L199.719 283.393L200.359 282.986C201.424 282.374 202.384 281.66 203.449 281.049L206.54 279.316L212.828 275.85L225.404 268.817L238.086 261.885L244.374 258.522L247.464 256.789C248.53 256.279 249.702 255.362 251.408 255.362C252.26 255.362 253.006 255.566 253.646 255.871C254.392 256.279 254.818 256.483 255.351 256.789L258.441 258.522L264.729 261.987L277.412 268.919L289.881 275.85L296.169 279.418C298.3 280.641 300.431 281.66 302.35 283.087L303.202 283.699L302.35 284.107L275.813 297.97L262.598 305.003L255.99 308.469C254.818 309.08 253.859 309.692 252.686 310.202C251.514 310.711 250.129 310.507 249.063 309.896ZM249.063 309.896C250.129 310.507 251.514 310.609 252.58 310.1C253.752 309.59 254.818 308.978 255.884 308.367L262.491 304.799L275.6 297.664L288.708 290.427L300.858 283.597C299.153 282.476 297.341 281.558 295.529 280.641L289.135 277.277L276.346 270.55L263.664 263.822L254.179 258.725L252.686 257.91C252.26 257.706 251.834 257.604 251.408 257.604C250.662 257.604 249.702 258.012 248.637 258.624L245.439 260.356L239.045 263.72L226.363 270.448L213.574 277.073L207.179 280.335L203.982 282.068C203.236 282.476 202.384 282.986 201.638 283.495C203.236 284.616 205.155 285.534 206.86 286.553L212.828 289.917L224.871 296.645L249.063 309.896ZM300.964 283.597C301.249 283.733 301.497 283.903 301.71 284.107L301.817 283.087L300.964 283.597ZM201.744 283.495C201.531 283.359 201.318 283.223 201.105 283.087V283.903C201.318 283.767 201.531 283.631 201.744 283.495Z" fill="#53AFBE"/>
<path fill-rule="evenodd" clip-rule="evenodd" d="M352.333 367.488L327.928 353.829L315.565 347.101L309.49 343.738L306.4 342.005C305.441 341.495 304.055 340.68 303.735 339.355C303.522 338.029 303.629 337.01 303.522 335.787L303.416 332.423L303.309 325.696L302.989 312.138L302.67 291.752V288.388C302.67 287.267 302.457 286.248 302.776 284.82L302.989 283.597L304.055 283.903C304.41 284.039 304.801 284.175 305.227 284.311L306.08 284.719C306.648 284.922 307.181 285.194 307.679 285.534L310.876 287.165L317.27 290.529L329.846 297.562C334.002 299.907 338.159 302.353 342.209 304.799C346.365 307.348 350.521 309.794 354.465 312.444L354.784 312.648V312.954L354.571 340.578L354.678 368.303C353.932 367.998 353.079 367.896 352.333 367.488ZM352.333 367.488C353.079 367.896 353.932 367.998 354.678 368.303L354.145 340.578L353.505 313.26C349.562 310.813 345.512 308.469 341.356 306.226L328.78 299.295L316.205 292.363L309.81 289.102L306.613 287.471L305.014 286.655H304.908C304.908 287.165 304.908 287.878 304.908 288.388V291.752V298.581V312.138L304.801 325.696V332.423V335.787C304.801 336.908 304.695 338.233 304.801 339.049C305.014 340.068 305.867 340.578 306.933 341.189L309.917 342.922L315.991 346.49L328.034 353.523L352.333 367.488ZM353.505 313.26C353.576 313.328 353.648 313.396 353.719 313.464L353.505 312.954V313.26ZM304.908 286.655C304.908 286.044 304.908 285.534 305.014 285.126L303.735 286.146C303.878 286.214 304.055 286.282 304.268 286.349L304.908 286.655Z" fill="#53AFBE"/>
<path fill-rule="evenodd" clip-rule="evenodd" d="M351.907 309.182L328.141 296.441L304.268 283.903L303.629 283.495L304.268 283.087C305.228 282.374 306.187 281.558 307.252 280.947L310.45 279.214L316.737 275.748L329.313 268.715L341.889 261.783L348.177 258.318L351.374 256.585C352.44 256.075 353.825 255.362 355.317 255.362C356.916 255.362 358.301 256.177 359.26 256.687L362.458 258.42L381.428 268.817L394.004 275.748L400.291 279.316L403.382 281.049L406.473 282.986L407.325 283.597L406.473 284.005C397.414 288.898 388.355 293.485 379.403 298.174L365.868 305.411L359.154 308.978C357.982 309.59 356.809 310.202 355.53 310.202C354.251 310.304 352.973 309.794 351.907 309.182ZM351.907 309.182C352.973 309.794 354.251 310.202 355.53 310.202C356.809 310.1 357.982 309.488 359.047 308.876L365.761 305.207L379.19 297.868C387.716 293.077 396.348 288.388 404.874 283.495C396.881 279.01 388.462 274.933 380.362 270.55L367.68 263.72L361.285 260.356L358.195 258.624C357.022 258.012 356.276 257.604 355.317 257.604C354.465 257.502 353.505 257.91 352.44 258.522L349.349 260.153L342.955 263.516L330.166 270.346L317.484 276.971L311.089 280.335L307.892 281.966C307.039 282.374 306.293 282.884 305.547 283.393L316.524 289.611L328.354 296.237L351.907 309.182ZM404.874 283.495C405.158 283.699 405.442 283.869 405.727 284.005V282.986C405.442 283.121 405.158 283.291 404.874 283.495ZM305.547 283.393L304.801 282.986L304.908 283.801C305.121 283.665 305.334 283.529 305.547 283.393Z" fill="#53AFBE"/>
<path fill-rule="evenodd" clip-rule="evenodd" d="M355.743 365.144L355.85 338.131L355.743 324.676V317.949C355.743 316.827 355.637 315.706 355.85 314.483C356.063 313.362 356.703 312.138 357.768 311.323C365.761 306.43 373.754 301.945 381.854 297.256L393.897 290.325L402.956 285.126L406.153 283.597L407.751 282.782L407.858 284.515L407.965 288.082L407.858 291.548L407.751 298.479L407.538 312.342L407.219 326.205L407.006 333.239L406.899 336.704C406.899 337.825 406.899 339.151 406.153 340.374C405.407 341.495 404.128 342.209 403.169 342.82L399.972 344.451L393.684 347.917L381.001 354.848L355.85 368.711L355.743 365.144ZM355.743 365.144L355.957 368.711L380.895 354.542L393.257 347.305L399.545 343.636L402.636 341.801C403.702 341.291 404.554 340.68 405.087 339.762C405.513 338.947 405.62 337.825 405.62 336.704V333.239L405.513 326.307V312.342C405.513 303.678 405.727 295.014 405.62 286.349L404.128 287.063L401.144 288.796L395.069 292.16L382.813 298.887C374.714 303.372 366.401 307.755 358.514 312.24C357.662 312.852 357.129 313.667 356.916 314.687C356.703 315.706 356.809 316.929 356.703 318.051L356.489 324.778L356.17 338.233L355.743 365.144ZM405.62 286.349L407.325 285.636L405.62 284.617C405.62 285.228 405.62 285.806 405.62 286.349Z" fill="#53AFBE"/>
<path d="M420.114 389.607L418.089 390.627L411.908 393.889C409.776 394.806 407.751 396.641 405.833 395.723C397.733 391.238 389.527 386.549 381.321 382.064L369.065 375.337L362.884 371.871C361.392 371.056 359.9 370.24 358.514 369.425L382.067 356.581L394.643 349.548L400.93 346.082L404.021 344.349C405.087 343.738 406.046 343.126 407.112 343.126C408.071 343.024 409.03 343.534 410.096 344.145L413.293 345.776L419.687 349.14L420.114 349.344V348.426H420.007L413.826 344.961L410.629 343.228C409.669 342.616 408.497 341.801 407.005 341.903C405.513 342.005 404.447 342.718 403.382 343.228L400.185 344.859L393.79 348.223L381.108 354.848C372.582 359.333 364.162 363.716 355.743 368.405L354.145 369.221L355.637 370.24C357.661 371.667 359.793 372.686 361.818 373.808L367.999 377.07L380.362 383.695C388.781 387.976 396.881 392.36 405.407 396.743C406.686 397.252 408.178 396.946 409.243 396.335L412.334 394.602L418.409 391.238L420.114 390.321V389.607Z" fill="#53AFBE"/>
<path d="M420.114 346.082L409.244 339.66C409.35 330.588 409.244 321.414 409.137 312.342L409.031 286.35L410.416 287.063L413.613 288.796L419.901 292.364L420.114 292.465V290.019L414.786 286.961L411.695 285.126L408.391 283.495L406.686 282.578V284.515L407.006 312.342C407.219 321.618 407.219 330.894 407.432 340.17V340.68L407.965 340.884L420.114 347.611V346.082Z" fill="#53AFBE"/>
<path d="M420.114 289.407C416.597 287.471 413.08 285.636 409.776 283.495C410.06 283.291 410.345 283.088 410.629 282.884C410.948 282.578 411.588 282.272 412.121 282.068L415.318 280.335L420.114 277.889V276.258L414.679 279.316L411.481 281.049C410.948 281.355 410.522 281.559 409.883 281.966C409.35 282.374 409.03 282.782 408.497 283.189L407.964 283.597L408.604 284.005C412.334 286.247 416.277 288.082 420.114 290.121V289.407Z" fill="#53AFBE"/>
</g>
</svg>
