<svg xmlns="http://www.w3.org/2000/svg" width="42.02" height="42.01" viewBox="0 0 42.02 42.01">
  <g id="Group_30" data-name="Group 30" transform="translate(-106.495 -21.99)">
    <path id="money-bag-1" d="M4.99,3.99a1,1,0,0,0-.7,1.717L10.9,12.316a18.88,18.88,0,0,0-.01,25.377l-6.6,6.6a1,1,0,1,0,1.414,1.414l6.6-6.6a18.862,18.862,0,0,0,14.658,4.8,13.04,13.04,0,0,1-.617-1.965c-.446.035-.893.068-1.348.068a17,17,0,1,1,17-17c0,.451-.033.894-.068,1.336a12.916,12.916,0,0,1,1.967.617A19.1,19.1,0,0,0,44,25.01a18.9,18.9,0,0,0-4.9-12.693l6.609-6.609a1,1,0,1,0-1.414-1.414L37.684,10.9a18.887,18.887,0,0,0-25.367,0L5.707,4.293A1,1,0,0,0,4.99,3.99Z" transform="translate(102.505 18)" fill="#fdfdfd"/>
    <text id="_60" data-name="60" transform="translate(128 48)" fill="#fff" font-size="14" font-family="Poppins-Regular, Poppins"><tspan x="-8.841" y="0">60</tspan></text>
  </g>
</svg>
